<svg xmlns="http://www.w3.org/2000/svg" xmlns:xlink="http://www.w3.org/1999/xlink" width="500" zoomAndPan="magnify" viewBox="0 0 375 374.999991" height="500" preserveAspectRatio="xMidYMid meet" version="1.0"><defs><clipPath id="3ae2edf2f9"><path d="M 114.328125 262.929688 L 226.828125 262.929688 L 226.828125 266.679688 L 114.328125 266.679688 Z M 114.328125 262.929688 " clip-rule="nonzero"/></clipPath></defs><path fill="#ff6f61" d="M 93.738281 105.472656 C 58.203125 105.472656 29.285156 134.390625 29.285156 169.925781 C 29.285156 188.535156 37.261719 205.28125 49.917969 217.058594 C 50.101562 217.230469 50.261719 217.417969 50.472656 217.5625 C 61.929688 227.96875 77.082031 234.378906 93.738281 234.378906 C 110.289062 234.378906 125.355469 228.050781 136.789062 217.757812 C 136.988281 217.621094 137.144531 217.433594 137.320312 217.277344 C 150.117188 205.488281 158.199219 188.652344 158.199219 169.925781 C 158.191406 134.390625 129.273438 105.472656 93.738281 105.472656 Z M 60.582031 210.878906 C 63.984375 201.480469 71.363281 193.875 80.691406 190.152344 C 84.640625 192.140625 89.035156 193.363281 93.746094 193.363281 C 98.414062 193.363281 102.769531 192.167969 106.6875 190.21875 C 116.003906 193.96875 123.347656 201.609375 126.703125 211.03125 C 117.667969 218.289062 106.214844 222.660156 93.746094 222.660156 C 81.175781 222.660156 69.644531 218.230469 60.582031 210.878906 Z M 93.738281 181.644531 C 84.046875 181.644531 76.160156 173.757812 76.160156 164.066406 C 76.160156 154.375 84.046875 146.488281 93.738281 146.488281 C 103.429688 146.488281 111.316406 154.375 111.316406 164.066406 C 111.316406 173.757812 103.429688 181.644531 93.738281 181.644531 Z M 135.527344 201.972656 C 131.355469 193.644531 124.769531 186.707031 116.667969 182.078125 C 120.59375 177.09375 123.035156 170.894531 123.035156 164.066406 C 123.035156 147.914062 109.894531 134.769531 93.738281 134.769531 C 77.585938 134.769531 64.441406 147.914062 64.441406 164.066406 C 64.441406 170.847656 66.851562 177.015625 70.734375 181.992188 C 62.621094 186.574219 56.003906 193.476562 51.804688 201.777344 C 45.066406 192.914062 41.003906 181.898438 41.003906 169.925781 C 41.003906 140.847656 64.660156 117.191406 93.738281 117.191406 C 122.816406 117.191406 146.472656 140.847656 146.472656 169.925781 C 146.472656 181.984375 142.359375 193.078125 135.527344 201.972656 Z M 135.527344 201.972656 " fill-opacity="1" fill-rule="nonzero"/><path fill="#ff6f61" d="M 181.621094 128.910156 L 281.226562 128.910156 C 284.46875 128.910156 287.085938 126.292969 287.085938 123.050781 C 287.085938 119.8125 284.46875 117.191406 281.226562 117.191406 L 181.625 117.191406 C 178.382812 117.191406 175.765625 119.8125 175.765625 123.050781 C 175.765625 126.292969 178.382812 128.910156 181.625 128.910156 Z M 181.621094 128.910156 " fill-opacity="1" fill-rule="nonzero"/><path fill="#ff6f61" d="M 181.621094 152.347656 L 234.359375 152.347656 C 237.597656 152.347656 240.21875 149.730469 240.21875 146.488281 C 240.21875 143.25 237.597656 140.628906 234.359375 140.628906 L 181.625 140.628906 C 178.382812 140.628906 175.765625 143.25 175.765625 146.488281 C 175.765625 149.730469 178.382812 152.347656 181.625 152.347656 Z M 181.621094 152.347656 " fill-opacity="1" fill-rule="nonzero"/><path fill="#ff6f61" d="M 281.226562 187.503906 L 216.777344 187.503906 C 213.539062 187.503906 210.917969 190.125 210.917969 193.363281 C 210.917969 196.605469 213.539062 199.222656 216.777344 199.222656 L 281.226562 199.222656 C 284.464844 199.222656 287.085938 196.605469 287.085938 193.363281 C 287.085938 190.125 284.464844 187.503906 281.226562 187.503906 Z M 281.226562 187.503906 " fill-opacity="1" fill-rule="nonzero"/><path fill="#ff6f61" d="M 193.34375 187.503906 L 181.625 187.503906 C 178.382812 187.503906 175.765625 190.125 175.765625 193.363281 C 175.765625 196.605469 178.382812 199.222656 181.625 199.222656 L 193.34375 199.222656 C 196.582031 199.222656 199.203125 196.605469 199.203125 193.363281 C 199.203125 190.125 196.582031 187.503906 193.34375 187.503906 Z M 193.34375 187.503906 " fill-opacity="1" fill-rule="nonzero"/><path fill="#ff6f61" d="M 193.34375 210.941406 L 181.625 210.941406 C 178.382812 210.941406 175.765625 213.5625 175.765625 216.800781 C 175.765625 220.042969 178.382812 222.660156 181.625 222.660156 L 193.34375 222.660156 C 196.582031 222.660156 199.203125 220.042969 199.203125 216.800781 C 199.203125 213.5625 196.582031 210.941406 193.34375 210.941406 Z M 193.34375 210.941406 " fill-opacity="1" fill-rule="nonzero"/><path fill="#ff6f61" d="M 316.371094 199.492188 L 316.371094 82.144531 C 316.371094 82.121094 316.382812 82.101562 316.382812 82.085938 L 316.382812 29.316406 C 316.382812 26.074219 313.761719 23.457031 310.523438 23.457031 L 5.859375 23.457031 C 2.621094 23.457031 0 26.074219 0 29.316406 L 0 263.707031 C 0 266.945312 2.621094 269.566406 5.859375 269.566406 L 246.09375 269.566406 L 246.09375 287.089844 C 246.09375 310.992188 259.199219 331.855469 278.582031 342.984375 C 278.734375 343.066406 278.859375 343.183594 279.023438 343.253906 C 288.355469 348.511719 299.097656 351.546875 310.546875 351.546875 C 321.996094 351.546875 332.742188 348.511719 342.074219 343.25 C 342.210938 343.191406 342.320312 343.089844 342.449219 343.019531 C 361.867188 331.90625 375 311.023438 375 287.089844 L 375 263.648438 C 375 230.082031 349.1875 202.449219 316.371094 199.492188 Z M 304.664062 52.765625 L 304.664062 58.636719 L 11.71875 58.636719 L 11.71875 52.765625 Z M 304.664062 41.046875 L 11.71875 41.046875 L 11.71875 35.175781 L 304.664062 35.175781 Z M 11.71875 70.355469 L 304.664062 70.355469 L 304.664062 76.226562 L 11.71875 76.226562 Z M 11.71875 87.945312 L 304.652344 87.945312 L 304.652344 199.492188 C 293.148438 200.546875 282.53125 204.632812 273.5625 210.941406 L 216.78125 210.941406 C 213.539062 210.941406 210.921875 213.5625 210.921875 216.800781 C 210.921875 220.042969 213.539062 222.660156 216.78125 222.660156 L 260.84375 222.660156 C 252.796875 232.40625 247.582031 244.550781 246.386719 257.847656 L 11.71875 257.847656 Z M 260.898438 304.699219 C 265.039062 309.703125 269.933594 314.03125 275.382812 317.59375 L 275.382812 326.277344 C 268.90625 320.453125 263.875 313.070312 260.898438 304.699219 Z M 333.984375 323.625 L 333.984375 334.257812 C 328.574219 336.953125 322.664062 338.777344 316.40625 339.480469 L 316.40625 327.800781 C 322.558594 327.25 328.445312 325.796875 333.984375 323.625 Z M 304.6875 339.480469 C 298.429688 338.78125 292.511719 336.953125 287.101562 334.253906 L 287.101562 323.621094 C 292.640625 325.792969 298.527344 327.246094 304.6875 327.804688 Z M 345.703125 326.289062 L 345.703125 317.605469 C 351.152344 314.042969 356.054688 309.703125 360.191406 304.703125 C 357.214844 313.078125 352.1875 320.460938 345.703125 326.292969 Z M 310.546875 316.382812 C 281.464844 316.382812 257.8125 292.730469 257.8125 263.648438 C 257.8125 234.566406 281.464844 210.914062 310.546875 210.914062 C 339.625 210.914062 363.28125 234.566406 363.28125 263.648438 C 363.28125 292.730469 339.625 316.382812 310.546875 316.382812 Z M 310.546875 316.382812 " fill-opacity="1" fill-rule="nonzero"/><path fill="#ff6f61" d="M 310.546875 240.21875 C 307.304688 240.21875 304.6875 242.835938 304.6875 246.078125 L 304.6875 281.230469 C 304.6875 284.472656 307.304688 287.089844 310.546875 287.089844 C 313.785156 287.089844 316.40625 284.472656 316.40625 281.230469 L 316.40625 246.078125 C 316.40625 242.835938 313.785156 240.21875 310.546875 240.21875 Z M 310.546875 240.21875 " fill-opacity="1" fill-rule="nonzero"/><g clip-path="url(#3ae2edf2f9)"><path fill="#ff6f61" d="M 114.328125 262.929688 L 226.828125 262.929688 L 226.828125 266.679688 L 114.328125 266.679688 Z M 114.328125 262.929688 " fill-opacity="1" fill-rule="nonzero"/></g></svg>