<svg xmlns="http://www.w3.org/2000/svg" xmlns:xlink="http://www.w3.org/1999/xlink" width="500" zoomAndPan="magnify" viewBox="0 0 375 374.999991" height="500" preserveAspectRatio="xMidYMid meet" version="1.0"><defs><clipPath id="b7dfe82fe1"><path d="M 0 24.609375 L 370 24.609375 L 370 350.109375 L 0 350.109375 Z M 0 24.609375 " clip-rule="nonzero"/></clipPath><clipPath id="a1a5fb2c7d"><path d="M 91.394531 268.953125 L 96.453125 268.953125 L 96.453125 278.199219 L 91.394531 278.199219 Z M 91.394531 268.953125 " clip-rule="nonzero"/></clipPath><clipPath id="6fa91a9976"><path d="M 93.925781 268.953125 C 95.320312 268.953125 96.453125 270.085938 96.453125 271.484375 L 96.453125 275.667969 C 96.453125 277.066406 95.320312 278.199219 93.925781 278.199219 C 92.527344 278.199219 91.394531 277.066406 91.394531 275.667969 L 91.394531 271.484375 C 91.394531 270.085938 92.527344 268.953125 93.925781 268.953125 Z M 93.925781 268.953125 " clip-rule="nonzero"/></clipPath></defs><path fill="#ff6f61" d="M 6.773438 348.628906 C 5.34375 348.628906 3.925781 348.023438 2.925781 346.847656 C 1.121094 344.726562 1.378906 341.535156 3.507812 339.734375 L 88.691406 267.40625 C 90.386719 265.964844 92.828125 265.800781 94.703125 267.019531 L 147.503906 301.238281 L 254.640625 218.742188 C 256.625 217.210938 259.441406 217.375 261.238281 219.125 L 314.550781 271.007812 L 359.285156 228.34375 C 361.304688 226.425781 364.496094 226.5 366.421875 228.515625 C 368.34375 230.53125 368.269531 233.726562 366.25 235.648438 L 317.996094 281.667969 C 316.035156 283.539062 312.941406 283.527344 310.992188 281.632812 L 257.332031 229.40625 L 150.832031 311.414062 C 149.144531 312.722656 146.808594 312.816406 145.011719 311.652344 L 92.363281 277.53125 L 10.035156 347.429688 C 9.089844 348.238281 7.929688 348.628906 6.773438 348.628906 " fill-opacity="1" fill-rule="nonzero"/><path fill="#ff6f61" d="M 104.246094 271.253906 C 104.246094 264.46875 98.746094 258.964844 91.960938 258.964844 C 85.175781 258.964844 79.667969 264.46875 79.667969 271.253906 C 79.667969 278.039062 85.175781 283.539062 91.960938 283.539062 C 98.746094 283.539062 104.246094 278.039062 104.246094 271.253906 " fill-opacity="1" fill-rule="nonzero"/><path fill="#ff6f61" d="M 160.042969 307.417969 C 160.042969 300.632812 154.542969 295.132812 147.757812 295.132812 C 140.96875 295.132812 135.46875 300.632812 135.46875 307.417969 C 135.46875 314.203125 140.96875 319.707031 147.757812 319.707031 C 154.542969 319.707031 160.042969 314.203125 160.042969 307.417969 " fill-opacity="1" fill-rule="nonzero"/><path fill="#ff6f61" d="M 270.007812 222.742188 C 270.007812 215.957031 264.503906 210.457031 257.71875 210.457031 C 250.9375 210.457031 245.429688 215.957031 245.429688 222.742188 C 245.429688 229.527344 250.9375 235.027344 257.71875 235.027344 C 264.503906 235.027344 270.007812 229.527344 270.007812 222.742188 " fill-opacity="1" fill-rule="nonzero"/><path fill="#ff6f61" d="M 327.054688 278.695312 C 327.054688 271.910156 321.554688 266.410156 314.769531 266.410156 C 307.984375 266.410156 302.480469 271.910156 302.480469 278.695312 C 302.480469 285.484375 307.984375 290.984375 314.769531 290.984375 C 321.554688 290.984375 327.054688 285.484375 327.054688 278.695312 " fill-opacity="1" fill-rule="nonzero"/><path fill="#ff6f61" d="M 375.054688 231.996094 C 375.054688 225.210938 369.554688 219.710938 362.765625 219.710938 C 355.980469 219.710938 350.480469 225.210938 350.480469 231.996094 C 350.480469 238.785156 355.980469 244.285156 362.765625 244.285156 C 369.554688 244.285156 375.054688 238.785156 375.054688 231.996094 " fill-opacity="1" fill-rule="nonzero"/><path fill="#ffd700" d="M 6.765625 348.628906 C 5.953125 348.628906 5.125 348.429688 4.355469 348.011719 C 1.910156 346.675781 1.007812 343.613281 2.34375 341.164062 L 87.53125 185.03125 C 88.234375 183.738281 89.480469 182.8125 90.925781 182.511719 C 92.363281 182.207031 93.878906 182.554688 95.046875 183.460938 L 149.195312 225.371094 L 246.109375 134.171875 C 247.710938 132.65625 250.113281 132.363281 252.039062 133.445312 L 302.449219 161.734375 L 358.617188 80.558594 C 360.207031 78.265625 363.351562 77.695312 365.640625 79.277344 C 367.933594 80.867188 368.503906 84.007812 366.917969 86.300781 L 308.132812 171.253906 C 306.652344 173.394531 303.785156 174.054688 301.515625 172.78125 L 250.328125 144.058594 L 152.96875 235.671875 C 151.164062 237.371094 148.386719 237.507812 146.421875 235.988281 L 93.550781 195.0625 L 11.203125 346 C 10.285156 347.675781 8.558594 348.628906 6.765625 348.628906 " fill-opacity="1" fill-rule="nonzero"/><path fill="#ffd700" d="M 375.054688 83.429688 C 375.054688 76.644531 369.554688 71.140625 362.765625 71.140625 C 355.980469 71.140625 350.480469 76.644531 350.480469 83.429688 C 350.480469 90.21875 355.980469 95.71875 362.765625 95.71875 C 369.554688 95.71875 375.054688 90.21875 375.054688 83.429688 " fill-opacity="1" fill-rule="nonzero"/><path fill="#ffd700" d="M 314.769531 164.175781 C 314.769531 157.390625 309.269531 151.890625 302.480469 151.890625 C 295.695312 151.890625 290.195312 157.390625 290.195312 164.175781 C 290.195312 170.960938 295.695312 176.464844 302.480469 176.464844 C 309.269531 176.464844 314.769531 170.960938 314.769531 164.175781 " fill-opacity="1" fill-rule="nonzero"/><path fill="#ffd700" d="M 262.984375 139.601562 C 262.984375 132.816406 257.484375 127.316406 250.699219 127.316406 C 243.914062 127.316406 238.410156 132.816406 238.410156 139.601562 C 238.410156 146.390625 243.914062 151.890625 250.699219 151.890625 C 257.484375 151.890625 262.984375 146.390625 262.984375 139.601562 " fill-opacity="1" fill-rule="nonzero"/><path fill="#ffd700" d="M 160.042969 228.640625 C 160.042969 221.851562 154.542969 216.351562 147.757812 216.351562 C 140.96875 216.351562 135.46875 221.851562 135.46875 228.640625 C 135.46875 235.425781 140.96875 240.925781 147.757812 240.925781 C 154.542969 240.925781 160.042969 235.425781 160.042969 228.640625 " fill-opacity="1" fill-rule="nonzero"/><path fill="#ffd700" d="M 104.246094 187.449219 C 104.246094 180.664062 98.746094 175.164062 91.960938 175.164062 C 85.175781 175.164062 79.667969 180.664062 79.667969 187.449219 C 79.667969 194.234375 85.175781 199.734375 91.960938 199.734375 C 98.746094 199.734375 104.246094 194.234375 104.246094 187.449219 " fill-opacity="1" fill-rule="nonzero"/><g clip-path="url(#b7dfe82fe1)"><path fill="#212121" d="M 362.765625 350.3125 L 6.769531 350.3125 C 3.054688 350.3125 0.0429688 347.296875 0.0429688 343.582031 L 0.0429688 31.320312 C 0.0429688 27.601562 3.054688 24.589844 6.769531 24.589844 C 10.488281 24.589844 13.5 27.601562 13.5 31.320312 L 13.5 336.855469 L 362.765625 336.855469 C 366.484375 336.855469 369.496094 339.867188 369.496094 343.582031 C 369.496094 347.296875 366.484375 350.3125 362.765625 350.3125 " fill-opacity="1" fill-rule="nonzero"/></g><g clip-path="url(#a1a5fb2c7d)"><g clip-path="url(#6fa91a9976)"><path fill="#ff6f61" d="M 91.394531 268.953125 L 96.453125 268.953125 L 96.453125 278.199219 L 91.394531 278.199219 Z M 91.394531 268.953125 " fill-opacity="1" fill-rule="nonzero"/></g></g></svg>