<svg xmlns="http://www.w3.org/2000/svg" xmlns:xlink="http://www.w3.org/1999/xlink" width="500" zoomAndPan="magnify" viewBox="0 0 375 374.999991" height="500" preserveAspectRatio="xMidYMid meet" version="1.0"><defs><clipPath id="8cfee60b11"><path d="M 2.621094 61.160156 L 21.109375 61.160156 L 21.109375 173.660156 L 2.621094 173.660156 Z M 2.621094 61.160156 " clip-rule="nonzero"/></clipPath></defs><path fill="#000000" d="M 314.886719 346.375 L 28.625 346.375 L 28.625 60.113281 L 200.382812 60.113281 L 200.382812 31.488281 L 28.625 31.488281 C 12.824219 31.488281 0 44.3125 0 60.113281 L 0 346.375 C 0 362.175781 12.824219 375 28.625 375 L 314.886719 375 C 330.6875 375 343.511719 362.175781 343.511719 346.375 L 343.511719 174.617188 L 314.886719 174.617188 Z M 314.886719 346.375 " fill-opacity="1" fill-rule="nonzero"/><path fill="#000000" d="M 114.503906 260.953125 L 174.761719 260.953125 L 320.8125 114.90625 L 260.09375 54.1875 L 114.503906 199.78125 Z M 114.503906 260.953125 " fill-opacity="1" fill-rule="nonzero"/><path fill="#000000" d="M 363.75 31.488281 L 343.511719 11.25 C 332.320312 0.0585938 314.199219 0.0585938 303.035156 11.25 L 280.332031 33.949219 L 341.050781 94.667969 L 363.75 71.964844 C 374.941406 60.773438 374.941406 42.652344 363.75 31.488281 Z M 363.75 31.488281 " fill-opacity="1" fill-rule="nonzero"/><g clip-path="url(#8cfee60b11)"><path fill="#000000" d="M 2.621094 61.160156 L 21.109375 61.160156 L 21.109375 173.675781 L 2.621094 173.675781 Z M 2.621094 61.160156 " fill-opacity="1" fill-rule="nonzero"/></g></svg>