<svg xmlns="http://www.w3.org/2000/svg" xmlns:xlink="http://www.w3.org/1999/xlink" width="500" zoomAndPan="magnify" viewBox="0 0 375 374.999991" height="500" preserveAspectRatio="xMidYMid meet" version="1.0"><path fill="#212121" d="M 262.996094 60.28125 C 264.75 61.101562 266.480469 61.976562 268.1875 62.902344 C 269.890625 63.828125 271.566406 64.804688 273.214844 65.835938 C 274.863281 66.863281 276.480469 67.945312 278.070312 69.074219 C 279.660156 70.203125 281.214844 71.382812 282.742188 72.609375 C 284.265625 73.839844 285.757812 75.113281 287.214844 76.4375 C 288.671875 77.757812 290.09375 79.125 291.480469 80.539062 C 292.867188 81.953125 294.21875 83.414062 295.53125 84.914062 C 296.84375 86.417969 298.117188 87.960938 299.351562 89.550781 C 300.585938 91.136719 301.78125 92.765625 302.9375 94.433594 C 304.089844 96.101562 305.203125 97.804688 306.273438 99.550781 C 307.347656 101.296875 308.375 103.074219 309.363281 104.894531 C 310.347656 106.710938 311.289062 108.5625 312.1875 110.445312 C 313.085938 112.332031 313.9375 114.25 314.746094 116.199219 C 315.554688 118.148438 316.316406 120.125 317.03125 122.132812 C 317.746094 124.140625 318.414062 126.175781 319.035156 128.238281 C 319.65625 130.300781 320.230469 132.390625 320.757812 134.5 C 321.28125 136.609375 321.761719 138.746094 322.191406 140.898438 C 322.617188 143.054688 323 145.230469 323.332031 147.425781 C 323.664062 149.617188 323.945312 151.828125 324.179688 154.058594 C 324.410156 156.285156 324.59375 158.527344 324.730469 160.785156 C 324.863281 163.039062 324.949219 165.308594 324.980469 167.585938 C 325.015625 169.863281 325 172.152344 324.9375 174.449219 C 324.871094 176.746094 324.757812 179.046875 324.59375 181.355469 C 324.429688 183.664062 324.214844 185.972656 323.953125 188.289062 C 323.6875 190.601562 323.378906 192.917969 323.015625 195.230469 C 322.652344 197.546875 322.242188 199.859375 321.785156 202.167969 C 321.328125 204.480469 320.820312 206.78125 320.265625 209.082031 C 319.710938 211.382812 319.105469 213.671875 318.457031 215.957031 C 317.804688 218.238281 317.109375 220.511719 316.367188 222.773438 C 315.621094 225.035156 314.832031 227.285156 313.996094 229.519531 C 313.164062 231.753906 312.28125 233.972656 311.359375 236.175781 C 310.433594 238.378906 309.464844 240.5625 308.453125 242.726562 C 307.441406 244.890625 306.386719 247.035156 305.289062 249.15625 C 304.191406 251.277344 303.054688 253.375 301.875 255.449219 C 300.695312 257.523438 299.476562 259.570312 298.214844 261.589844 C 296.957031 263.613281 295.660156 265.601562 294.324219 267.566406 C 292.988281 269.527344 291.617188 271.460938 290.207031 273.359375 C 288.800781 275.261719 287.355469 277.128906 285.878906 278.960938 C 284.398438 280.792969 282.886719 282.589844 281.34375 284.351562 C 279.800781 286.113281 278.222656 287.839844 276.617188 289.523438 C 275.007812 291.210938 273.371094 292.855469 271.707031 294.460938 C 270.039062 296.066406 268.347656 297.632812 266.628906 299.152344 C 264.90625 300.675781 263.160156 302.152344 261.390625 303.589844 C 259.617188 305.023438 257.824219 306.410156 256.007812 307.753906 C 254.191406 309.097656 252.351562 310.394531 250.492188 311.644531 C 248.632812 312.894531 246.757812 314.097656 244.859375 315.25 C 242.964844 316.402344 241.050781 317.503906 239.121094 318.554688 C 237.191406 319.609375 235.246094 320.609375 233.289062 321.558594 C 231.332031 322.507812 229.363281 323.40625 227.382812 324.253906 C 225.402344 325.097656 223.410156 325.890625 221.410156 326.628906 C 219.414062 327.367188 217.40625 328.050781 215.390625 328.679688 C 213.378906 329.3125 211.359375 329.886719 209.339844 330.40625 C 207.316406 330.925781 205.292969 331.390625 203.265625 331.796875 C 201.238281 332.207031 199.210938 332.558594 197.1875 332.855469 C 195.160156 333.152344 193.136719 333.390625 191.117188 333.574219 C 189.097656 333.757812 187.082031 333.886719 185.070312 333.953125 C 183.0625 334.023438 181.058594 334.039062 179.066406 333.992188 C 177.070312 333.949219 175.085938 333.847656 173.113281 333.691406 C 171.136719 333.535156 169.175781 333.320312 167.226562 333.050781 C 165.277344 332.777344 163.34375 332.453125 161.421875 332.070312 C 159.503906 331.6875 157.597656 331.246094 155.714844 330.753906 C 153.828125 330.257812 151.960938 329.707031 150.113281 329.101562 C 148.269531 328.5 146.441406 327.839844 144.640625 327.125 C 142.835938 326.410156 141.054688 325.644531 139.300781 324.824219 C 137.542969 324 135.8125 323.128906 134.109375 322.203125 C 132.40625 321.273438 130.726562 320.296875 129.078125 319.269531 C 127.429688 318.238281 125.8125 317.160156 124.222656 316.027344 C 122.636719 314.898438 121.078125 313.71875 119.554688 312.492188 C 118.027344 311.265625 116.539062 309.988281 115.078125 308.667969 C 113.621094 307.34375 112.199219 305.976562 110.8125 304.5625 C 109.425781 303.148438 108.078125 301.691406 106.765625 300.1875 C 105.453125 298.683594 104.179688 297.140625 102.941406 295.554688 C 101.707031 293.964844 100.511719 292.339844 99.359375 290.671875 C 98.203125 289.003906 97.089844 287.296875 96.019531 285.550781 C 94.949219 283.808594 93.917969 282.027344 92.933594 280.210938 C 91.945312 278.390625 91.003906 276.539062 90.105469 274.65625 C 89.210938 272.769531 88.355469 270.851562 87.550781 268.902344 C 86.742188 266.953125 85.980469 264.976562 85.265625 262.96875 C 84.550781 260.960938 83.878906 258.925781 83.257812 256.863281 C 82.636719 254.800781 82.0625 252.714844 81.539062 250.601562 C 81.011719 248.492188 80.535156 246.359375 80.105469 244.203125 C 79.675781 242.046875 79.296875 239.871094 78.964844 237.679688 C 78.632812 235.484375 78.347656 233.273438 78.117188 231.046875 C 77.882812 228.816406 77.699219 226.574219 77.566406 224.320312 C 77.429688 222.0625 77.347656 219.796875 77.3125 217.515625 C 77.277344 215.238281 77.292969 212.949219 77.359375 210.652344 C 77.421875 208.359375 77.535156 206.054688 77.699219 203.746094 C 77.863281 201.441406 78.078125 199.128906 78.34375 196.816406 C 78.605469 194.5 78.917969 192.1875 79.277344 189.871094 C 79.640625 187.554688 80.050781 185.242188 80.507812 182.933594 C 80.96875 180.625 81.476562 178.320312 82.03125 176.019531 C 82.585938 173.722656 83.1875 171.429688 83.835938 169.144531 C 84.488281 166.863281 85.183594 164.589844 85.929688 162.328125 C 86.671875 160.066406 87.460938 157.820312 88.296875 155.582031 C 89.132812 153.347656 90.011719 151.128906 90.9375 148.929688 C 91.859375 146.726562 92.828125 144.542969 93.84375 142.378906 C 94.855469 140.210938 95.910156 138.070312 97.007812 135.949219 C 98.101562 133.824219 99.242188 131.726562 100.421875 129.652344 C 101.601562 127.582031 102.820312 125.53125 104.078125 123.511719 C 105.335938 121.492188 106.632812 119.5 107.96875 117.535156 C 109.304688 115.574219 110.675781 113.640625 112.085938 111.742188 C 113.492188 109.839844 114.9375 107.972656 116.414062 106.140625 C 117.894531 104.308594 119.40625 102.511719 120.949219 100.75 C 122.496094 98.988281 124.070312 97.265625 125.679688 95.578125 C 127.285156 93.894531 128.921875 92.246094 130.585938 90.640625 C 132.253906 89.035156 133.945312 87.472656 135.667969 85.949219 C 137.386719 84.425781 139.132812 82.949219 140.90625 81.515625 C 142.675781 80.078125 144.46875 78.691406 146.285156 77.347656 C 148.105469 76.003906 149.941406 74.707031 151.800781 73.457031 C 153.660156 72.207031 155.539062 71.007812 157.433594 69.855469 C 159.332031 68.703125 161.246094 67.597656 163.171875 66.546875 C 165.101562 65.496094 167.046875 64.492188 169.003906 63.542969 C 170.960938 62.59375 172.929688 61.695312 174.910156 60.851562 C 176.890625 60.003906 178.882812 59.210938 180.882812 58.472656 C 182.882812 57.734375 184.886719 57.050781 186.902344 56.421875 C 188.914062 55.792969 190.933594 55.214844 192.957031 54.695312 C 194.980469 54.175781 197.003906 53.710938 199.03125 53.304688 C 201.054688 52.894531 203.082031 52.542969 205.109375 52.246094 C 207.132812 51.949219 209.15625 51.710938 211.179688 51.527344 C 213.199219 51.34375 215.214844 51.21875 217.222656 51.148438 C 219.234375 51.078125 221.234375 51.066406 223.230469 51.109375 C 225.222656 51.152344 227.207031 51.253906 229.183594 51.410156 C 231.15625 51.570312 233.117188 51.78125 235.070312 52.054688 C 237.019531 52.324219 238.953125 52.648438 240.871094 53.035156 C 242.792969 53.417969 244.695312 53.855469 246.582031 54.351562 C 248.464844 54.84375 250.332031 55.394531 252.179688 56 C 254.027344 56.605469 255.851562 57.261719 257.65625 57.976562 C 259.457031 58.691406 261.238281 59.460938 262.996094 60.28125 Z M 262.996094 60.28125 " fill-opacity="1" fill-rule="nonzero"/><path fill="#ff6f61" d="M 241.429688 50.199219 C 243.183594 51.019531 244.914062 51.894531 246.617188 52.820312 C 248.324219 53.746094 250 54.722656 251.648438 55.753906 C 253.296875 56.78125 254.914062 57.863281 256.503906 58.992188 C 258.09375 60.121094 259.648438 61.300781 261.171875 62.527344 C 262.699219 63.753906 264.191406 65.03125 265.648438 66.351562 C 267.105469 67.675781 268.527344 69.042969 269.914062 70.457031 C 271.300781 71.871094 272.648438 73.332031 273.960938 74.832031 C 275.273438 76.335938 276.546875 77.878906 277.785156 79.46875 C 279.019531 81.054688 280.214844 82.679688 281.367188 84.347656 C 282.523438 86.015625 283.636719 87.722656 284.707031 89.46875 C 285.78125 91.210938 286.808594 92.992188 287.792969 94.8125 C 288.78125 96.628906 289.722656 98.480469 290.621094 100.363281 C 291.519531 102.25 292.371094 104.167969 293.179688 106.117188 C 293.984375 108.066406 294.746094 110.042969 295.460938 112.050781 C 296.179688 114.058594 296.847656 116.09375 297.46875 118.15625 C 298.089844 120.21875 298.664062 122.304688 299.1875 124.417969 C 299.714844 126.527344 300.191406 128.664062 300.621094 130.816406 C 301.050781 132.972656 301.433594 135.148438 301.765625 137.34375 C 302.09375 139.535156 302.378906 141.746094 302.609375 143.976562 C 302.84375 146.203125 303.027344 148.445312 303.160156 150.703125 C 303.296875 152.957031 303.378906 155.226562 303.414062 157.503906 C 303.449219 159.78125 303.433594 162.070312 303.371094 164.367188 C 303.304688 166.664062 303.191406 168.964844 303.027344 171.273438 C 302.863281 173.582031 302.648438 175.890625 302.386719 178.207031 C 302.121094 180.519531 301.808594 182.835938 301.449219 185.148438 C 301.085938 187.464844 300.675781 189.777344 300.21875 192.085938 C 299.757812 194.394531 299.253906 196.699219 298.695312 199 C 298.140625 201.300781 297.539062 203.589844 296.890625 205.875 C 296.238281 208.15625 295.542969 210.429688 294.796875 212.691406 C 294.054688 214.953125 293.265625 217.203125 292.429688 219.4375 C 291.59375 221.671875 290.714844 223.890625 289.789062 226.09375 C 288.867188 228.292969 287.898438 230.476562 286.886719 232.644531 C 285.875 234.808594 284.820312 236.949219 283.722656 239.074219 C 282.625 241.195312 281.484375 243.292969 280.304688 245.367188 C 279.125 247.441406 277.90625 249.488281 276.648438 251.507812 C 275.390625 253.527344 274.09375 255.519531 272.757812 257.484375 C 271.421875 259.445312 270.050781 261.378906 268.640625 263.277344 C 267.234375 265.179688 265.789062 267.046875 264.3125 268.878906 C 262.832031 270.710938 261.320312 272.507812 259.777344 274.269531 C 258.230469 276.03125 256.65625 277.757812 255.050781 279.441406 C 253.441406 281.128906 251.804688 282.773438 250.140625 284.378906 C 248.472656 285.984375 246.78125 287.546875 245.058594 289.070312 C 243.339844 290.59375 241.59375 292.070312 239.824219 293.503906 C 238.050781 294.941406 236.257812 296.328125 234.441406 297.671875 C 232.621094 299.015625 230.785156 300.3125 228.925781 301.5625 C 227.066406 302.8125 225.1875 304.011719 223.292969 305.164062 C 221.394531 306.320312 219.484375 307.421875 217.554688 308.472656 C 215.625 309.527344 213.679688 310.527344 211.722656 311.476562 C 209.765625 312.425781 207.796875 313.324219 205.816406 314.171875 C 203.835938 315.015625 201.84375 315.808594 199.84375 316.546875 C 197.84375 317.285156 195.839844 317.96875 193.824219 318.597656 C 191.8125 319.230469 189.792969 319.804688 187.769531 320.324219 C 185.75 320.84375 183.722656 321.308594 181.699219 321.714844 C 179.671875 322.125 177.644531 322.476562 175.617188 322.773438 C 173.59375 323.070312 171.570312 323.308594 169.550781 323.492188 C 167.527344 323.675781 165.515625 323.800781 163.503906 323.871094 C 161.496094 323.941406 159.492188 323.957031 157.496094 323.910156 C 155.503906 323.867188 153.519531 323.765625 151.542969 323.609375 C 149.570312 323.453125 147.609375 323.238281 145.660156 322.96875 C 143.710938 322.695312 141.773438 322.371094 139.855469 321.988281 C 137.933594 321.605469 136.03125 321.164062 134.148438 320.671875 C 132.261719 320.175781 130.394531 319.625 128.546875 319.019531 C 126.699219 318.417969 124.875 317.757812 123.070312 317.042969 C 121.269531 316.328125 119.488281 315.5625 117.730469 314.738281 C 115.976562 313.917969 114.246094 313.046875 112.542969 312.117188 C 110.835938 311.191406 109.160156 310.214844 107.511719 309.183594 C 105.863281 308.15625 104.246094 307.078125 102.65625 305.945312 C 101.066406 304.816406 99.511719 303.636719 97.988281 302.410156 C 96.460938 301.183594 94.96875 299.90625 93.511719 298.585938 C 92.054688 297.261719 90.632812 295.894531 89.246094 294.480469 C 87.859375 293.066406 86.511719 291.605469 85.199219 290.105469 C 83.886719 288.601562 82.609375 287.058594 81.375 285.472656 C 80.140625 283.882812 78.945312 282.257812 77.792969 280.589844 C 76.636719 278.921875 75.523438 277.214844 74.453125 275.46875 C 73.378906 273.726562 72.351562 271.945312 71.367188 270.128906 C 70.378906 268.308594 69.4375 266.457031 68.539062 264.574219 C 67.640625 262.6875 66.789062 260.769531 65.980469 258.820312 C 65.175781 256.871094 64.414062 254.894531 63.699219 252.886719 C 62.980469 250.878906 62.3125 248.84375 61.691406 246.78125 C 61.070312 244.71875 60.496094 242.632812 59.972656 240.519531 C 59.445312 238.410156 58.96875 236.277344 58.539062 234.121094 C 58.109375 231.964844 57.726562 229.789062 57.394531 227.597656 C 57.066406 225.402344 56.78125 223.191406 56.550781 220.960938 C 56.316406 218.734375 56.132812 216.492188 56 214.238281 C 55.863281 211.980469 55.78125 209.714844 55.746094 207.433594 C 55.710938 205.15625 55.726562 202.867188 55.789062 200.570312 C 55.855469 198.273438 55.96875 195.972656 56.132812 193.664062 C 56.296875 191.355469 56.511719 189.046875 56.773438 186.730469 C 57.039062 184.417969 57.351562 182.101562 57.710938 179.789062 C 58.074219 177.472656 58.484375 175.160156 58.941406 172.851562 C 59.402344 170.542969 59.90625 168.238281 60.460938 165.9375 C 61.019531 163.636719 61.621094 161.347656 62.269531 159.0625 C 62.921875 156.78125 63.617188 154.507812 64.359375 152.246094 C 65.105469 149.984375 65.894531 147.734375 66.730469 145.5 C 67.566406 143.265625 68.445312 141.046875 69.371094 138.84375 C 70.292969 136.644531 71.261719 134.460938 72.273438 132.292969 C 73.285156 130.128906 74.339844 127.988281 75.4375 125.863281 C 76.535156 123.742188 77.675781 121.644531 78.855469 119.570312 C 80.03125 117.496094 81.253906 115.449219 82.511719 113.429688 C 83.769531 111.410156 85.066406 109.417969 86.402344 107.453125 C 87.738281 105.492188 89.109375 103.558594 90.519531 101.660156 C 91.925781 99.757812 93.371094 97.890625 94.847656 96.058594 C 96.328125 94.226562 97.839844 92.429688 99.382812 90.667969 C 100.929688 88.90625 102.503906 87.183594 104.109375 85.496094 C 105.71875 83.808594 107.355469 82.164062 109.019531 80.558594 C 110.6875 78.953125 112.378906 77.390625 114.101562 75.867188 C 115.820312 74.34375 117.566406 72.867188 119.335938 71.433594 C 121.109375 69.996094 122.902344 68.609375 124.71875 67.265625 C 126.535156 65.921875 128.375 64.625 130.234375 63.375 C 132.09375 62.125 133.972656 60.925781 135.867188 59.773438 C 137.765625 58.621094 139.675781 57.515625 141.605469 56.464844 C 143.535156 55.410156 145.480469 54.410156 147.4375 53.460938 C 149.394531 52.511719 151.363281 51.613281 153.34375 50.769531 C 155.324219 49.921875 157.316406 49.128906 159.316406 48.390625 C 161.316406 47.652344 163.320312 46.96875 165.335938 46.339844 C 167.347656 45.710938 169.367188 45.132812 171.390625 44.613281 C 173.410156 44.09375 175.4375 43.628906 177.460938 43.222656 C 179.488281 42.8125 181.515625 42.460938 183.542969 42.164062 C 185.566406 41.867188 187.589844 41.628906 189.609375 41.445312 C 191.632812 41.261719 193.644531 41.136719 195.65625 41.066406 C 197.664062 40.996094 199.667969 40.984375 201.664062 41.027344 C 203.65625 41.070312 205.640625 41.171875 207.617188 41.328125 C 209.589844 41.484375 211.550781 41.699219 213.5 41.96875 C 215.449219 42.242188 217.386719 42.566406 219.304688 42.949219 C 221.226562 43.332031 223.128906 43.773438 225.011719 44.265625 C 226.898438 44.761719 228.765625 45.3125 230.613281 45.917969 C 232.460938 46.523438 234.285156 47.179688 236.089844 47.894531 C 237.890625 48.609375 239.671875 49.375 241.429688 50.199219 Z M 241.429688 50.199219 " fill-opacity="1" fill-rule="nonzero"/><path fill="#212121" d="M 227.417969 80.164062 C 228.773438 80.796875 230.113281 81.472656 231.433594 82.191406 C 232.75 82.90625 234.046875 83.664062 235.320312 84.460938 C 236.597656 85.253906 237.847656 86.089844 239.078125 86.964844 C 240.304688 87.839844 241.511719 88.75 242.691406 89.699219 C 243.871094 90.648438 245.023438 91.636719 246.148438 92.660156 C 247.277344 93.679688 248.378906 94.738281 249.449219 95.832031 C 250.523438 96.925781 251.566406 98.054688 252.582031 99.21875 C 253.597656 100.378906 254.582031 101.574219 255.539062 102.800781 C 256.492188 104.027344 257.417969 105.289062 258.308594 106.578125 C 259.203125 107.867188 260.066406 109.1875 260.894531 110.535156 C 261.722656 111.886719 262.519531 113.265625 263.28125 114.667969 C 264.042969 116.074219 264.773438 117.507812 265.464844 118.964844 C 266.160156 120.421875 266.820312 121.90625 267.445312 123.414062 C 268.070312 124.921875 268.660156 126.453125 269.210938 128.003906 C 269.765625 129.558594 270.28125 131.132812 270.761719 132.726562 C 271.242188 134.320312 271.6875 135.9375 272.09375 137.570312 C 272.5 139.203125 272.871094 140.851562 273.203125 142.519531 C 273.535156 144.1875 273.828125 145.867188 274.085938 147.566406 C 274.34375 149.261719 274.5625 150.972656 274.742188 152.695312 C 274.921875 154.417969 275.0625 156.152344 275.167969 157.898438 C 275.269531 159.644531 275.335938 161.398438 275.363281 163.160156 C 275.390625 164.921875 275.378906 166.691406 275.328125 168.46875 C 275.277344 170.246094 275.1875 172.023438 275.0625 173.808594 C 274.933594 175.59375 274.769531 177.382812 274.566406 179.171875 C 274.363281 180.960938 274.121094 182.753906 273.84375 184.542969 C 273.5625 186.332031 273.246094 188.121094 272.890625 189.910156 C 272.535156 191.695312 272.144531 193.476562 271.714844 195.257812 C 271.285156 197.035156 270.820312 198.808594 270.316406 200.574219 C 269.8125 202.339844 269.273438 204.097656 268.699219 205.847656 C 268.125 207.59375 267.511719 209.335938 266.867188 211.0625 C 266.222656 212.792969 265.539062 214.507812 264.824219 216.210938 C 264.109375 217.914062 263.359375 219.601562 262.578125 221.277344 C 261.796875 222.953125 260.980469 224.609375 260.132812 226.25 C 259.28125 227.890625 258.402344 229.515625 257.488281 231.117188 C 256.578125 232.722656 255.632812 234.304688 254.660156 235.867188 C 253.6875 237.433594 252.683594 238.972656 251.652344 240.492188 C 250.617188 242.007812 249.558594 243.503906 248.46875 244.972656 C 247.378906 246.441406 246.261719 247.886719 245.117188 249.304688 C 243.976562 250.722656 242.804688 252.113281 241.609375 253.476562 C 240.417969 254.835938 239.195312 256.171875 237.953125 257.472656 C 236.710938 258.777344 235.445312 260.050781 234.15625 261.292969 C 232.867188 262.535156 231.558594 263.746094 230.226562 264.921875 C 228.898438 266.097656 227.546875 267.242188 226.175781 268.351562 C 224.808594 269.460938 223.417969 270.535156 222.015625 271.574219 C 220.609375 272.613281 219.1875 273.617188 217.75 274.585938 C 216.308594 275.550781 214.859375 276.480469 213.390625 277.371094 C 211.925781 278.261719 210.445312 279.113281 208.953125 279.929688 C 207.460938 280.742188 205.957031 281.515625 204.441406 282.253906 C 202.929688 282.988281 201.40625 283.679688 199.875 284.335938 C 198.339844 284.988281 196.800781 285.601562 195.253906 286.171875 C 193.707031 286.742188 192.15625 287.273438 190.597656 287.761719 C 189.042969 288.246094 187.480469 288.691406 185.917969 289.09375 C 184.351562 289.496094 182.785156 289.855469 181.21875 290.171875 C 179.652344 290.488281 178.082031 290.761719 176.515625 290.988281 C 174.949219 291.21875 173.386719 291.402344 171.824219 291.546875 C 170.261719 291.6875 168.703125 291.785156 167.148438 291.839844 C 165.59375 291.894531 164.042969 291.902344 162.5 291.867188 C 160.957031 291.835938 159.421875 291.757812 157.894531 291.636719 C 156.371094 291.515625 154.851562 291.347656 153.34375 291.140625 C 151.835938 290.929688 150.339844 290.675781 148.855469 290.378906 C 147.371094 290.085938 145.898438 289.746094 144.4375 289.363281 C 142.980469 288.980469 141.539062 288.554688 140.109375 288.085938 C 138.679688 287.617188 137.269531 287.109375 135.875 286.554688 C 134.476562 286.003906 133.101562 285.410156 131.742188 284.773438 C 130.386719 284.140625 129.046875 283.464844 127.726562 282.746094 C 126.410156 282.03125 125.113281 281.273438 123.839844 280.480469 C 122.5625 279.683594 121.3125 278.847656 120.082031 277.972656 C 118.855469 277.101562 117.648438 276.1875 116.46875 275.238281 C 115.289062 274.289062 114.136719 273.300781 113.011719 272.28125 C 111.882812 271.257812 110.78125 270.199219 109.710938 269.105469 C 108.636719 268.011719 107.59375 266.882812 106.578125 265.71875 C 105.5625 264.558594 104.578125 263.363281 103.621094 262.136719 C 102.667969 260.910156 101.742188 259.648438 100.851562 258.359375 C 99.957031 257.070312 99.09375 255.75 98.265625 254.402344 C 97.4375 253.050781 96.640625 251.675781 95.878906 250.269531 C 95.117188 248.863281 94.386719 247.429688 93.695312 245.972656 C 93 244.515625 92.339844 243.03125 91.714844 241.523438 C 91.089844 240.015625 90.5 238.484375 89.949219 236.933594 C 89.394531 235.378906 88.878906 233.804688 88.398438 232.210938 C 87.917969 230.617188 87.472656 229 87.066406 227.367188 C 86.660156 225.734375 86.289062 224.085938 85.957031 222.417969 C 85.625 220.75 85.332031 219.070312 85.074219 217.371094 C 84.816406 215.675781 84.597656 213.964844 84.417969 212.242188 C 84.238281 210.519531 84.097656 208.785156 83.992188 207.039062 C 83.890625 205.292969 83.824219 203.539062 83.796875 201.777344 C 83.769531 200.015625 83.78125 198.246094 83.832031 196.46875 C 83.882812 194.695312 83.972656 192.914062 84.097656 191.128906 C 84.226562 189.34375 84.390625 187.554688 84.59375 185.765625 C 84.796875 183.976562 85.039062 182.183594 85.316406 180.394531 C 85.597656 178.605469 85.914062 176.816406 86.269531 175.03125 C 86.625 173.242188 87.015625 171.460938 87.445312 169.683594 C 87.875 167.902344 88.339844 166.132812 88.84375 164.363281 C 89.347656 162.597656 89.886719 160.839844 90.460938 159.09375 C 91.035156 157.34375 91.648438 155.605469 92.292969 153.875 C 92.9375 152.148438 93.621094 150.429688 94.335938 148.726562 C 95.050781 147.023438 95.800781 145.335938 96.582031 143.660156 C 97.363281 141.984375 98.179688 140.328125 99.027344 138.6875 C 99.878906 137.046875 100.757812 135.421875 101.671875 133.820312 C 102.582031 132.214844 103.527344 130.632812 104.5 129.070312 C 105.472656 127.507812 106.476562 125.964844 107.507812 124.445312 C 108.542969 122.929688 109.601562 121.433594 110.691406 119.964844 C 111.78125 118.496094 112.898438 117.050781 114.042969 115.632812 C 115.183594 114.214844 116.355469 112.824219 117.550781 111.464844 C 118.742188 110.101562 119.960938 108.765625 121.207031 107.464844 C 122.449219 106.160156 123.714844 104.886719 125.003906 103.644531 C 126.292969 102.402344 127.601562 101.191406 128.933594 100.015625 C 130.261719 98.839844 131.613281 97.695312 132.984375 96.585938 C 134.351562 95.476562 135.742188 94.402344 137.144531 93.363281 C 138.550781 92.324219 139.972656 91.320312 141.410156 90.355469 C 142.847656 89.386719 144.300781 88.457031 145.769531 87.566406 C 147.234375 86.675781 148.714844 85.824219 150.207031 85.007812 C 151.699219 84.195312 153.203125 83.421875 154.71875 82.6875 C 156.230469 81.949219 157.753906 81.257812 159.285156 80.601562 C 160.820312 79.949219 162.359375 79.335938 163.90625 78.765625 C 165.453125 78.195312 167.003906 77.664062 168.5625 77.175781 C 170.117188 76.691406 171.679688 76.246094 173.242188 75.84375 C 174.808594 75.441406 176.375 75.082031 177.941406 74.765625 C 179.507812 74.449219 181.074219 74.175781 182.644531 73.949219 C 184.210938 73.71875 185.773438 73.535156 187.335938 73.390625 C 188.898438 73.25 190.457031 73.152344 192.011719 73.097656 C 193.566406 73.042969 195.117188 73.035156 196.660156 73.070312 C 198.203125 73.101562 199.738281 73.179688 201.265625 73.300781 C 202.789062 73.425781 204.308594 73.589844 205.816406 73.800781 C 207.324219 74.007812 208.820312 74.261719 210.304688 74.558594 C 211.789062 74.851562 213.261719 75.191406 214.71875 75.574219 C 216.179688 75.957031 217.621094 76.382812 219.050781 76.851562 C 220.480469 77.320312 221.890625 77.828125 223.285156 78.382812 C 224.683594 78.933594 226.058594 79.527344 227.417969 80.164062 Z M 227.417969 80.164062 " fill-opacity="1" fill-rule="nonzero"/><path fill="#ff6f61" d="M 211.890625 113.367188 C 212.808594 113.792969 213.714844 114.25 214.605469 114.734375 C 215.492188 115.21875 216.371094 115.730469 217.230469 116.265625 C 218.09375 116.804688 218.9375 117.371094 219.769531 117.960938 C 220.597656 118.550781 221.410156 119.164062 222.207031 119.808594 C 223.003906 120.449219 223.785156 121.113281 224.546875 121.804688 C 225.308594 122.496094 226.050781 123.210938 226.773438 123.949219 C 227.5 124.6875 228.203125 125.449219 228.890625 126.234375 C 229.574219 127.019531 230.242188 127.828125 230.886719 128.65625 C 231.53125 129.484375 232.15625 130.335938 232.757812 131.207031 C 233.363281 132.078125 233.945312 132.96875 234.503906 133.882812 C 235.0625 134.792969 235.601562 135.722656 236.117188 136.671875 C 236.632812 137.621094 237.121094 138.589844 237.59375 139.574219 C 238.0625 140.558594 238.507812 141.5625 238.929688 142.578125 C 239.351562 143.597656 239.75 144.632812 240.121094 145.679688 C 240.496094 146.730469 240.84375 147.792969 241.167969 148.871094 C 241.496094 149.949219 241.792969 151.039062 242.070312 152.140625 C 242.34375 153.242188 242.59375 154.359375 242.816406 155.484375 C 243.042969 156.609375 243.242188 157.746094 243.414062 158.894531 C 243.585938 160.039062 243.734375 161.195312 243.855469 162.359375 C 243.980469 163.523438 244.074219 164.695312 244.144531 165.871094 C 244.214844 167.050781 244.257812 168.234375 244.277344 169.425781 C 244.292969 170.617188 244.285156 171.8125 244.253906 173.011719 C 244.21875 174.210938 244.160156 175.414062 244.074219 176.621094 C 243.988281 177.824219 243.875 179.03125 243.738281 180.242188 C 243.601562 181.449219 243.4375 182.660156 243.25 183.871094 C 243.0625 185.078125 242.847656 186.285156 242.605469 187.492188 C 242.367188 188.699219 242.101562 189.90625 241.8125 191.105469 C 241.523438 192.308594 241.207031 193.503906 240.867188 194.695312 C 240.527344 195.890625 240.164062 197.078125 239.777344 198.257812 C 239.386719 199.441406 238.976562 200.613281 238.539062 201.78125 C 238.101562 202.949219 237.640625 204.109375 237.160156 205.261719 C 236.675781 206.410156 236.171875 207.550781 235.640625 208.683594 C 235.113281 209.8125 234.5625 210.933594 233.988281 212.042969 C 233.414062 213.148438 232.820312 214.246094 232.203125 215.328125 C 231.589844 216.414062 230.949219 217.480469 230.292969 218.539062 C 229.636719 219.59375 228.957031 220.632812 228.261719 221.660156 C 227.5625 222.683594 226.847656 223.695312 226.109375 224.6875 C 225.375 225.679688 224.621094 226.65625 223.847656 227.613281 C 223.074219 228.570312 222.285156 229.511719 221.480469 230.429688 C 220.671875 231.351562 219.847656 232.25 219.007812 233.132812 C 218.167969 234.011719 217.3125 234.871094 216.445312 235.710938 C 215.574219 236.550781 214.6875 237.367188 213.789062 238.164062 C 212.890625 238.957031 211.980469 239.730469 211.054688 240.480469 C 210.128906 241.230469 209.191406 241.953125 208.242188 242.65625 C 207.292969 243.359375 206.332031 244.035156 205.359375 244.6875 C 204.390625 245.339844 203.410156 245.96875 202.417969 246.570312 C 201.425781 247.171875 200.425781 247.75 199.417969 248.300781 C 198.410156 248.847656 197.394531 249.371094 196.375 249.867188 C 195.351562 250.363281 194.320312 250.832031 193.285156 251.273438 C 192.253906 251.714844 191.210938 252.128906 190.167969 252.515625 C 189.121094 252.902344 188.074219 253.257812 187.023438 253.589844 C 185.96875 253.917969 184.917969 254.21875 183.859375 254.488281 C 182.804688 254.761719 181.746094 255.003906 180.6875 255.21875 C 179.628906 255.429688 178.570312 255.613281 177.511719 255.769531 C 176.453125 255.925781 175.394531 256.050781 174.339844 256.144531 C 173.285156 256.242188 172.230469 256.308594 171.179688 256.34375 C 170.132812 256.378906 169.085938 256.386719 168.042969 256.363281 C 167 256.339844 165.964844 256.289062 164.933594 256.207031 C 163.902344 256.125 162.875 256.011719 161.859375 255.871094 C 160.839844 255.730469 159.828125 255.558594 158.828125 255.359375 C 157.824219 255.160156 156.828125 254.929688 155.84375 254.671875 C 154.859375 254.414062 153.882812 254.125 152.917969 253.808594 C 151.953125 253.492188 151 253.148438 150.058594 252.777344 C 149.117188 252.402344 148.1875 252 147.269531 251.574219 C 146.351562 251.144531 145.445312 250.6875 144.554688 250.203125 C 143.667969 249.71875 142.789062 249.207031 141.929688 248.671875 C 141.066406 248.132812 140.222656 247.570312 139.390625 246.976562 C 138.5625 246.386719 137.75 245.773438 136.953125 245.128906 C 136.15625 244.488281 135.375 243.824219 134.613281 243.132812 C 133.851562 242.441406 133.109375 241.726562 132.386719 240.988281 C 131.660156 240.25 130.957031 239.488281 130.269531 238.703125 C 129.585938 237.917969 128.917969 237.109375 128.273438 236.28125 C 127.628906 235.453125 127.003906 234.601562 126.402344 233.730469 C 125.796875 232.859375 125.214844 231.96875 124.65625 231.054688 C 124.097656 230.144531 123.558594 229.214844 123.042969 228.265625 C 122.527344 227.316406 122.035156 226.347656 121.566406 225.363281 C 121.097656 224.378906 120.652344 223.375 120.230469 222.359375 C 119.808594 221.339844 119.410156 220.304688 119.039062 219.257812 C 118.664062 218.207031 118.316406 217.144531 117.992188 216.066406 C 117.664062 214.992188 117.367188 213.898438 117.089844 212.796875 C 116.816406 211.695312 116.566406 210.578125 116.34375 209.453125 C 116.117188 208.328125 115.917969 207.191406 115.746094 206.042969 C 115.574219 204.898438 115.425781 203.742188 115.304688 202.578125 C 115.179688 201.414062 115.085938 200.242188 115.015625 199.066406 C 114.945312 197.886719 114.902344 196.703125 114.882812 195.511719 C 114.863281 194.320312 114.871094 193.125 114.90625 191.925781 C 114.941406 190.726562 115 189.523438 115.085938 188.316406 C 115.171875 187.113281 115.285156 185.90625 115.421875 184.695312 C 115.558594 183.488281 115.722656 182.277344 115.910156 181.066406 C 116.097656 179.859375 116.3125 178.652344 116.554688 177.445312 C 116.792969 176.238281 117.058594 175.035156 117.347656 173.832031 C 117.636719 172.628906 117.953125 171.433594 118.292969 170.242188 C 118.632812 169.046875 118.996094 167.859375 119.382812 166.679688 C 119.773438 165.496094 120.183594 164.324219 120.621094 163.15625 C 121.058594 161.988281 121.519531 160.828125 122 159.679688 C 122.484375 158.527344 122.988281 157.386719 123.519531 156.253906 C 124.046875 155.125 124.597656 154.003906 125.171875 152.898438 C 125.746094 151.789062 126.339844 150.691406 126.957031 149.609375 C 127.570312 148.523438 128.210938 147.457031 128.867188 146.398438 C 129.523438 145.34375 130.203125 144.304688 130.898438 143.277344 C 131.597656 142.253906 132.3125 141.242188 133.050781 140.25 C 133.785156 139.257812 134.539062 138.28125 135.3125 137.324219 C 136.085938 136.367188 136.875 135.429688 137.679688 134.507812 C 138.488281 133.585938 139.3125 132.6875 140.152344 131.804688 C 140.992188 130.925781 141.847656 130.066406 142.714844 129.226562 C 143.585938 128.386719 144.472656 127.570312 145.371094 126.777344 C 146.269531 125.980469 147.179688 125.207031 148.105469 124.457031 C 149.03125 123.710938 149.96875 122.984375 150.917969 122.28125 C 151.867188 121.578125 152.828125 120.902344 153.800781 120.25 C 154.769531 119.597656 155.75 118.96875 156.742188 118.367188 C 157.734375 117.765625 158.734375 117.1875 159.742188 116.640625 C 160.75 116.089844 161.765625 115.566406 162.785156 115.070312 C 163.808594 114.574219 164.839844 114.105469 165.875 113.664062 C 166.90625 113.222656 167.949219 112.808594 168.992188 112.421875 C 170.039062 112.035156 171.085938 111.679688 172.136719 111.347656 C 173.1875 111.019531 174.242188 110.71875 175.300781 110.449219 C 176.355469 110.175781 177.414062 109.933594 178.472656 109.71875 C 179.53125 109.507812 180.589844 109.324219 181.648438 109.167969 C 182.707031 109.011719 183.765625 108.886719 184.820312 108.792969 C 185.875 108.695312 186.929688 108.628906 187.976562 108.59375 C 189.027344 108.558594 190.074219 108.550781 191.117188 108.574219 C 192.160156 108.597656 193.195312 108.648438 194.226562 108.730469 C 195.257812 108.8125 196.28125 108.925781 197.300781 109.066406 C 198.320312 109.207031 199.332031 109.378906 200.332031 109.578125 C 201.335938 109.777344 202.332031 110.007812 203.316406 110.265625 C 204.300781 110.523438 205.277344 110.8125 206.242188 111.128906 C 207.207031 111.445312 208.160156 111.789062 209.101562 112.164062 C 210.042969 112.535156 210.972656 112.9375 211.890625 113.367188 Z M 211.890625 113.367188 " fill-opacity="1" fill-rule="nonzero"/><path fill="#212121" d="M 194.097656 151.425781 C 194.921875 151.808594 195.71875 152.246094 196.492188 152.726562 C 197.269531 153.210938 198.011719 153.742188 198.730469 154.320312 C 199.445312 154.894531 200.128906 155.515625 200.78125 156.179688 C 201.433594 156.84375 202.046875 157.546875 202.628906 158.292969 C 203.207031 159.039062 203.75 159.820312 204.253906 160.640625 C 204.753906 161.460938 205.21875 162.3125 205.640625 163.199219 C 206.0625 164.082031 206.441406 165 206.777344 165.941406 C 207.113281 166.882812 207.402344 167.851562 207.648438 168.84375 C 207.898438 169.835938 208.097656 170.847656 208.253906 171.875 C 208.410156 172.90625 208.519531 173.953125 208.582031 175.011719 C 208.644531 176.070312 208.660156 177.140625 208.632812 178.21875 C 208.601562 179.296875 208.523438 180.378906 208.398438 181.46875 C 208.277344 182.554688 208.105469 183.640625 207.890625 184.726562 C 207.675781 185.808594 207.414062 186.886719 207.109375 187.960938 C 206.804688 189.035156 206.457031 190.09375 206.0625 191.144531 C 205.671875 192.195312 205.238281 193.226562 204.761719 194.242188 C 204.285156 195.261719 203.773438 196.253906 203.21875 197.230469 C 202.664062 198.203125 202.074219 199.152344 201.445312 200.074219 C 200.820312 200.996094 200.15625 201.886719 199.464844 202.75 C 198.769531 203.609375 198.042969 204.433594 197.289062 205.226562 C 196.535156 206.019531 195.753906 206.773438 194.945312 207.488281 C 194.136719 208.203125 193.308594 208.875 192.453125 209.507812 C 191.601562 210.136719 190.726562 210.722656 189.835938 211.265625 C 188.945312 211.804688 188.042969 212.300781 187.121094 212.746094 C 186.203125 213.191406 185.273438 213.589844 184.335938 213.9375 C 183.394531 214.28125 182.449219 214.578125 181.5 214.824219 C 180.550781 215.066406 179.601562 215.257812 178.648438 215.398438 C 177.699219 215.535156 176.75 215.625 175.804688 215.65625 C 174.863281 215.6875 173.925781 215.667969 173 215.59375 C 172.070312 215.519531 171.15625 215.394531 170.257812 215.214844 C 169.355469 215.035156 168.46875 214.800781 167.601562 214.519531 C 166.734375 214.234375 165.890625 213.898438 165.0625 213.511719 C 164.238281 213.128906 163.441406 212.691406 162.664062 212.210938 C 161.890625 211.726562 161.148438 211.195312 160.429688 210.621094 C 159.714844 210.042969 159.03125 209.421875 158.378906 208.757812 C 157.726562 208.09375 157.113281 207.390625 156.53125 206.644531 C 155.953125 205.898438 155.410156 205.117188 154.90625 204.296875 C 154.40625 203.476562 153.941406 202.625 153.519531 201.738281 C 153.097656 200.855469 152.71875 199.941406 152.382812 198.996094 C 152.046875 198.054688 151.757812 197.085938 151.507812 196.09375 C 151.261719 195.101562 151.0625 194.09375 150.90625 193.0625 C 150.75 192.03125 150.640625 190.984375 150.578125 189.925781 C 150.515625 188.867188 150.5 187.796875 150.527344 186.71875 C 150.558594 185.640625 150.636719 184.558594 150.761719 183.472656 C 150.882812 182.382812 151.054688 181.296875 151.269531 180.214844 C 151.484375 179.128906 151.746094 178.050781 152.050781 176.976562 C 152.355469 175.90625 152.703125 174.84375 153.097656 173.792969 C 153.488281 172.746094 153.921875 171.710938 154.398438 170.695312 C 154.875 169.675781 155.386719 168.683594 155.941406 167.707031 C 156.496094 166.734375 157.085938 165.785156 157.714844 164.863281 C 158.339844 163.941406 159 163.050781 159.695312 162.191406 C 160.390625 161.328125 161.113281 160.503906 161.871094 159.710938 C 162.625 158.917969 163.40625 158.164062 164.214844 157.449219 C 165.023438 156.734375 165.851562 156.0625 166.707031 155.429688 C 167.558594 154.800781 168.433594 154.214844 169.324219 153.671875 C 170.214844 153.132812 171.117188 152.636719 172.039062 152.191406 C 172.957031 151.746094 173.886719 151.347656 174.824219 151 C 175.765625 150.65625 176.710938 150.359375 177.660156 150.113281 C 178.609375 149.871094 179.558594 149.679688 180.511719 149.539062 C 181.460938 149.402344 182.410156 149.316406 183.355469 149.28125 C 184.296875 149.25 185.234375 149.269531 186.160156 149.34375 C 187.089844 149.417969 188.003906 149.542969 188.902344 149.722656 C 189.804688 149.902344 190.691406 150.136719 191.558594 150.421875 C 192.425781 150.703125 193.269531 151.039062 194.097656 151.425781 Z M 194.097656 151.425781 " fill-opacity="1" fill-rule="nonzero"/><path fill="#212121" d="M 97.949219 127.527344 C 97.949219 127.527344 76.453125 57.046875 54.625 46.273438 C 32.796875 35.5 39.882812 100.359375 39.882812 100.359375 Z M 97.949219 127.527344 " fill-opacity="1" fill-rule="nonzero"/><path fill="#212121" d="M 86.445312 149.246094 C 86.445312 149.246094 22.304688 168.179688 13.515625 151.457031 C 4.722656 134.730469 27.152344 127.527344 27.152344 127.527344 Z M 86.445312 149.246094 " fill-opacity="1" fill-rule="nonzero"/><path fill="#e15b4e" d="M 54.269531 108.757812 C 54.058594 108.757812 53.859375 108.71875 53.664062 108.644531 C 53.472656 108.570312 53.296875 108.460938 53.144531 108.320312 C 52.992188 108.179688 52.871094 108.015625 52.777344 107.828125 C 52.683594 107.644531 52.628906 107.445312 52.613281 107.238281 L 48.710938 63.429688 C 48.707031 63.21875 48.738281 63.011719 48.8125 62.8125 C 48.882812 62.613281 48.992188 62.433594 49.132812 62.273438 C 49.273438 62.113281 49.4375 61.988281 49.628906 61.890625 C 49.820312 61.796875 50.019531 61.738281 50.230469 61.71875 C 50.445312 61.703125 50.652344 61.722656 50.855469 61.78125 C 51.058594 61.84375 51.246094 61.941406 51.410156 62.070312 C 51.578125 62.203125 51.714844 62.359375 51.824219 62.546875 C 51.929688 62.730469 51.996094 62.925781 52.027344 63.136719 L 55.929688 106.945312 C 55.949219 107.164062 55.925781 107.378906 55.859375 107.589844 C 55.792969 107.800781 55.6875 107.992188 55.546875 108.160156 C 55.40625 108.328125 55.238281 108.464844 55.042969 108.566406 C 54.847656 108.667969 54.636719 108.730469 54.417969 108.75 Z M 54.269531 108.757812 " fill-opacity="1" fill-rule="nonzero"/><path fill="#e15b4e" d="M 67.023438 114.71875 C 66.8125 114.722656 66.609375 114.683594 66.414062 114.605469 C 66.21875 114.53125 66.042969 114.421875 65.886719 114.277344 C 65.734375 114.132812 65.609375 113.96875 65.519531 113.777344 C 65.429688 113.585938 65.375 113.386719 65.359375 113.179688 L 63.449219 86.414062 C 63.421875 86.1875 63.4375 85.964844 63.503906 85.746094 C 63.566406 85.527344 63.671875 85.328125 63.816406 85.152344 C 63.960938 84.976562 64.136719 84.835938 64.339844 84.730469 C 64.542969 84.625 64.757812 84.566406 64.984375 84.550781 C 65.210938 84.535156 65.433594 84.5625 65.648438 84.636719 C 65.867188 84.710938 66.058594 84.824219 66.226562 84.980469 C 66.394531 85.132812 66.527344 85.3125 66.621094 85.523438 C 66.71875 85.730469 66.765625 85.949219 66.773438 86.175781 L 68.652344 112.941406 C 68.667969 113.160156 68.640625 113.375 68.570312 113.582031 C 68.5 113.792969 68.394531 113.980469 68.25 114.148438 C 68.105469 114.3125 67.933594 114.445312 67.734375 114.546875 C 67.539062 114.644531 67.332031 114.703125 67.109375 114.71875 Z M 67.023438 114.71875 " fill-opacity="1" fill-rule="nonzero"/><path fill="#e15b4e" d="M 27.691406 147.730469 C 27.488281 147.730469 27.292969 147.699219 27.105469 147.628906 C 26.914062 147.558594 26.742188 147.457031 26.589844 147.324219 C 26.4375 147.195312 26.3125 147.039062 26.214844 146.859375 C 26.117188 146.683594 26.058594 146.492188 26.03125 146.292969 C 26.003906 146.09375 26.011719 145.894531 26.054688 145.695312 C 26.101562 145.5 26.179688 145.316406 26.292969 145.148438 C 26.40625 144.980469 26.542969 144.835938 26.707031 144.71875 C 26.871094 144.601562 27.050781 144.515625 27.246094 144.464844 L 53.824219 137.0625 C 54.035156 137.003906 54.25 136.984375 54.46875 137.011719 C 54.691406 137.035156 54.894531 137.101562 55.089844 137.207031 C 55.28125 137.316406 55.449219 137.453125 55.585938 137.628906 C 55.722656 137.800781 55.824219 137.992188 55.882812 138.207031 C 55.945312 138.417969 55.964844 138.632812 55.9375 138.851562 C 55.914062 139.074219 55.847656 139.277344 55.742188 139.472656 C 55.632812 139.664062 55.496094 139.832031 55.320312 139.96875 C 55.148438 140.105469 54.957031 140.207031 54.746094 140.269531 L 28.136719 147.675781 C 27.992188 147.710938 27.84375 147.730469 27.691406 147.730469 Z M 27.691406 147.730469 " fill-opacity="1" fill-rule="nonzero"/><path fill="#e15b4e" d="M 183.710938 179.234375 L 183.546875 179.335938 C 182.890625 179.710938 182.1875 179.933594 181.4375 180.007812 C 180.683594 180.085938 179.949219 180.003906 179.234375 179.769531 L 34.113281 132.035156 C 33.304688 131.769531 32.523438 131.441406 31.765625 131.050781 C 31.007812 130.660156 30.289062 130.214844 29.601562 129.714844 C 28.914062 129.210938 28.269531 128.660156 27.671875 128.054688 C 27.070312 127.453125 26.519531 126.804688 26.023438 126.117188 C 25.523438 125.425781 25.082031 124.703125 24.699219 123.941406 C 24.3125 123.183594 23.988281 122.398438 23.726562 121.589844 C 23.464844 120.78125 23.269531 119.953125 23.136719 119.113281 C 23.003906 118.273438 22.9375 117.429688 22.9375 116.578125 C 22.9375 114.820312 23.214844 113.113281 23.773438 111.449219 C 23.957031 110.898438 24.167969 110.363281 24.410156 109.835938 C 24.652344 109.3125 24.921875 108.800781 25.21875 108.300781 C 25.511719 107.804688 25.835938 107.324219 26.183594 106.863281 C 26.53125 106.402344 26.902344 105.957031 27.292969 105.535156 C 27.6875 105.113281 28.105469 104.710938 28.542969 104.332031 C 28.980469 103.953125 29.4375 103.597656 29.910156 103.269531 C 30.386719 102.9375 30.875 102.636719 31.382812 102.359375 C 31.890625 102.078125 32.414062 101.832031 32.945312 101.609375 C 33.480469 101.386719 34.023438 101.191406 34.578125 101.027344 C 35.132812 100.863281 35.695312 100.730469 36.265625 100.625 C 36.832031 100.523438 37.40625 100.449219 37.984375 100.40625 C 38.558594 100.363281 39.136719 100.351562 39.714844 100.371094 C 40.292969 100.386719 40.871094 100.4375 41.441406 100.515625 C 42.015625 100.597656 42.582031 100.707031 43.144531 100.847656 C 43.703125 100.988281 44.257812 101.160156 44.800781 101.359375 C 45.34375 101.558594 45.871094 101.785156 46.390625 102.042969 L 183.445312 169.828125 C 184.394531 170.292969 185.132812 170.980469 185.660156 171.890625 C 185.839844 172.195312 185.988281 172.515625 186.105469 172.847656 C 186.222656 173.183594 186.304688 173.523438 186.355469 173.875 C 186.402344 174.226562 186.417969 174.578125 186.394531 174.929688 C 186.375 175.285156 186.316406 175.628906 186.226562 175.972656 C 186.136719 176.3125 186.011719 176.644531 185.855469 176.960938 C 185.699219 177.277344 185.511719 177.578125 185.296875 177.855469 C 185.082031 178.136719 184.839844 178.394531 184.570312 178.625 C 184.304688 178.855469 184.019531 179.058594 183.710938 179.234375 Z M 183.710938 179.234375 " fill-opacity="1" fill-rule="nonzero"/></svg>