<svg xmlns="http://www.w3.org/2000/svg" xmlns:xlink="http://www.w3.org/1999/xlink" width="500" zoomAndPan="magnify" viewBox="0 0 375 374.999991" height="500" preserveAspectRatio="xMidYMid meet" version="1.0"><defs><clipPath id="dadb1024fd"><path d="M 0 46.875 L 375 46.875 L 375 328.125 L 0 328.125 Z M 0 46.875 " clip-rule="nonzero"/></clipPath><clipPath id="7602fdfa4d"><path d="M 170.515625 170.160156 L 178.484375 170.160156 L 178.484375 173.910156 L 170.515625 173.910156 Z M 170.515625 170.160156 " clip-rule="nonzero"/></clipPath></defs><g clip-path="url(#dadb1024fd)"><path fill="#ff6f61" d="M 367.183594 312.5 L 335.941406 312.5 L 335.941406 54.6875 C 335.941406 50.375 332.441406 46.878906 328.125 46.878906 L 281.25 46.878906 C 276.933594 46.878906 273.445312 50.375 273.445312 54.6875 L 273.445312 312.5 L 257.8125 312.5 L 257.8125 179.691406 C 257.8125 175.378906 254.3125 171.875 250.007812 171.875 L 203.132812 171.875 C 198.808594 171.875 195.304688 175.378906 195.304688 179.691406 L 195.304688 312.5 L 179.695312 312.5 L 179.695312 101.5625 C 179.695312 97.25 176.195312 93.753906 171.867188 93.753906 L 124.992188 93.753906 C 120.6875 93.753906 117.1875 97.25 117.1875 101.5625 L 117.1875 312.5 L 101.554688 312.5 L 101.554688 226.566406 C 101.554688 222.253906 98.0625 218.75 93.75 218.75 L 46.875 218.75 C 42.558594 218.75 39.070312 222.253906 39.070312 226.566406 L 39.070312 312.5 L 7.804688 312.5 C 3.5 312.5 0 316.003906 0 320.316406 C 0 324.632812 3.5 328.121094 7.804688 328.121094 L 367.183594 328.121094 C 371.5 328.121094 375 324.632812 375 320.316406 C 375 316.003906 371.5 312.5 367.183594 312.5 Z M 54.679688 312.5 L 54.679688 234.371094 L 85.945312 234.371094 L 85.945312 312.5 Z M 132.820312 312.5 L 132.820312 109.378906 L 164.0625 109.378906 L 164.0625 312.5 Z M 210.9375 312.5 L 210.9375 187.496094 L 242.179688 187.496094 L 242.179688 312.5 Z M 289.054688 312.5 L 289.054688 62.503906 L 320.308594 62.503906 L 320.308594 312.5 Z M 289.054688 312.5 " fill-opacity="1" fill-rule="nonzero"/></g><g clip-path="url(#7602fdfa4d)"><path fill="#ff6f61" d="M 170.515625 170.160156 L 178.484375 170.160156 L 178.484375 173.910156 L 170.515625 173.910156 Z M 170.515625 170.160156 " fill-opacity="1" fill-rule="nonzero"/></g></svg>