<svg xmlns="http://www.w3.org/2000/svg" xmlns:xlink="http://www.w3.org/1999/xlink" width="500" zoomAndPan="magnify" viewBox="0 0 375 374.999991" height="500" preserveAspectRatio="xMidYMid meet" version="1.0"><path fill="#ff6f61" d="M 264.5625 79.519531 C 204.914062 36.972656 122.070312 50.839844 79.527344 110.488281 C 36.980469 170.140625 50.847656 252.984375 110.496094 295.527344 C 170.144531 338.070312 252.988281 324.207031 295.535156 264.554688 C 338.078125 204.90625 324.210938 122.0625 264.5625 79.519531 " fill-opacity="1" fill-rule="nonzero"/><path fill="#e15b4e" d="M 83.214844 113.382812 C 42.941406 169.851562 54.304688 247.554688 107.898438 290.285156 C 65.003906 244.371094 58.871094 173.128906 96.765625 119.992188 C 127.847656 76.417969 180.089844 56.875 229.527344 65.378906 C 176.941406 48.078125 117.054688 65.933594 83.214844 113.382812 " fill-opacity="1" fill-rule="nonzero"/><path fill="#e15b4e" d="M 251.871094 269.773438 C 232.351562 291.1875 209.550781 307.453125 185.464844 318.332031 C 227.015625 319.332031 268.3125 300.375 294.265625 263.988281 C 323.5 223 325.480469 170.808594 303.820312 128.972656 C 306.996094 176.683594 289.550781 228.433594 251.871094 269.773438 " fill-opacity="1" fill-rule="nonzero"/><path fill="#e15b4e" d="M 99.730469 94.652344 L 102.417969 112.597656 C 102.417969 112.597656 143.878906 98.511719 186.941406 128.972656 L 199.363281 117.894531 L 153.28125 94.683594 L 99.730469 94.652344 " fill-opacity="1" fill-rule="nonzero"/><path fill="#e15b4e" d="M 178.597656 121.1875 C 178.597656 121.1875 147.222656 170.222656 133.585938 217.972656 L 187.621094 134.511719 L 199.363281 122.925781 L 187.902344 115.316406 L 178.597656 121.1875 " fill-opacity="1" fill-rule="nonzero"/><path fill="#212121" d="M 187.640625 60.210938 C 177.726562 60.210938 167.804688 61.371094 158.148438 63.65625 C 148.453125 65.953125 139.039062 69.382812 130.167969 73.847656 C 121.140625 78.390625 112.671875 84.015625 104.992188 90.5625 C 97.085938 97.304688 89.984375 105.054688 83.890625 113.605469 C 73.910156 127.597656 66.96875 143.125 63.261719 159.75 C 61.480469 167.742188 60.46875 175.957031 60.261719 184.167969 C 60.054688 192.300781 60.628906 200.5 61.976562 208.539062 C 63.320312 216.574219 65.445312 224.511719 68.289062 232.136719 C 71.160156 239.832031 74.789062 247.269531 79.078125 254.25 C 88 268.761719 99.617188 281.183594 113.609375 291.160156 C 124.582031 298.988281 136.597656 304.984375 149.328125 308.992188 C 161.640625 312.867188 174.457031 314.832031 187.417969 314.832031 C 187.421875 314.832031 187.425781 314.832031 187.429688 314.832031 C 197.339844 314.832031 207.257812 313.675781 216.910156 311.390625 C 226.605469 309.09375 236.019531 305.664062 244.890625 301.199219 C 253.917969 296.652344 262.386719 291.03125 270.066406 284.480469 C 277.972656 277.738281 285.074219 269.988281 291.167969 261.441406 C 301.152344 247.449219 308.089844 231.921875 311.796875 215.296875 C 313.582031 207.300781 314.589844 199.085938 314.796875 190.875 C 315.003906 182.742188 314.429688 174.542969 313.085938 166.507812 C 311.738281 158.472656 309.613281 150.53125 306.769531 142.90625 C 303.898438 135.210938 300.269531 127.773438 295.980469 120.796875 C 287.058594 106.285156 275.441406 93.863281 261.449219 83.882812 C 250.480469 76.058594 238.460938 70.058594 225.730469 66.054688 C 213.414062 62.175781 200.601562 60.210938 187.640625 60.210938 Z M 187.429688 325.554688 C 187.425781 325.554688 187.421875 325.554688 187.417969 325.554688 C 173.363281 325.554688 159.464844 323.421875 146.109375 319.21875 C 132.300781 314.875 119.273438 308.371094 107.382812 299.890625 C 92.214844 289.074219 79.617188 275.605469 69.941406 259.863281 C 65.292969 252.292969 61.355469 244.226562 58.242188 235.886719 C 55.160156 227.625 52.859375 219.019531 51.402344 210.308594 C 49.941406 201.597656 49.316406 192.710938 49.542969 183.898438 C 49.765625 174.992188 50.863281 166.085938 52.792969 157.417969 C 56.816406 139.382812 64.339844 122.542969 75.160156 107.378906 C 81.765625 98.117188 89.460938 89.714844 98.035156 82.402344 C 106.363281 75.300781 115.554688 69.199219 125.347656 64.269531 C 134.964844 59.425781 145.167969 55.710938 155.675781 53.222656 C 166.140625 50.746094 176.898438 49.488281 187.640625 49.488281 C 201.695312 49.488281 215.589844 51.621094 228.949219 55.824219 C 242.757812 60.167969 255.785156 66.671875 267.675781 75.152344 C 282.84375 85.972656 295.441406 99.441406 305.117188 115.183594 C 309.765625 122.75 313.703125 130.816406 316.816406 139.160156 C 319.898438 147.421875 322.199219 156.027344 323.660156 164.734375 C 325.117188 173.449219 325.742188 182.332031 325.519531 191.148438 C 325.292969 200.050781 324.199219 208.960938 322.261719 217.628906 C 318.242188 235.664062 310.71875 252.5 299.898438 267.667969 C 293.296875 276.929688 285.597656 285.328125 277.023438 292.644531 C 268.695312 299.746094 259.503906 305.847656 249.714844 310.773438 C 240.09375 315.621094 229.890625 319.335938 219.382812 321.824219 C 208.921875 324.300781 198.167969 325.554688 187.429688 325.554688 " fill-opacity="1" fill-rule="nonzero"/><path fill="#212121" d="M 302.710938 127.285156 L 302.5 115.632812 C 300.410156 115.667969 251.054688 116.859375 231.835938 143.941406 C 222.324219 157.347656 217.234375 170.683594 216.269531 184.71875 C 215.414062 197.167969 217.71875 208.519531 220.160156 220.539062 C 225.445312 246.574219 230.910156 273.492188 202.828125 315.398438 L 212.515625 321.890625 C 226.222656 301.433594 233.785156 282.175781 235.628906 263.023438 C 237.253906 246.140625 234.371094 231.949219 231.585938 218.21875 C 229.304688 206.996094 227.152344 196.394531 227.898438 185.519531 C 228.722656 173.519531 232.996094 162.453125 241.34375 150.6875 C 249.414062 139.316406 265.386719 133.5625 277.363281 130.742188 C 290.910156 127.546875 302.597656 127.289062 302.714844 127.285156 L 302.605469 121.457031 L 302.710938 127.285156 " fill-opacity="1" fill-rule="nonzero"/><path fill="#212121" d="M 263.367188 166.59375 C 248.023438 147.707031 228.324219 130.292969 204.808594 114.84375 C 202.90625 113.375 189.640625 103.414062 169.84375 95.496094 C 157.476562 90.550781 145.097656 87.425781 133.050781 86.214844 C 117.859375 84.6875 103.171875 86.207031 89.394531 90.734375 L 90.996094 102.398438 C 103.152344 98.40625 118.195312 96.464844 131.6875 97.792969 C 142.605469 98.871094 153.882812 101.699219 165.199219 106.195312 C 184.691406 113.9375 197.675781 124.066406 197.800781 124.164062 L 198 124.324219 L 198.214844 124.460938 C 220.640625 139.175781 239.402344 155.683594 253.980469 173.53125 C 265.597656 187.75 274.601562 202.851562 280.75 218.414062 C 286.214844 232.253906 288.363281 243.914062 289.207031 251.261719 C 290.117188 259.238281 289.730469 263.996094 289.726562 264.042969 L 295.535156 264.554688 L 289.726562 264.027344 L 301.339844 265.085938 C 301.417969 264.226562 303.121094 243.757812 291.882812 214.871094 C 285.351562 198.085938 275.757812 181.84375 263.367188 166.59375 " fill-opacity="1" fill-rule="nonzero"/><path fill="#212121" d="M 250.414062 66.800781 C 249.625 67.171875 230.765625 76.277344 202.898438 108.714844 C 186.773438 127.488281 170.816406 150.355469 155.46875 176.691406 C 136.359375 209.484375 118.125 247.800781 101.277344 290.578125 L 112.121094 294.851562 C 128.601562 253.015625 146.394531 215.542969 165.015625 183.464844 C 179.902344 157.824219 195.339844 135.558594 210.90625 117.292969 C 224.738281 101.058594 236.105469 91.058594 243.207031 85.523438 C 250.890625 79.539062 255.363281 77.355469 255.40625 77.335938 L 255.382812 77.347656 L 250.414062 66.800781 " fill-opacity="1" fill-rule="nonzero"/><path fill="#212121" d="M 178.46875 50.207031 L 172.421875 60.175781 C 172.421875 60.175781 172.363281 60.148438 172.269531 60.078125 C 172.472656 60.222656 174.253906 61.570312 174.496094 64.785156 C 174.800781 68.824219 172.832031 77.988281 156.226562 93.972656 C 142.824219 106.871094 124.40625 118.945312 106.59375 130.621094 C 91.320312 140.632812 76.894531 150.089844 66.277344 159.609375 C 60.3125 164.957031 56.03125 169.898438 53.183594 174.714844 C 49.710938 180.601562 49.191406 186.453125 49.980469 192.109375 L 59.492188 190.488281 C 57.460938 175.984375 86.277344 157.878906 112.984375 140.375 C 131.246094 128.402344 150.125 116.027344 164.3125 102.375 C 179.957031 87.320312 187.269531 74.128906 186.050781 63.175781 C 185.085938 54.457031 179.140625 50.617188 178.46875 50.207031 " fill-opacity="1" fill-rule="nonzero"/><path stroke-linecap="round" transform="matrix(1.264158, -0.817376, 0.817376, 1.264158, 2.282218, 267.259698)" fill="none" stroke-linejoin="miter" d="M 3.499059 3.50001 L 33.243476 3.499903 " stroke="#ffd700" stroke-width="7" stroke-opacity="1" stroke-miterlimit="4"/><path stroke-linecap="round" transform="matrix(1.264158, -0.817376, 0.817376, 1.264158, 6.760376, 294.574521)" fill="none" stroke-linejoin="miter" d="M 3.501186 3.499548 L 39.759346 3.499407 " stroke="#ffd700" stroke-width="7" stroke-opacity="1" stroke-miterlimit="4"/><path stroke-linecap="round" transform="matrix(1.264158, -0.817376, 0.817376, 1.264158, 29.2139, 309.591541)" fill="none" stroke-linejoin="miter" d="M 3.500058 3.500805 L 33.244475 3.500698 " stroke="#ffd700" stroke-width="7" stroke-opacity="1" stroke-miterlimit="4"/><path stroke-linecap="round" transform="matrix(1.131899, -0.992474, 0.992474, 1.131899, 285.606694, 69.984773)" fill="none" stroke-linejoin="miter" d="M 29.780515 10.675282 L 29.7786 7.087952 C 29.778606 6.135464 29.400699 5.224329 28.72767 4.551377 C 28.054641 3.878425 27.143553 3.500591 26.191065 3.500585 L 3.50053 3.500374 " stroke="#ffd700" stroke-width="7" stroke-opacity="1" stroke-miterlimit="4"/><path stroke-linecap="round" transform="matrix(1.131899, -0.992474, 0.992474, 1.131899, 307.07398, 51.161778)" fill="none" stroke-linejoin="miter" d="M 10.812667 28.349754 L 10.813773 7.157764 C 10.813658 5.138793 9.176202 3.499421 7.157231 3.499536 L 3.499846 3.498693 " stroke="#ffd700" stroke-width="7" stroke-opacity="1" stroke-miterlimit="4"/><path stroke-linecap="round" transform="matrix(0.019905, -1.505258, 1.505258, 0.019905, 314.345521, 118.76069)" fill="none" stroke-linejoin="miter" d="M 3.499637 3.500005 L 27.947799 3.501095 " stroke="#ffd700" stroke-width="7" stroke-opacity="1" stroke-miterlimit="4"/></svg>