<svg xmlns="http://www.w3.org/2000/svg" xmlns:xlink="http://www.w3.org/1999/xlink" width="500" zoomAndPan="magnify" viewBox="0 0 375 374.999991" height="500" preserveAspectRatio="xMidYMid meet" version="1.0"><defs><clipPath id="1c8834cf8f"><path d="M 141.769531 154.480469 L 149.738281 154.480469 L 149.738281 158.230469 L 141.769531 158.230469 Z M 141.769531 154.480469 " clip-rule="nonzero"/></clipPath></defs><path fill="#ff6f61" d="M 287.589844 138.574219 L 249.570312 6.03125 C 248.613281 2.683594 245.550781 0.382812 242.066406 0.382812 L 132.925781 0.382812 C 132.824219 0.382812 132.726562 0.390625 132.628906 0.394531 C 132.527344 0.402344 132.417969 0.402344 132.316406 0.40625 C 132.082031 0.429688 131.851562 0.453125 131.625 0.492188 C 131.578125 0.503906 131.53125 0.515625 131.492188 0.519531 C 131.292969 0.5625 131.09375 0.601562 130.898438 0.652344 C 130.875 0.664062 130.847656 0.664062 130.820312 0.675781 C 130.773438 0.6875 130.734375 0.703125 130.6875 0.714844 C 130.523438 0.765625 130.363281 0.824219 130.203125 0.882812 C 130.121094 0.910156 130.042969 0.9375 129.96875 0.972656 C 129.8125 1.035156 129.671875 1.097656 129.527344 1.171875 C 129.453125 1.207031 129.375 1.242188 129.304688 1.273438 C 129.105469 1.378906 128.917969 1.492188 128.734375 1.605469 C 128.644531 1.664062 128.5625 1.726562 128.476562 1.785156 C 128.371094 1.859375 128.265625 1.933594 128.164062 2.007812 C 128.078125 2.074219 127.992188 2.148438 127.90625 2.21875 C 127.816406 2.296875 127.71875 2.382812 127.625 2.464844 C 127.550781 2.539062 127.476562 2.605469 127.402344 2.679688 C 127.300781 2.785156 127.207031 2.886719 127.113281 2.996094 C 127.054688 3.058594 127 3.121094 126.941406 3.183594 C 126.804688 3.355469 126.667969 3.527344 126.542969 3.703125 C 126.535156 3.707031 126.53125 3.71875 126.523438 3.726562 C 126.386719 3.917969 126.265625 4.121094 126.148438 4.324219 C 126.117188 4.375 126.089844 4.433594 126.066406 4.484375 C 125.980469 4.640625 125.90625 4.789062 125.832031 4.949219 C 125.800781 5.023438 125.765625 5.101562 125.730469 5.179688 C 125.679688 5.320312 125.628906 5.449219 125.578125 5.585938 C 125.542969 5.683594 125.511719 5.777344 125.480469 5.871094 C 125.46875 5.929688 125.445312 5.976562 125.429688 6.03125 L 87.410156 138.574219 C 86.472656 141.820312 87.738281 145.300781 90.542969 147.1875 L 179.703125 207.234375 L 179.703125 211.324219 C 144.664062 215.21875 117.328125 245.003906 117.328125 281.058594 C 117.328125 285.046875 117.667969 288.953125 118.3125 292.753906 C 117.667969 296.570312 117.328125 300.460938 117.328125 304.449219 C 117.328125 343.140625 148.804688 374.617188 187.5 374.617188 C 226.191406 374.617188 257.667969 343.140625 257.667969 304.449219 C 257.667969 300.460938 257.324219 296.570312 256.683594 292.753906 C 257.324219 288.953125 257.667969 285.046875 257.667969 281.058594 C 257.667969 245.003906 230.328125 215.21875 195.292969 211.324219 L 195.292969 207.234375 L 284.449219 147.1875 C 287.257812 145.300781 288.527344 141.816406 287.589844 138.574219 Z M 174.28125 184.789062 L 150.28125 168.621094 L 159.824219 133.164062 Z M 192.097656 190.59375 L 143.207031 15.980469 L 181.59375 15.980469 L 224.664062 168.660156 Z M 132.835938 36.769531 L 151.59375 103.765625 L 136.609375 159.417969 L 103.957031 137.421875 Z M 187.5 359.015625 C 168.410156 359.015625 151.582031 349.171875 141.828125 334.277344 C 154.113281 344.832031 170.070312 351.226562 187.5 351.226562 C 204.929688 351.226562 220.882812 344.832031 233.171875 334.277344 C 223.417969 349.171875 206.582031 359.015625 187.5 359.015625 Z M 242.066406 281.058594 C 242.066406 311.152344 217.59375 335.625 187.5 335.625 C 157.40625 335.625 132.925781 311.152344 132.925781 281.058594 C 132.925781 250.964844 157.40625 226.492188 187.5 226.492188 C 217.59375 226.492188 242.066406 250.964844 242.066406 281.058594 Z M 238.277344 159.492188 L 197.800781 15.980469 L 236.199219 15.980469 L 271.042969 137.421875 Z M 238.277344 159.492188 " fill-opacity="1" fill-rule="nonzero"/><path fill="#ff6f61" d="M 164.523438 239.964844 C 153.660156 245.402344 140.71875 256.9375 140.71875 281.058594 C 140.71875 285.363281 144.210938 288.847656 148.515625 288.847656 C 152.820312 288.847656 156.316406 285.363281 156.316406 281.058594 C 156.316406 268.082031 161.140625 259.277344 171.078125 254.128906 C 179.015625 250.015625 187.335938 249.878906 187.527344 249.878906 C 191.820312 249.855469 195.292969 246.371094 195.292969 242.066406 C 195.292969 237.773438 191.804688 234.28125 187.5 234.28125 C 187.027344 234.277344 175.78125 234.347656 164.523438 239.964844 Z M 164.523438 239.964844 " fill-opacity="1" fill-rule="nonzero"/><g clip-path="url(#1c8834cf8f)"><path fill="#ff6f61" d="M 141.769531 154.480469 L 149.738281 154.480469 L 149.738281 158.230469 L 141.769531 158.230469 Z M 141.769531 154.480469 " fill-opacity="1" fill-rule="nonzero"/></g></svg>