<svg xmlns="http://www.w3.org/2000/svg" xmlns:xlink="http://www.w3.org/1999/xlink" width="500" zoomAndPan="magnify" viewBox="0 0 375 374.999991" height="500" preserveAspectRatio="xMidYMid meet" version="1.0"><path fill="#ff6f61" d="M 375 187.5 C 375 190.570312 374.925781 193.636719 374.773438 196.699219 C 374.625 199.765625 374.398438 202.824219 374.097656 205.878906 C 373.796875 208.933594 373.421875 211.976562 372.96875 215.011719 C 372.519531 218.046875 371.996094 221.070312 371.398438 224.078125 C 370.796875 227.089844 370.125 230.082031 369.378906 233.058594 C 368.636719 236.035156 367.816406 238.992188 366.925781 241.929688 C 366.035156 244.863281 365.074219 247.777344 364.039062 250.667969 C 363.003906 253.554688 361.902344 256.417969 360.726562 259.253906 C 359.554688 262.089844 358.308594 264.890625 356.996094 267.667969 C 355.6875 270.441406 354.308594 273.179688 352.859375 275.886719 C 351.414062 278.59375 349.902344 281.261719 348.324219 283.894531 C 346.746094 286.527344 345.105469 289.117188 343.402344 291.667969 C 341.695312 294.222656 339.929688 296.730469 338.101562 299.195312 C 336.273438 301.660156 334.386719 304.078125 332.441406 306.449219 C 330.492188 308.820312 328.488281 311.144531 326.429688 313.417969 C 324.367188 315.691406 322.253906 317.914062 320.082031 320.082031 C 317.914062 322.253906 315.691406 324.367188 313.417969 326.429688 C 311.144531 328.488281 308.820312 330.492188 306.449219 332.441406 C 304.078125 334.386719 301.660156 336.273438 299.195312 338.101562 C 296.730469 339.929688 294.222656 341.695312 291.667969 343.402344 C 289.117188 345.105469 286.527344 346.746094 283.894531 348.324219 C 281.261719 349.902344 278.59375 351.414062 275.886719 352.859375 C 273.179688 354.308594 270.441406 355.6875 267.667969 356.996094 C 264.890625 358.308594 262.089844 359.554688 259.253906 360.726562 C 256.417969 361.902344 253.554688 363.003906 250.667969 364.039062 C 247.777344 365.074219 244.863281 366.035156 241.929688 366.925781 C 238.992188 367.816406 236.035156 368.636719 233.058594 369.378906 C 230.082031 370.125 227.089844 370.796875 224.078125 371.398438 C 221.070312 371.996094 218.046875 372.519531 215.011719 372.96875 C 211.976562 373.421875 208.933594 373.796875 205.878906 374.097656 C 202.824219 374.398438 199.765625 374.625 196.699219 374.773438 C 193.636719 374.925781 190.570312 375 187.5 375 C 184.429688 375 181.363281 374.925781 178.300781 374.773438 C 175.234375 374.625 172.175781 374.398438 169.121094 374.097656 C 166.066406 373.796875 163.023438 373.421875 159.988281 372.96875 C 156.953125 372.519531 153.929688 371.996094 150.921875 371.398438 C 147.910156 370.796875 144.917969 370.125 141.941406 369.378906 C 138.964844 368.636719 136.007812 367.816406 133.070312 366.925781 C 130.136719 366.035156 127.222656 365.074219 124.332031 364.039062 C 121.445312 363.003906 118.582031 361.902344 115.746094 360.726562 C 112.910156 359.554688 110.105469 358.308594 107.332031 356.996094 C 104.558594 355.6875 101.820312 354.308594 99.113281 352.859375 C 96.40625 351.414062 93.738281 349.902344 91.105469 348.324219 C 88.472656 346.746094 85.882812 345.105469 83.332031 343.402344 C 80.777344 341.695312 78.269531 339.929688 75.804688 338.101562 C 73.339844 336.273438 70.921875 334.386719 68.550781 332.441406 C 66.179688 330.492188 63.855469 328.488281 61.582031 326.429688 C 59.308594 324.367188 57.085938 322.253906 54.917969 320.082031 C 52.746094 317.914062 50.632812 315.691406 48.570312 313.417969 C 46.511719 311.144531 44.507812 308.820312 42.558594 306.449219 C 40.613281 304.078125 38.726562 301.660156 36.898438 299.195312 C 35.070312 296.730469 33.304688 294.222656 31.597656 291.667969 C 29.894531 289.117188 28.253906 286.527344 26.675781 283.894531 C 25.097656 281.261719 23.585938 278.59375 22.140625 275.886719 C 20.691406 273.179688 19.3125 270.441406 18.003906 267.667969 C 16.691406 264.890625 15.445312 262.089844 14.273438 259.253906 C 13.097656 256.417969 11.996094 253.554688 10.960938 250.667969 C 9.925781 247.777344 8.964844 244.863281 8.074219 241.929688 C 7.183594 238.992188 6.363281 236.035156 5.621094 233.058594 C 4.875 230.082031 4.203125 227.089844 3.601562 224.078125 C 3.003906 221.070312 2.480469 218.046875 2.03125 215.011719 C 1.578125 211.976562 1.203125 208.933594 0.902344 205.878906 C 0.601562 202.824219 0.375 199.765625 0.226562 196.699219 C 0.0742188 193.636719 0 190.570312 0 187.5 C 0 184.429688 0.0742188 181.363281 0.226562 178.300781 C 0.375 175.234375 0.601562 172.175781 0.902344 169.121094 C 1.203125 166.066406 1.578125 163.023438 2.03125 159.988281 C 2.480469 156.953125 3.003906 153.929688 3.601562 150.921875 C 4.203125 147.910156 4.875 144.917969 5.621094 141.941406 C 6.363281 138.964844 7.183594 136.007812 8.074219 133.070312 C 8.964844 130.136719 9.925781 127.222656 10.960938 124.332031 C 11.996094 121.445312 13.097656 118.582031 14.273438 115.746094 C 15.445312 112.910156 16.691406 110.105469 18.003906 107.332031 C 19.3125 104.558594 20.691406 101.820312 22.140625 99.113281 C 23.585938 96.40625 25.097656 93.738281 26.675781 91.105469 C 28.253906 88.472656 29.894531 85.882812 31.597656 83.332031 C 33.304688 80.777344 35.070312 78.269531 36.898438 75.804688 C 38.726562 73.339844 40.613281 70.921875 42.558594 68.550781 C 44.507812 66.179688 46.511719 63.855469 48.570312 61.582031 C 50.632812 59.308594 52.746094 57.085938 54.917969 54.917969 C 57.085938 52.746094 59.308594 50.632812 61.582031 48.570312 C 63.855469 46.511719 66.179688 44.507812 68.550781 42.558594 C 70.921875 40.613281 73.339844 38.726562 75.804688 36.898438 C 78.269531 35.070312 80.777344 33.304688 83.332031 31.597656 C 85.882812 29.894531 88.472656 28.253906 91.105469 26.675781 C 93.738281 25.097656 96.40625 23.585938 99.113281 22.140625 C 101.820312 20.691406 104.558594 19.3125 107.332031 18.003906 C 110.105469 16.691406 112.910156 15.445312 115.746094 14.273438 C 118.582031 13.097656 121.445312 11.996094 124.332031 10.960938 C 127.222656 9.925781 130.136719 8.964844 133.070312 8.074219 C 136.007812 7.183594 138.964844 6.363281 141.941406 5.617188 C 144.917969 4.875 147.910156 4.203125 150.921875 3.601562 C 153.929688 3.003906 156.953125 2.480469 159.988281 2.03125 C 163.023438 1.578125 166.066406 1.203125 169.121094 0.902344 C 172.175781 0.601562 175.234375 0.375 178.300781 0.226562 C 181.363281 0.0742188 184.429688 0 187.5 0 C 190.570312 0 193.636719 0.0742188 196.699219 0.226562 C 199.765625 0.375 202.824219 0.601562 205.878906 0.902344 C 208.933594 1.203125 211.976562 1.578125 215.011719 2.03125 C 218.046875 2.480469 221.070312 3.003906 224.078125 3.601562 C 227.089844 4.203125 230.082031 4.875 233.058594 5.617188 C 236.035156 6.363281 238.992188 7.183594 241.929688 8.074219 C 244.863281 8.964844 247.777344 9.925781 250.667969 10.960938 C 253.554688 11.996094 256.417969 13.097656 259.253906 14.273438 C 262.089844 15.445312 264.890625 16.691406 267.667969 18.003906 C 270.441406 19.3125 273.179688 20.691406 275.886719 22.140625 C 278.59375 23.585938 281.261719 25.097656 283.894531 26.675781 C 286.527344 28.253906 289.117188 29.894531 291.667969 31.597656 C 294.222656 33.304688 296.730469 35.070312 299.195312 36.898438 C 301.660156 38.726562 304.078125 40.613281 306.449219 42.558594 C 308.820312 44.507812 311.144531 46.511719 313.417969 48.570312 C 315.691406 50.632812 317.914062 52.746094 320.082031 54.917969 C 322.253906 57.085938 324.367188 59.308594 326.429688 61.582031 C 328.488281 63.855469 330.492188 66.179688 332.441406 68.550781 C 334.386719 70.921875 336.273438 73.339844 338.101562 75.804688 C 339.929688 78.269531 341.695312 80.777344 343.402344 83.332031 C 345.105469 85.882812 346.746094 88.472656 348.324219 91.105469 C 349.902344 93.738281 351.414062 96.40625 352.859375 99.113281 C 354.308594 101.820312 355.6875 104.558594 356.996094 107.332031 C 358.308594 110.105469 359.554688 112.910156 360.726562 115.746094 C 361.902344 118.582031 363.003906 121.445312 364.039062 124.332031 C 365.074219 127.222656 366.035156 130.136719 366.925781 133.070312 C 367.816406 136.007812 368.636719 138.964844 369.378906 141.941406 C 370.125 144.917969 370.796875 147.910156 371.398438 150.921875 C 371.996094 153.929688 372.519531 156.953125 372.96875 159.988281 C 373.421875 163.023438 373.796875 166.066406 374.097656 169.121094 C 374.398438 172.175781 374.625 175.234375 374.773438 178.300781 C 374.925781 181.363281 375 184.429688 375 187.5 Z M 375 187.5 " fill-opacity="1" fill-rule="nonzero"/><path fill="#ffffff" d="M 247.003906 222.332031 C 244.242188 222.332031 241.511719 222.628906 238.816406 223.230469 C 236.121094 223.828125 233.527344 224.71875 231.027344 225.894531 C 228.527344 227.066406 226.1875 228.503906 224.003906 230.195312 C 221.824219 231.886719 219.855469 233.796875 218.09375 235.925781 L 136.738281 197.390625 C 137.195312 195.015625 137.425781 192.621094 137.429688 190.199219 C 137.429688 187.40625 137.117188 184.644531 136.496094 181.917969 L 218.777344 139.914062 C 219.257812 140.460938 219.75 140.988281 220.261719 141.503906 C 220.769531 142.019531 221.292969 142.519531 221.832031 143.007812 C 222.371094 143.492188 222.921875 143.960938 223.488281 144.414062 C 224.050781 144.867188 224.628906 145.304688 225.222656 145.722656 C 225.8125 146.144531 226.414062 146.546875 227.027344 146.929688 C 227.644531 147.316406 228.265625 147.679688 228.902344 148.03125 C 229.539062 148.378906 230.183594 148.707031 230.835938 149.019531 C 231.492188 149.332031 232.15625 149.621094 232.828125 149.894531 C 233.496094 150.167969 234.175781 150.421875 234.863281 150.65625 C 235.546875 150.886719 236.242188 151.101562 236.9375 151.292969 C 237.636719 151.488281 238.339844 151.660156 239.050781 151.8125 C 239.757812 151.964844 240.46875 152.097656 241.1875 152.210938 C 241.902344 152.320312 242.621094 152.410156 243.34375 152.480469 C 244.0625 152.550781 244.785156 152.597656 245.511719 152.625 C 246.234375 152.65625 246.957031 152.660156 247.683594 152.648438 C 248.40625 152.632812 249.132812 152.597656 249.855469 152.542969 C 250.574219 152.484375 251.296875 152.410156 252.015625 152.308594 C 252.730469 152.210938 253.445312 152.09375 254.15625 151.953125 C 254.871094 151.816406 255.574219 151.65625 256.277344 151.476562 C 256.980469 151.296875 257.675781 151.09375 258.367188 150.875 C 259.054688 150.652344 259.738281 150.414062 260.414062 150.152344 C 261.09375 149.890625 261.761719 149.613281 262.421875 149.3125 C 263.082031 149.015625 263.730469 148.699219 264.375 148.359375 C 265.015625 148.023438 265.644531 147.667969 266.265625 147.296875 C 266.886719 146.921875 267.5 146.53125 268.097656 146.121094 C 268.695312 145.714844 269.28125 145.289062 269.855469 144.847656 C 270.429688 144.402344 270.988281 143.945312 271.535156 143.46875 C 272.085938 142.996094 272.617188 142.503906 273.136719 142 C 273.65625 141.492188 274.160156 140.972656 274.648438 140.4375 C 275.136719 139.902344 275.609375 139.351562 276.066406 138.789062 C 276.523438 138.226562 276.960938 137.652344 277.386719 137.0625 C 277.808594 136.476562 278.214844 135.875 278.605469 135.265625 C 278.992188 134.652344 279.363281 134.03125 279.714844 133.398438 C 280.070312 132.765625 280.402344 132.121094 280.71875 131.46875 C 281.035156 130.816406 281.328125 130.15625 281.605469 129.488281 C 281.882812 128.816406 282.140625 128.140625 282.378906 127.457031 C 282.617188 126.769531 282.835938 126.082031 283.03125 125.382812 C 283.230469 124.6875 283.40625 123.984375 283.566406 123.277344 C 283.722656 122.570312 283.859375 121.855469 283.976562 121.140625 C 284.089844 120.425781 284.1875 119.707031 284.261719 118.988281 C 284.335938 118.265625 284.386719 117.542969 284.421875 116.820312 C 284.453125 116.097656 284.464844 115.371094 284.453125 114.648438 C 284.445312 113.921875 284.414062 113.199219 284.363281 112.476562 C 284.3125 111.753906 284.238281 111.03125 284.144531 110.316406 C 284.050781 109.597656 283.9375 108.878906 283.804688 108.167969 C 283.667969 107.457031 283.511719 106.75 283.335938 106.046875 C 283.160156 105.34375 282.964844 104.644531 282.75 103.953125 C 282.535156 103.261719 282.296875 102.578125 282.042969 101.898438 C 281.785156 101.222656 281.511719 100.550781 281.214844 99.890625 C 280.921875 99.226562 280.609375 98.574219 280.273438 97.929688 C 279.941406 97.285156 279.59375 96.652344 279.222656 96.03125 C 278.851562 95.40625 278.464844 94.792969 278.0625 94.191406 C 277.65625 93.589844 277.234375 93.003906 276.796875 92.425781 C 276.359375 91.847656 275.902344 91.285156 275.429688 90.734375 C 274.960938 90.183594 274.472656 89.648438 273.96875 89.125 C 273.46875 88.605469 272.949219 88.097656 272.417969 87.605469 C 271.886719 87.113281 271.339844 86.636719 270.78125 86.175781 C 270.222656 85.714844 269.648438 85.273438 269.0625 84.84375 C 268.476562 84.417969 267.878906 84.007812 267.273438 83.617188 C 266.664062 83.222656 266.042969 82.847656 265.410156 82.492188 C 264.78125 82.132812 264.140625 81.796875 263.488281 81.476562 C 262.839844 81.15625 262.179688 80.855469 261.511719 80.574219 C 260.84375 80.292969 260.167969 80.03125 259.488281 79.789062 C 258.804688 79.546875 258.113281 79.324219 257.417969 79.125 C 256.722656 78.921875 256.019531 78.738281 255.316406 78.578125 C 254.609375 78.414062 253.898438 78.273438 253.183594 78.152344 C 252.46875 78.035156 251.75 77.933594 251.03125 77.855469 C 250.3125 77.777344 249.589844 77.71875 248.863281 77.679688 C 248.140625 77.644531 247.417969 77.628906 246.691406 77.632812 C 245.96875 77.636719 245.242188 77.664062 244.519531 77.710938 C 243.796875 77.757812 243.078125 77.824219 242.355469 77.914062 C 241.636719 78.003906 240.921875 78.113281 240.210938 78.242188 C 239.496094 78.371094 238.789062 78.523438 238.082031 78.695312 C 237.378906 78.863281 236.679688 79.054688 235.988281 79.269531 C 235.292969 79.480469 234.609375 79.710938 233.929688 79.960938 C 233.25 80.214844 232.578125 80.484375 231.914062 80.777344 C 231.25 81.066406 230.59375 81.375 229.949219 81.703125 C 229.300781 82.03125 228.667969 82.378906 228.039062 82.742188 C 227.414062 83.109375 226.800781 83.492188 226.195312 83.894531 C 225.59375 84.292969 225 84.710938 224.421875 85.148438 C 223.84375 85.582031 223.277344 86.035156 222.722656 86.5 C 222.167969 86.96875 221.628906 87.453125 221.105469 87.953125 C 220.578125 88.453125 220.070312 88.964844 219.574219 89.496094 C 219.078125 90.023438 218.597656 90.566406 218.132812 91.121094 C 217.671875 91.679688 217.222656 92.25 216.792969 92.832031 C 216.359375 93.414062 215.945312 94.007812 215.550781 94.613281 C 215.152344 95.222656 214.773438 95.839844 214.414062 96.46875 C 214.054688 97.097656 213.710938 97.734375 213.386719 98.382812 C 213.0625 99.03125 212.757812 99.6875 212.472656 100.355469 C 212.1875 101.019531 211.921875 101.695312 211.675781 102.375 C 211.429688 103.054688 211.203125 103.746094 210.996094 104.4375 C 210.789062 105.132812 210.601562 105.832031 210.433594 106.539062 C 210.269531 107.242188 210.125 107.953125 209.996094 108.667969 C 209.871094 109.382812 209.769531 110.097656 209.683594 110.816406 C 209.601562 111.539062 209.539062 112.257812 209.496094 112.984375 C 209.457031 113.707031 209.433594 114.429688 209.433594 115.15625 C 209.4375 117.945312 209.746094 120.703125 210.359375 123.425781 L 128.007812 165.441406 C 127.167969 164.484375 126.285156 163.578125 125.355469 162.714844 C 124.421875 161.847656 123.453125 161.035156 122.4375 160.269531 C 121.425781 159.503906 120.375 158.792969 119.289062 158.132812 C 118.203125 157.476562 117.085938 156.875 115.941406 156.328125 C 114.792969 155.78125 113.621094 155.296875 112.425781 154.871094 C 111.230469 154.445312 110.015625 154.082031 108.78125 153.777344 C 107.546875 153.472656 106.300781 153.234375 105.042969 153.058594 C 103.785156 152.882812 102.523438 152.769531 101.253906 152.722656 C 99.984375 152.675781 98.71875 152.691406 97.449219 152.769531 C 96.183594 152.851562 94.921875 152.996094 93.667969 153.207031 C 92.417969 153.414062 91.179688 153.6875 89.953125 154.019531 C 88.726562 154.355469 87.523438 154.75 86.339844 155.207031 C 85.152344 155.664062 83.996094 156.179688 82.863281 156.753906 C 81.730469 157.328125 80.628906 157.960938 79.5625 158.644531 C 78.492188 159.332031 77.460938 160.070312 76.46875 160.863281 C 75.472656 161.652344 74.523438 162.492188 73.617188 163.378906 C 72.707031 164.269531 71.847656 165.199219 71.03125 166.175781 C 70.21875 167.148438 69.457031 168.164062 68.746094 169.214844 C 68.035156 170.269531 67.378906 171.355469 66.78125 172.472656 C 66.179688 173.59375 65.636719 174.738281 65.152344 175.914062 C 64.667969 177.085938 64.246094 178.28125 63.882812 179.5 C 63.523438 180.71875 63.222656 181.949219 62.984375 183.195312 C 62.746094 184.445312 62.574219 185.699219 62.464844 186.964844 C 62.355469 188.230469 62.308594 189.5 62.328125 190.769531 C 62.347656 192.039062 62.429688 193.304688 62.578125 194.566406 C 62.726562 195.828125 62.9375 197.078125 63.210938 198.316406 C 63.484375 199.558594 63.824219 200.78125 64.222656 201.984375 C 64.621094 203.191406 65.078125 204.375 65.597656 205.53125 C 66.117188 206.691406 66.691406 207.820312 67.328125 208.921875 C 67.960938 210.023438 68.648438 211.089844 69.390625 212.117188 C 70.132812 213.148438 70.921875 214.140625 71.765625 215.089844 C 72.609375 216.039062 73.496094 216.945312 74.429688 217.804688 C 75.367188 218.664062 76.339844 219.476562 77.359375 220.238281 C 78.375 221 79.425781 221.707031 80.515625 222.359375 C 81.605469 223.015625 82.722656 223.609375 83.871094 224.152344 C 85.019531 224.691406 86.195312 225.171875 87.394531 225.59375 C 88.589844 226.015625 89.808594 226.375 91.042969 226.671875 C 92.277344 226.96875 93.523438 227.203125 94.78125 227.375 C 96.039062 227.546875 97.304688 227.652344 98.574219 227.695312 C 99.839844 227.738281 101.109375 227.71875 102.375 227.632812 C 103.644531 227.546875 104.902344 227.394531 106.15625 227.183594 C 107.40625 226.96875 108.644531 226.691406 109.867188 226.351562 C 111.089844 226.011719 112.296875 225.609375 113.476562 225.148438 C 114.660156 224.6875 115.816406 224.167969 116.949219 223.585938 C 118.078125 223.007812 119.175781 222.371094 120.242188 221.683594 C 121.308594 220.992188 122.335938 220.25 123.324219 219.453125 C 124.316406 218.65625 125.261719 217.8125 126.167969 216.921875 C 127.070312 216.03125 127.929688 215.097656 128.738281 214.117188 L 210.128906 252.65625 C 209.882812 253.910156 209.703125 255.175781 209.585938 256.449219 C 209.472656 257.722656 209.421875 259 209.433594 260.28125 C 209.449219 261.558594 209.527344 262.832031 209.671875 264.105469 C 209.820312 265.375 210.027344 266.636719 210.300781 267.886719 C 210.574219 269.136719 210.914062 270.367188 211.3125 271.582031 C 211.710938 272.800781 212.171875 273.992188 212.695312 275.160156 C 213.214844 276.328125 213.796875 277.464844 214.433594 278.574219 C 215.074219 279.683594 215.765625 280.757812 216.511719 281.792969 C 217.261719 282.832031 218.058594 283.828125 218.910156 284.785156 C 219.761719 285.742188 220.65625 286.652344 221.601562 287.515625 C 222.542969 288.382812 223.527344 289.195312 224.554688 289.957031 C 225.582031 290.722656 226.644531 291.433594 227.742188 292.085938 C 228.839844 292.742188 229.96875 293.339844 231.128906 293.878906 C 232.289062 294.417969 233.476562 294.898438 234.683594 295.316406 C 235.894531 295.734375 237.121094 296.089844 238.367188 296.382812 C 239.609375 296.675781 240.867188 296.902344 242.136719 297.070312 C 243.40625 297.234375 244.679688 297.332031 245.957031 297.367188 C 247.238281 297.398438 248.515625 297.367188 249.789062 297.273438 C 251.066406 297.175781 252.332031 297.015625 253.59375 296.789062 C 254.851562 296.5625 256.097656 296.269531 257.324219 295.917969 C 258.554688 295.5625 259.761719 295.148438 260.949219 294.671875 C 262.136719 294.195312 263.296875 293.65625 264.429688 293.0625 C 265.5625 292.464844 266.660156 291.8125 267.726562 291.105469 C 268.789062 290.398438 269.816406 289.636719 270.804688 288.824219 C 271.792969 288.011719 272.738281 287.148438 273.636719 286.238281 C 274.535156 285.332031 275.386719 284.378906 276.1875 283.378906 C 276.992188 282.382812 277.738281 281.347656 278.4375 280.273438 C 279.132812 279.203125 279.773438 278.097656 280.355469 276.957031 C 280.9375 275.816406 281.460938 274.652344 281.925781 273.460938 C 282.390625 272.269531 282.789062 271.054688 283.128906 269.820312 C 283.46875 268.589844 283.746094 267.339844 283.957031 266.078125 C 284.171875 264.816406 284.316406 263.546875 284.398438 262.273438 C 284.484375 260.996094 284.5 259.71875 284.449219 258.4375 C 284.402344 257.160156 284.289062 255.886719 284.109375 254.621094 C 283.933594 253.355469 283.691406 252.101562 283.382812 250.859375 C 283.074219 249.617188 282.707031 248.394531 282.273438 247.1875 C 281.84375 245.984375 281.351562 244.804688 280.796875 243.652344 C 280.246094 242.496094 279.636719 241.375 278.96875 240.285156 C 278.300781 239.191406 277.578125 238.136719 276.804688 237.121094 C 276.03125 236.101562 275.203125 235.125 274.328125 234.191406 C 273.453125 233.257812 272.535156 232.375 271.566406 231.535156 C 270.601562 230.695312 269.597656 229.90625 268.550781 229.171875 C 267.503906 228.433594 266.421875 227.753906 265.308594 227.128906 C 264.191406 226.503906 263.046875 225.933594 261.871094 225.425781 C 260.699219 224.917969 259.5 224.46875 258.28125 224.085938 C 257.0625 223.699219 255.828125 223.375 254.574219 223.113281 C 253.320312 222.855469 252.058594 222.660156 250.785156 222.53125 C 249.511719 222.398438 248.238281 222.332031 246.957031 222.332031 Z M 247.003906 222.332031 " fill-opacity="1" fill-rule="nonzero"/></svg>