<svg xmlns="http://www.w3.org/2000/svg" xmlns:xlink="http://www.w3.org/1999/xlink" width="500" zoomAndPan="magnify" viewBox="0 0 375 374.999991" height="500" preserveAspectRatio="xMidYMid meet" version="1.0"><defs><clipPath id="bb632bf8c5"><path d="M 0 164 L 126 164 L 126 367.21875 L 0 367.21875 Z M 0 164 " clip-rule="nonzero"/></clipPath><clipPath id="cff6c758d8"><path d="M 109 7.96875 L 375 7.96875 L 375 352 L 109 352 Z M 109 7.96875 " clip-rule="nonzero"/></clipPath><clipPath id="c7812a83db"><path d="M 103.875 175.386719 L 111.847656 175.386719 L 111.847656 179.136719 L 103.875 179.136719 Z M 103.875 175.386719 " clip-rule="nonzero"/></clipPath></defs><g clip-path="url(#bb632bf8c5)"><path fill="#ff6f61" d="M 117.25 367.046875 L 7.96875 367.046875 C 3.660156 367.046875 0.164062 363.550781 0.164062 359.242188 L 0.164062 171.902344 C 0.164062 167.59375 3.660156 164.097656 7.96875 164.097656 L 117.25 164.097656 C 121.558594 164.097656 125.054688 167.59375 125.054688 171.902344 L 125.054688 359.242188 C 125.054688 363.550781 121.558594 367.046875 117.25 367.046875 Z M 15.773438 351.433594 L 109.441406 351.433594 L 109.441406 179.710938 L 15.773438 179.710938 Z M 15.773438 351.433594 " fill-opacity="1" fill-rule="nonzero"/></g><g clip-path="url(#cff6c758d8)"><path fill="#ff6f61" d="M 308.488281 351.433594 L 164.082031 351.433594 C 149.640625 351.433594 123.414062 345.222656 111.722656 333.542969 C 108.679688 330.5 108.679688 325.550781 111.722656 322.507812 C 114.765625 319.464844 119.714844 319.464844 122.757812 322.507812 C 130.144531 329.890625 151.390625 335.839844 164.066406 335.839844 L 308.472656 335.839844 C 319.230469 335.839844 327.988281 327.082031 327.988281 316.324219 C 327.988281 310.953125 325.800781 305.929688 321.820312 302.164062 C 319.605469 300.089844 318.824219 296.90625 319.777344 294.03125 C 320.726562 291.144531 323.273438 289.097656 326.285156 288.753906 C 336.167969 287.601562 343.613281 279.3125 343.613281 269.476562 C 343.613281 264.105469 341.429688 259.078125 337.449219 255.316406 C 335.230469 253.238281 334.449219 250.054688 335.402344 247.183594 C 336.355469 244.292969 338.898438 242.25 341.914062 241.90625 C 351.777344 240.765625 359.226562 232.476562 359.226562 222.640625 C 359.226562 215.367188 355.136719 208.746094 348.546875 205.375 C 346.035156 204.078125 344.410156 201.550781 344.316406 198.738281 C 344.207031 195.929688 345.613281 193.261719 348.015625 191.792969 C 355.027344 187.453125 359.226562 180.023438 359.226562 171.902344 C 359.226562 158.992188 348.71875 148.488281 335.808594 148.488281 L 226.527344 148.488281 C 223.953125 148.488281 221.5625 147.222656 220.097656 145.113281 C 218.628906 143.007812 218.316406 140.308594 219.222656 137.917969 C 219.378906 137.496094 234.335938 97.890625 234.335938 70.429688 C 234.335938 44.875 211.667969 23.597656 203.113281 23.597656 C 196.382812 23.597656 190.746094 26.046875 187.5 27.84375 L 187.5 78.234375 C 187.5 79.359375 187.25 80.484375 186.78125 81.5 L 139.949219 182.972656 C 139.199219 184.582031 137.933594 185.890625 136.355469 186.6875 L 120.746094 194.492188 C 116.875 196.414062 112.207031 194.851562 110.269531 190.996094 C 108.335938 187.140625 109.910156 182.457031 113.765625 180.523438 L 126.925781 173.949219 L 171.886719 76.519531 L 171.886719 23.597656 C 171.886719 21.222656 172.964844 18.992188 174.824219 17.492188 C 175.308594 17.101562 186.890625 7.984375 203.113281 7.984375 C 221.171875 7.984375 249.945312 36.570312 249.945312 70.429688 C 249.945312 91.785156 242.296875 118.371094 237.535156 132.875 L 335.808594 132.875 C 357.320312 132.875 374.835938 150.390625 374.835938 171.902344 C 374.835938 181.753906 371.167969 190.996094 364.691406 198.054688 C 371.105469 204.5 374.835938 213.257812 374.835938 222.640625 C 374.835938 236.175781 367.078125 248.058594 355.558594 253.863281 C 357.960938 258.65625 359.226562 263.949219 359.226562 269.476562 C 359.226562 283.011719 351.464844 294.890625 339.945312 300.699219 C 342.347656 305.492188 343.613281 310.785156 343.613281 316.308594 C 343.613281 335.667969 327.863281 351.433594 308.488281 351.433594 Z M 308.488281 351.433594 " fill-opacity="1" fill-rule="nonzero"/></g><g clip-path="url(#c7812a83db)"><path fill="#ff6f61" d="M 103.875 175.386719 L 111.84375 175.386719 L 111.84375 179.136719 L 103.875 179.136719 Z M 103.875 175.386719 " fill-opacity="1" fill-rule="nonzero"/></g></svg>