<svg xmlns="http://www.w3.org/2000/svg" xmlns:xlink="http://www.w3.org/1999/xlink" width="500" zoomAndPan="magnify" viewBox="0 0 375 374.999991" height="500" preserveAspectRatio="xMidYMid meet" version="1.0"><defs><clipPath id="d7f1b812e1"><path d="M 37.5 90 L 41.25 90 L 41.25 111.800781 L 37.5 111.800781 Z M 37.5 90 " clip-rule="nonzero"/></clipPath></defs><path fill="#212121" d="M 367.535156 263.742188 C 367.15625 263.433594 366.753906 263.15625 366.328125 262.914062 C 365.898438 262.671875 365.457031 262.464844 364.996094 262.300781 C 364.53125 262.136719 364.058594 262.011719 363.574219 261.925781 C 363.09375 261.84375 362.605469 261.800781 362.113281 261.800781 C 361.625 261.800781 361.136719 261.84375 360.652344 261.925781 C 360.171875 262.011719 359.699219 262.136719 359.234375 262.300781 C 358.773438 262.464844 358.328125 262.671875 357.902344 262.914062 C 357.476562 263.15625 357.074219 263.433594 356.695312 263.742188 C 350.398438 267.746094 343.84375 271.277344 337.035156 274.332031 C 330.230469 277.386719 323.238281 279.9375 316.0625 281.984375 C 308.886719 284.03125 301.601562 285.550781 294.203125 286.542969 C 286.808594 287.535156 279.382812 287.992188 271.917969 287.914062 C 268.03125 287.882812 264.144531 287.707031 260.269531 287.390625 C 256.390625 287.074219 252.53125 286.617188 248.6875 286.015625 C 244.84375 285.414062 241.027344 284.675781 237.238281 283.792969 C 233.449219 282.914062 229.695312 281.894531 225.984375 280.738281 C 222.269531 279.582031 218.601562 278.289062 214.980469 276.863281 C 211.363281 275.4375 207.800781 273.882812 204.292969 272.195312 C 200.789062 270.507812 197.351562 268.695312 193.980469 266.753906 C 190.605469 264.8125 187.308594 262.753906 184.089844 260.570312 C 180.871094 258.386719 177.734375 256.089844 174.679688 253.679688 C 171.628906 251.265625 168.671875 248.746094 165.804688 246.117188 C 162.9375 243.484375 160.171875 240.753906 157.503906 237.921875 C 154.839844 235.085938 152.28125 232.160156 149.828125 229.140625 C 147.378906 226.117188 145.039062 223.011719 142.816406 219.820312 C 140.59375 216.625 138.492188 213.355469 136.507812 210.011719 C 134.527344 206.664062 132.667969 203.246094 130.9375 199.765625 C 129.207031 196.28125 127.605469 192.738281 126.132812 189.136719 C 124.660156 185.535156 123.324219 181.886719 122.121094 178.1875 C 120.917969 174.488281 119.851562 170.75 118.921875 166.96875 C 117.992188 163.191406 117.203125 159.386719 116.554688 155.550781 C 115.90625 151.714844 115.398438 147.859375 115.03125 143.988281 C 114.664062 140.113281 114.441406 136.234375 114.359375 132.34375 C 114.28125 128.453125 114.339844 124.566406 114.546875 120.683594 C 114.75 116.796875 115.097656 112.925781 115.585938 109.066406 C 116.074219 105.207031 116.703125 101.371094 117.476562 97.558594 C 118.246094 93.746094 119.15625 89.964844 120.203125 86.21875 C 121.253906 82.472656 122.4375 78.769531 123.757812 75.109375 C 125.078125 71.449219 126.53125 67.84375 128.113281 64.292969 C 129.699219 60.738281 131.414062 57.25 133.253906 53.824219 C 135.097656 50.394531 137.0625 47.042969 139.148438 43.757812 C 141.238281 40.476562 143.441406 37.273438 145.765625 34.15625 C 148.089844 31.035156 150.523438 28.003906 153.070312 25.0625 C 155.613281 22.121094 158.265625 19.277344 161.019531 16.527344 C 161.367188 16.191406 161.683594 15.824219 161.96875 15.433594 C 162.253906 15.042969 162.507812 14.632812 162.722656 14.199219 C 162.941406 13.765625 163.121094 13.320312 163.261719 12.855469 C 163.40625 12.394531 163.507812 11.921875 163.574219 11.441406 C 163.636719 10.960938 163.660156 10.480469 163.644531 9.996094 C 163.628906 9.511719 163.570312 9.03125 163.476562 8.558594 C 163.378906 8.082031 163.242188 7.621094 163.070312 7.167969 C 162.898438 6.714844 162.6875 6.28125 162.441406 5.863281 C 161.949219 5.027344 161.335938 4.289062 160.601562 3.652344 C 159.867188 3.015625 159.050781 2.511719 158.152344 2.144531 C 157.253906 1.773438 156.320312 1.558594 155.351562 1.496094 C 154.382812 1.433594 153.425781 1.527344 152.488281 1.777344 C 149.777344 2.558594 147.082031 3.398438 144.410156 4.300781 C 141.734375 5.203125 139.082031 6.164062 136.449219 7.183594 C 133.816406 8.203125 131.210938 9.28125 128.625 10.414062 C 126.042969 11.550781 123.484375 12.742188 120.953125 13.992188 C 118.421875 15.242188 115.921875 16.546875 113.449219 17.90625 C 110.976562 19.265625 108.535156 20.683594 106.125 22.152344 C 103.714844 23.621094 101.335938 25.140625 98.996094 26.714844 C 96.652344 28.292969 94.347656 29.917969 92.078125 31.59375 C 89.808594 33.273438 87.578125 35 85.382812 36.777344 C 83.191406 38.550781 81.039062 40.375 78.925781 42.25 C 76.8125 44.121094 74.746094 46.039062 72.71875 48.003906 C 70.691406 49.96875 68.710938 51.976562 66.773438 54.03125 C 64.835938 56.082031 62.945312 58.175781 61.101562 60.3125 C 59.257812 62.449219 57.460938 64.625 55.714844 66.84375 C 53.96875 69.058594 52.269531 71.3125 50.625 73.605469 C 48.976562 75.898438 47.382812 78.226562 45.835938 80.589844 C 44.292969 82.953125 42.804688 85.347656 41.367188 87.777344 C 39.929688 90.207031 38.546875 92.664062 37.222656 95.15625 C 35.894531 97.648438 34.621094 100.167969 33.40625 102.714844 C 32.191406 105.261719 31.035156 107.832031 29.933594 110.433594 C 28.832031 113.03125 27.789062 115.652344 26.804688 118.296875 C 25.820312 120.945312 24.894531 123.609375 24.03125 126.296875 C 23.164062 128.980469 22.359375 131.6875 21.613281 134.410156 C 20.867188 137.128906 20.183594 139.867188 19.558594 142.621094 C 18.9375 145.375 18.375 148.136719 17.875 150.914062 C 17.375 153.695312 16.933594 156.480469 16.558594 159.277344 C 16.183594 162.074219 15.867188 164.878906 15.617188 167.691406 C 15.363281 170.5 15.175781 173.316406 15.046875 176.136719 C 14.921875 178.957031 14.855469 181.777344 14.855469 184.597656 C 14.855469 187.421875 14.917969 190.242188 15.042969 193.0625 C 15.164062 195.882812 15.351562 198.695312 15.601562 201.507812 C 15.851562 204.320312 16.164062 207.125 16.539062 209.921875 C 16.910156 212.71875 17.347656 215.507812 17.847656 218.285156 C 18.34375 221.0625 18.90625 223.828125 19.527344 226.582031 C 20.148438 229.335938 20.828125 232.070312 21.574219 234.796875 C 22.316406 237.519531 23.121094 240.222656 23.984375 242.910156 C 24.847656 245.597656 25.769531 248.261719 26.75 250.910156 C 27.734375 253.554688 28.773438 256.179688 29.871094 258.777344 C 30.972656 261.378906 32.128906 263.953125 33.339844 266.5 C 34.554688 269.046875 35.824219 271.566406 37.148438 274.058594 C 38.472656 276.550781 39.855469 279.011719 41.289062 281.441406 C 42.722656 283.875 44.210938 286.269531 45.753906 288.636719 C 47.292969 291 48.886719 293.328125 50.53125 295.621094 C 52.175781 297.914062 53.871094 300.171875 55.617188 302.386719 C 57.363281 304.605469 59.15625 306.785156 61 308.921875 C 62.84375 311.058594 64.730469 313.15625 66.667969 315.210938 C 68.601562 317.265625 70.582031 319.273438 72.605469 321.242188 C 74.632812 323.207031 76.699219 325.128906 78.808594 327 C 80.921875 328.875 83.070312 330.703125 85.261719 332.480469 C 87.453125 334.257812 89.683594 335.988281 91.953125 337.667969 C 94.222656 339.34375 96.527344 340.972656 98.867188 342.550781 C 101.207031 344.125 103.582031 345.652344 105.992188 347.121094 C 108.398438 348.59375 110.839844 350.007812 113.3125 351.371094 C 115.785156 352.734375 118.285156 354.042969 120.8125 355.292969 C 123.34375 356.542969 125.902344 357.738281 128.484375 358.875 C 131.066406 360.011719 133.671875 361.09375 136.304688 362.113281 C 138.933594 363.136719 141.585938 364.097656 144.261719 365 C 146.933594 365.90625 149.628906 366.75 152.339844 367.53125 C 155.050781 368.316406 157.777344 369.039062 160.519531 369.703125 C 163.265625 370.363281 166.023438 370.964844 168.792969 371.503906 C 171.5625 372.046875 174.34375 372.523438 177.132812 372.941406 C 179.925781 373.355469 182.726562 373.710938 185.53125 374 C 188.339844 374.292969 191.152344 374.523438 193.96875 374.6875 C 196.789062 374.855469 199.605469 374.957031 202.429688 375 C 206.707031 375.003906 210.976562 374.863281 215.242188 374.578125 C 219.511719 374.289062 223.761719 373.859375 228 373.28125 C 232.238281 372.707031 236.449219 371.988281 240.636719 371.125 C 244.828125 370.261719 248.980469 369.257812 253.101562 368.113281 C 257.21875 366.964844 261.296875 365.679688 265.328125 364.257812 C 269.363281 362.835938 273.339844 361.277344 277.269531 359.582031 C 281.195312 357.886719 285.058594 356.0625 288.859375 354.105469 C 292.664062 352.144531 296.394531 350.0625 300.054688 347.851562 C 303.714844 345.636719 307.292969 343.304688 310.796875 340.847656 C 314.296875 338.394531 317.710938 335.820312 321.035156 333.132812 C 324.363281 330.445312 327.59375 327.648438 330.726562 324.742188 C 333.863281 321.832031 336.894531 318.820312 339.828125 315.707031 C 342.757812 312.59375 345.578125 309.382812 348.289062 306.074219 C 351 302.769531 353.597656 299.375 356.078125 295.890625 C 358.558594 292.40625 360.917969 288.84375 363.15625 285.199219 C 365.394531 281.554688 367.503906 277.839844 369.492188 274.050781 C 369.910156 273.203125 370.183594 272.308594 370.3125 271.371094 C 370.441406 270.433594 370.414062 269.5 370.238281 268.570312 C 370.0625 267.640625 369.742188 266.761719 369.28125 265.9375 C 368.820312 265.109375 368.238281 264.378906 367.535156 263.742188 Z M 202.429688 357.226562 C 200.035156 357.203125 197.640625 357.128906 195.25 357.003906 C 192.855469 356.878906 190.46875 356.703125 188.085938 356.480469 C 185.699219 356.257812 183.320312 355.984375 180.949219 355.660156 C 178.574219 355.335938 176.210938 354.964844 173.851562 354.542969 C 171.496094 354.121094 169.148438 353.652344 166.808594 353.132812 C 164.472656 352.613281 162.144531 352.042969 159.832031 351.429688 C 157.515625 350.8125 155.214844 350.148438 152.929688 349.4375 C 150.640625 348.726562 148.371094 347.964844 146.117188 347.160156 C 143.859375 346.351562 141.625 345.5 139.402344 344.601562 C 137.183594 343.699219 134.984375 342.753906 132.804688 341.765625 C 130.625 340.773438 128.464844 339.738281 126.328125 338.65625 C 124.191406 337.574219 122.078125 336.449219 119.988281 335.28125 C 117.894531 334.109375 115.832031 332.898438 113.792969 331.644531 C 111.75 330.390625 109.738281 329.09375 107.753906 327.753906 C 105.765625 326.414062 103.808594 325.035156 101.882812 323.613281 C 99.953125 322.195312 98.054688 320.734375 96.1875 319.234375 C 94.320312 317.734375 92.484375 316.199219 90.679688 314.621094 C 88.878906 313.046875 87.109375 311.433594 85.371094 309.785156 C 83.636719 308.132812 81.933594 306.449219 80.265625 304.730469 C 78.601562 303.007812 76.972656 301.253906 75.378906 299.464844 C 73.785156 297.679688 72.230469 295.859375 70.710938 294.003906 C 69.195312 292.152344 67.714844 290.269531 66.277344 288.355469 C 64.839844 286.4375 63.441406 284.496094 62.082031 282.523438 C 60.722656 280.550781 59.40625 278.550781 58.132812 276.523438 C 56.859375 274.496094 55.625 272.441406 54.4375 270.363281 C 53.246094 268.285156 52.101562 266.183594 51 264.054688 C 49.898438 261.929688 48.839844 259.78125 47.828125 257.609375 C 46.816406 255.441406 45.847656 253.25 44.929688 251.039062 C 44.007812 248.828125 43.132812 246.597656 42.304688 244.351562 C 41.476562 242.105469 40.695312 239.839844 39.960938 237.5625 C 39.226562 235.28125 38.539062 232.988281 37.902344 230.679688 C 37.261719 228.371094 36.671875 226.050781 36.128906 223.71875 C 35.589844 221.382812 35.09375 219.042969 34.652344 216.6875 C 34.207031 214.335938 33.8125 211.972656 33.464844 209.601562 C 33.117188 207.234375 32.824219 204.855469 32.574219 202.476562 C 32.328125 200.09375 32.128906 197.707031 31.984375 195.316406 C 31.835938 192.925781 31.738281 190.53125 31.6875 188.136719 C 31.640625 185.742188 31.640625 183.347656 31.695312 180.953125 C 31.746094 178.558594 31.847656 176.167969 31.996094 173.777344 C 32.148438 171.386719 32.347656 169 32.601562 166.621094 C 32.851562 164.238281 33.148438 161.863281 33.5 159.492188 C 33.847656 157.125 34.246094 154.761719 34.695312 152.410156 C 35.144531 150.058594 35.640625 147.714844 36.183594 145.382812 C 36.730469 143.050781 37.324219 140.730469 37.964844 138.421875 C 38.605469 136.117188 39.296875 133.824219 40.035156 131.542969 C 40.769531 129.265625 41.554688 127.003906 42.386719 124.757812 C 43.21875 122.511719 44.09375 120.285156 45.019531 118.074219 C 45.945312 115.863281 46.914062 113.675781 47.929688 111.503906 C 48.945312 109.335938 50.003906 107.191406 51.109375 105.066406 C 52.214844 102.941406 53.363281 100.839844 54.554688 98.761719 C 55.746094 96.683594 56.980469 94.632812 58.257812 92.605469 C 59.535156 90.582031 60.855469 88.582031 62.214844 86.613281 C 63.578125 84.640625 64.980469 82.699219 66.421875 80.789062 C 67.863281 78.875 69.34375 76.992188 70.863281 75.140625 C 72.382812 73.292969 73.941406 71.472656 75.535156 69.6875 C 77.132812 67.902344 78.765625 66.148438 80.433594 64.429688 C 82.101562 62.714844 83.804688 61.03125 85.542969 59.382812 C 87.28125 57.738281 89.054688 56.125 90.859375 54.554688 C 92.667969 52.980469 94.503906 51.445312 96.375 49.949219 C 98.242188 48.449219 100.144531 46.992188 102.074219 45.574219 C 104.003906 44.160156 105.964844 42.78125 107.949219 41.445312 C 109.9375 40.109375 111.953125 38.816406 113.996094 37.5625 C 116.035156 36.3125 118.101562 35.101562 120.195312 33.933594 C 122.285156 32.769531 124.402344 31.648438 126.539062 30.570312 C 124.328125 33.863281 122.230469 37.226562 120.246094 40.660156 C 118.261719 44.09375 116.398438 47.59375 114.648438 51.152344 C 112.898438 54.714844 111.273438 58.328125 109.769531 61.996094 C 108.261719 65.667969 106.882812 69.382812 105.628906 73.148438 C 104.371094 76.910156 103.246094 80.710938 102.246094 84.550781 C 101.25 88.386719 100.378906 92.257812 99.640625 96.152344 C 98.902344 100.050781 98.296875 103.96875 97.824219 107.90625 C 97.347656 111.84375 97.007812 115.792969 96.796875 119.753906 C 96.589844 123.714844 96.515625 127.679688 96.574219 131.644531 C 96.632812 135.613281 96.824219 139.570312 97.148438 143.523438 C 97.476562 147.476562 97.933594 151.414062 98.523438 155.339844 C 99.113281 159.261719 99.835938 163.160156 100.691406 167.03125 C 101.542969 170.90625 102.527344 174.746094 103.636719 178.554688 C 104.75 182.363281 105.988281 186.128906 107.355469 189.851562 C 108.71875 193.574219 110.207031 197.25 111.820312 200.871094 C 113.433594 204.496094 115.167969 208.0625 117.019531 211.570312 C 118.875 215.074219 120.84375 218.515625 122.929688 221.890625 C 125.011719 225.265625 127.210938 228.566406 129.515625 231.792969 C 131.824219 235.019531 134.238281 238.164062 136.757812 241.226562 C 139.273438 244.292969 141.894531 247.265625 144.613281 250.15625 C 147.332031 253.042969 150.148438 255.835938 153.054688 258.53125 C 155.960938 261.230469 158.957031 263.828125 162.039062 266.324219 C 165.125 268.820312 168.285156 271.210938 171.53125 273.492188 C 174.773438 275.777344 178.089844 277.949219 181.480469 280.007812 C 184.871094 282.066406 188.324219 284.011719 191.847656 285.835938 C 195.367188 287.664062 198.945312 289.371094 202.582031 290.957031 C 206.214844 292.542969 209.902344 294.003906 213.636719 295.34375 C 217.371094 296.679688 221.144531 297.890625 224.960938 298.972656 C 228.777344 300.058594 232.625 301.011719 236.503906 301.835938 C 240.382812 302.660156 244.285156 303.351562 248.214844 303.914062 C 252.140625 304.476562 256.082031 304.902344 260.035156 305.199219 C 263.992188 305.496094 267.953125 305.65625 271.917969 305.6875 C 282.871094 305.71875 293.722656 304.71875 304.484375 302.6875 C 315.246094 300.652344 325.714844 297.625 335.902344 293.601562 C 331.902344 298.574219 327.640625 303.304688 323.109375 307.796875 C 318.582031 312.289062 313.816406 316.515625 308.8125 320.472656 C 303.808594 324.429688 298.597656 328.09375 293.183594 331.464844 C 287.769531 334.839844 282.183594 337.898438 276.421875 340.640625 C 270.664062 343.386719 264.769531 345.800781 258.742188 347.882812 C 252.710938 349.96875 246.585938 351.707031 240.359375 353.101562 C 234.136719 354.496094 227.851562 355.539062 221.511719 356.230469 C 215.167969 356.917969 208.808594 357.253906 202.429688 357.226562 Z M 202.429688 357.226562 " fill-opacity="1" fill-rule="nonzero"/><g clip-path="url(#d7f1b812e1)"><path fill="#212121" d="M 37.5 90 L 41.25 90 L 41.25 111.796875 L 37.5 111.796875 Z M 37.5 90 " fill-opacity="1" fill-rule="nonzero"/></g></svg>