<svg xmlns="http://www.w3.org/2000/svg" xmlns:xlink="http://www.w3.org/1999/xlink" width="500" zoomAndPan="magnify" viewBox="0 0 375 374.999991" height="500" preserveAspectRatio="xMidYMid meet" version="1.0"><defs><g/></defs><path fill="#ff6f61" d="M 263.136719 57.132812 C 203.488281 14.589844 120.644531 28.457031 78.101562 88.105469 C 35.554688 147.753906 49.421875 230.597656 109.070312 273.144531 C 168.722656 315.6875 251.566406 301.820312 294.109375 242.171875 C 336.652344 182.523438 322.785156 99.679688 263.136719 57.132812 " fill-opacity="1" fill-rule="nonzero"/><path fill="#e15b4e" d="M 81.789062 90.996094 C 41.515625 147.46875 52.878906 225.171875 106.476562 267.902344 C 63.578125 221.988281 57.445312 150.746094 95.339844 97.609375 C 126.421875 54.03125 178.664062 34.492188 228.105469 42.996094 C 175.515625 25.691406 115.628906 43.550781 81.789062 90.996094 " fill-opacity="1" fill-rule="nonzero"/><path fill="#e15b4e" d="M 250.445312 247.390625 C 230.925781 268.804688 208.128906 285.066406 184.039062 295.945312 C 225.589844 296.949219 266.886719 277.992188 292.839844 241.605469 C 322.074219 200.617188 324.054688 148.425781 302.394531 106.589844 C 305.570312 154.300781 288.125 206.046875 250.445312 247.390625 " fill-opacity="1" fill-rule="nonzero"/><path fill="#e15b4e" d="M 98.308594 72.269531 L 100.992188 90.210938 C 100.992188 90.210938 142.453125 76.128906 185.515625 106.589844 L 197.9375 95.511719 L 151.855469 72.300781 L 98.308594 72.269531 " fill-opacity="1" fill-rule="nonzero"/><path fill="#e15b4e" d="M 177.171875 98.804688 C 177.171875 98.804688 145.796875 147.835938 132.160156 195.589844 L 186.199219 112.128906 L 197.9375 100.542969 L 186.476562 92.933594 L 177.171875 98.804688 " fill-opacity="1" fill-rule="nonzero"/><path fill="#212121" d="M 186.21875 37.828125 C 176.300781 37.828125 166.378906 38.988281 156.722656 41.273438 C 147.027344 43.570312 137.613281 46.996094 128.742188 51.464844 C 119.714844 56.007812 111.246094 61.632812 103.566406 68.179688 C 95.660156 74.921875 88.5625 82.671875 82.464844 91.21875 C 72.484375 105.214844 65.542969 120.738281 61.835938 137.367188 C 60.054688 145.359375 59.042969 153.574219 58.835938 161.785156 C 58.628906 169.917969 59.203125 178.117188 60.550781 186.15625 C 61.898438 194.191406 64.019531 202.128906 66.863281 209.753906 C 69.734375 217.449219 73.363281 224.886719 77.652344 231.863281 C 86.574219 246.378906 98.191406 258.796875 112.183594 268.777344 C 123.15625 276.601562 135.171875 282.601562 147.90625 286.609375 C 160.21875 290.484375 173.03125 292.449219 185.992188 292.449219 C 185.996094 292.449219 186 292.449219 186.003906 292.449219 C 195.914062 292.449219 205.832031 291.289062 215.488281 289.007812 C 225.179688 286.710938 234.59375 283.28125 243.464844 278.816406 C 252.492188 274.269531 260.960938 268.648438 268.640625 262.097656 C 276.550781 255.355469 283.648438 247.605469 289.746094 239.058594 C 299.726562 225.066406 306.667969 209.539062 310.375 192.910156 C 312.15625 184.917969 313.164062 176.703125 313.375 168.492188 C 313.582031 160.359375 313.003906 152.160156 311.660156 144.125 C 310.3125 136.085938 308.1875 128.144531 305.34375 120.523438 C 302.472656 112.828125 298.84375 105.390625 294.554688 98.414062 C 285.636719 83.898438 274.015625 71.480469 260.023438 61.5 C 249.054688 53.675781 237.035156 47.675781 224.304688 43.667969 C 211.992188 39.792969 199.175781 37.828125 186.21875 37.828125 Z M 186.003906 303.171875 C 186 303.171875 185.996094 303.171875 185.992188 303.171875 C 171.9375 303.171875 158.042969 301.039062 144.683594 296.835938 C 130.875 292.488281 117.847656 285.988281 105.960938 277.507812 C 90.789062 266.691406 78.191406 253.222656 68.519531 237.480469 C 63.867188 229.910156 59.933594 221.84375 56.816406 213.503906 C 53.734375 205.238281 51.433594 196.632812 49.976562 187.925781 C 48.519531 179.214844 47.894531 170.328125 48.117188 161.511719 C 48.339844 152.609375 49.4375 143.699219 51.371094 135.03125 C 55.390625 116.996094 62.917969 100.160156 73.734375 84.992188 C 80.339844 75.730469 88.035156 67.332031 96.609375 60.019531 C 104.9375 52.917969 114.128906 46.816406 123.921875 41.886719 C 133.539062 37.042969 143.742188 33.328125 154.25 30.839844 C 164.714844 28.359375 175.472656 27.105469 186.21875 27.105469 C 200.269531 27.105469 214.167969 29.238281 227.523438 33.441406 C 241.332031 37.785156 254.359375 44.289062 266.25 52.769531 C 281.417969 63.585938 294.015625 77.054688 303.691406 92.796875 C 308.34375 100.363281 312.277344 108.433594 315.390625 116.777344 C 318.472656 125.039062 320.777344 133.644531 322.234375 142.351562 C 323.691406 151.0625 324.316406 159.949219 324.09375 168.765625 C 323.867188 177.667969 322.773438 186.578125 320.839844 195.246094 C 316.816406 213.28125 309.292969 230.117188 298.476562 245.285156 C 291.871094 254.546875 284.171875 262.945312 275.597656 270.261719 C 267.269531 277.363281 258.082031 283.464844 248.289062 288.390625 C 238.667969 293.234375 228.464844 296.953125 217.957031 299.441406 C 207.496094 301.917969 196.746094 303.171875 186.003906 303.171875 " fill-opacity="1" fill-rule="nonzero"/><path fill="#212121" d="M 301.285156 104.902344 L 301.074219 93.246094 C 298.984375 93.285156 249.628906 94.472656 230.410156 121.558594 C 220.898438 134.964844 215.808594 148.300781 214.84375 162.335938 C 213.988281 174.785156 216.292969 186.136719 218.734375 198.15625 C 224.019531 224.1875 229.484375 251.109375 201.40625 293.015625 L 211.089844 299.503906 C 224.796875 279.046875 232.359375 259.792969 234.203125 240.640625 C 235.828125 223.753906 232.945312 209.5625 230.160156 195.835938 C 227.882812 184.613281 225.730469 174.007812 226.476562 163.136719 C 227.300781 151.136719 231.570312 140.070312 239.917969 128.304688 C 247.988281 116.933594 263.960938 111.179688 275.9375 108.359375 C 289.484375 105.164062 301.171875 104.90625 301.289062 104.902344 L 301.179688 99.074219 L 301.285156 104.902344 " fill-opacity="1" fill-rule="nonzero"/><path fill="#212121" d="M 261.945312 144.210938 C 246.601562 125.324219 226.898438 107.910156 203.386719 92.460938 C 201.480469 90.992188 188.214844 81.027344 168.417969 73.113281 C 156.050781 68.167969 143.671875 65.042969 131.628906 63.832031 C 116.433594 62.300781 101.746094 63.824219 87.96875 68.351562 L 89.570312 80.015625 C 101.726562 76.019531 116.769531 74.082031 130.261719 75.410156 C 141.183594 76.488281 152.457031 79.316406 163.773438 83.8125 C 183.265625 91.554688 196.25 101.683594 196.375 101.78125 L 196.574219 101.9375 L 196.792969 102.078125 C 219.214844 116.789062 237.976562 133.296875 252.558594 151.148438 C 264.171875 165.367188 273.179688 180.46875 279.324219 196.03125 C 284.789062 209.871094 286.9375 221.53125 287.78125 228.878906 C 288.695312 236.855469 288.304688 241.613281 288.300781 241.660156 L 294.109375 242.171875 L 288.304688 241.644531 L 299.914062 242.699219 C 299.992188 241.84375 301.695312 221.371094 290.457031 192.488281 C 283.925781 175.703125 274.335938 159.460938 261.945312 144.210938 " fill-opacity="1" fill-rule="nonzero"/><path fill="#212121" d="M 248.988281 44.414062 C 248.199219 44.789062 229.339844 53.894531 201.472656 86.332031 C 185.351562 105.101562 169.390625 127.972656 154.042969 154.308594 C 134.933594 187.097656 116.699219 225.417969 99.851562 268.195312 L 110.699219 272.46875 C 127.175781 230.632812 144.96875 193.160156 163.589844 161.082031 C 178.476562 135.441406 193.917969 113.175781 209.480469 94.90625 C 223.3125 78.675781 234.683594 68.671875 241.78125 63.140625 C 249.464844 57.15625 253.9375 54.972656 253.980469 54.953125 L 253.957031 54.960938 L 248.988281 44.414062 " fill-opacity="1" fill-rule="nonzero"/><path fill="#212121" d="M 177.042969 27.824219 L 170.996094 37.792969 C 170.996094 37.792969 170.9375 37.765625 170.84375 37.695312 C 171.046875 37.835938 172.828125 39.1875 173.070312 42.402344 C 173.375 46.441406 171.410156 55.605469 154.800781 71.589844 C 141.398438 84.488281 122.980469 96.5625 105.167969 108.238281 C 89.894531 118.25 75.472656 127.707031 64.851562 137.222656 C 58.886719 142.574219 54.605469 147.515625 51.761719 152.332031 C 48.289062 158.21875 47.765625 164.070312 48.558594 169.722656 L 58.066406 168.105469 C 56.035156 153.601562 84.851562 135.496094 111.5625 117.988281 C 129.820312 106.019531 148.699219 93.640625 162.886719 79.988281 C 178.53125 64.933594 185.84375 51.746094 184.628906 40.792969 C 183.660156 32.074219 177.71875 28.234375 177.042969 27.824219 " fill-opacity="1" fill-rule="nonzero"/><path stroke-linecap="round" transform="matrix(1.264158, -0.817376, 0.817376, 1.264158, 0.85727, 244.876155)" fill="none" stroke-linejoin="miter" d="M 3.50051 3.501526 L 33.242748 3.500011 " stroke="#ffd700" stroke-width="7" stroke-opacity="1" stroke-miterlimit="4"/><path stroke-linecap="round" transform="matrix(1.264158, -0.817376, 0.817376, 1.264158, 5.335426, 272.191007)" fill="none" stroke-linejoin="miter" d="M 3.500469 3.499639 L 39.758629 3.499499 " stroke="#ffd700" stroke-width="7" stroke-opacity="1" stroke-miterlimit="4"/><path stroke-linecap="round" transform="matrix(1.264158, -0.817376, 0.817376, 1.264158, 27.788949, 287.208029)" fill="none" stroke-linejoin="miter" d="M 3.499342 3.500896 L 33.243759 3.500789 " stroke="#ffd700" stroke-width="7" stroke-opacity="1" stroke-miterlimit="4"/><path stroke-linecap="round" transform="matrix(1.131899, -0.992474, 0.992474, 1.131899, 284.181725, 47.601244)" fill="none" stroke-linejoin="miter" d="M 29.779795 10.675284 L 29.779591 7.086003 C 29.779837 6.137177 29.40169 5.22238 28.728661 4.549428 C 28.055633 3.876476 27.142833 3.500593 26.192057 3.498636 L 3.49981 3.500376 " stroke="#ffd700" stroke-width="7" stroke-opacity="1" stroke-miterlimit="4"/><path stroke-linecap="round" transform="matrix(1.131899, -0.992474, 0.992474, 1.131899, 305.649008, 28.778267)" fill="none" stroke-linejoin="miter" d="M 10.813667 28.347797 L 10.813063 7.157758 C 10.814659 5.136836 9.175491 3.499415 7.15652 3.49953 L 3.501086 3.500398 " stroke="#ffd700" stroke-width="7" stroke-opacity="1" stroke-miterlimit="4"/><path stroke-linecap="round" transform="matrix(0.019905, -1.505258, 1.505258, 0.019905, 312.920581, 96.377154)" fill="none" stroke-linejoin="miter" d="M 3.499149 3.499453 L 27.947311 3.500542 " stroke="#ffd700" stroke-width="7" stroke-opacity="1" stroke-miterlimit="4"/><g fill="#212121" fill-opacity="1"><g transform="translate(57.338838, 356.397853)"><g><path d="M 13.828125 0.53125 C 11.378906 0.53125 9.015625 0.203125 6.734375 -0.453125 C 4.453125 -1.117188 2.617188 -1.984375 1.234375 -3.046875 L 3.671875 -8.4375 C 4.992188 -7.46875 6.566406 -6.6875 8.390625 -6.09375 C 10.210938 -5.5 12.035156 -5.203125 13.859375 -5.203125 C 15.890625 -5.203125 17.390625 -5.503906 18.359375 -6.109375 C 19.335938 -6.710938 19.828125 -7.515625 19.828125 -8.515625 C 19.828125 -9.253906 19.539062 -9.863281 18.96875 -10.34375 C 18.394531 -10.832031 17.65625 -11.222656 16.75 -11.515625 C 15.851562 -11.816406 14.640625 -12.144531 13.109375 -12.5 C 10.753906 -13.050781 8.828125 -13.609375 7.328125 -14.171875 C 5.828125 -14.734375 4.539062 -15.628906 3.46875 -16.859375 C 2.394531 -18.097656 1.859375 -19.75 1.859375 -21.8125 C 1.859375 -23.601562 2.34375 -25.226562 3.3125 -26.6875 C 4.28125 -28.144531 5.742188 -29.300781 7.703125 -30.15625 C 9.660156 -31.007812 12.050781 -31.4375 14.875 -31.4375 C 16.851562 -31.4375 18.78125 -31.203125 20.65625 -30.734375 C 22.539062 -30.265625 24.191406 -29.585938 25.609375 -28.703125 L 23.40625 -23.265625 C 20.550781 -24.890625 17.695312 -25.703125 14.84375 -25.703125 C 12.832031 -25.703125 11.347656 -25.375 10.390625 -24.71875 C 9.441406 -24.070312 8.96875 -23.222656 8.96875 -22.171875 C 8.96875 -21.109375 9.519531 -20.316406 10.625 -19.796875 C 11.726562 -19.285156 13.410156 -18.78125 15.671875 -18.28125 C 18.023438 -17.71875 19.953125 -17.15625 21.453125 -16.59375 C 22.960938 -16.039062 24.253906 -15.160156 25.328125 -13.953125 C 26.398438 -12.742188 26.9375 -11.109375 26.9375 -9.046875 C 26.9375 -7.285156 26.441406 -5.675781 25.453125 -4.21875 C 24.472656 -2.757812 22.992188 -1.601562 21.015625 -0.75 C 19.046875 0.101562 16.648438 0.53125 13.828125 0.53125 Z M 13.828125 0.53125 "/></g></g></g><g fill="#212121" fill-opacity="1"><g transform="translate(85.506694, 356.397853)"><g><path d="M 17.625 -24.109375 C 20.5625 -24.109375 22.9375 -23.222656 24.75 -21.453125 C 26.5625 -19.691406 27.46875 -17.070312 27.46875 -13.59375 L 27.46875 0 L 20.578125 0 L 20.578125 -12.546875 C 20.578125 -14.421875 20.164062 -15.820312 19.34375 -16.75 C 18.519531 -17.675781 17.328125 -18.140625 15.765625 -18.140625 C 14.023438 -18.140625 12.640625 -17.601562 11.609375 -16.53125 C 10.578125 -15.457031 10.0625 -13.863281 10.0625 -11.75 L 10.0625 0 L 3.171875 0 L 3.171875 -32.765625 L 10.0625 -32.765625 L 10.0625 -21.28125 C 10.976562 -22.195312 12.082031 -22.894531 13.375 -23.375 C 14.675781 -23.863281 16.09375 -24.109375 17.625 -24.109375 Z M 17.625 -24.109375 "/></g></g></g><g fill="#212121" fill-opacity="1"><g transform="translate(116.014503, 356.397853)"><g><path d="M 14.484375 0.359375 C 11.984375 0.359375 9.738281 -0.160156 7.75 -1.203125 C 5.757812 -2.253906 4.203125 -3.707031 3.078125 -5.5625 C 1.960938 -7.414062 1.40625 -9.519531 1.40625 -11.875 C 1.40625 -14.226562 1.960938 -16.332031 3.078125 -18.1875 C 4.203125 -20.039062 5.757812 -21.488281 7.75 -22.53125 C 9.738281 -23.582031 11.984375 -24.109375 14.484375 -24.109375 C 16.984375 -24.109375 19.21875 -23.582031 21.1875 -22.53125 C 23.164062 -21.488281 24.710938 -20.039062 25.828125 -18.1875 C 26.953125 -16.332031 27.515625 -14.226562 27.515625 -11.875 C 27.515625 -9.519531 26.953125 -7.414062 25.828125 -5.5625 C 24.710938 -3.707031 23.164062 -2.253906 21.1875 -1.203125 C 19.21875 -0.160156 16.984375 0.359375 14.484375 0.359375 Z M 14.484375 -5.296875 C 16.242188 -5.296875 17.691406 -5.890625 18.828125 -7.078125 C 19.960938 -8.273438 20.53125 -9.875 20.53125 -11.875 C 20.53125 -13.875 19.960938 -15.46875 18.828125 -16.65625 C 17.691406 -17.851562 16.242188 -18.453125 14.484375 -18.453125 C 12.710938 -18.453125 11.253906 -17.851562 10.109375 -16.65625 C 8.960938 -15.46875 8.390625 -13.875 8.390625 -11.875 C 8.390625 -9.875 8.960938 -8.273438 10.109375 -7.078125 C 11.253906 -5.890625 12.710938 -5.296875 14.484375 -5.296875 Z M 14.484375 -5.296875 "/></g></g></g><g fill="#212121" fill-opacity="1"><g transform="translate(144.932918, 356.397853)"><g><path d="M 18.5 -1.140625 C 17.820312 -0.640625 16.988281 -0.265625 16 -0.015625 C 15.019531 0.234375 13.984375 0.359375 12.890625 0.359375 C 10.066406 0.359375 7.878906 -0.359375 6.328125 -1.796875 C 4.785156 -3.242188 4.015625 -5.367188 4.015625 -8.171875 L 4.015625 -17.921875 L 0.359375 -17.921875 L 0.359375 -23.21875 L 4.015625 -23.21875 L 4.015625 -29.015625 L 10.90625 -29.015625 L 10.90625 -23.21875 L 16.828125 -23.21875 L 16.828125 -17.921875 L 10.90625 -17.921875 L 10.90625 -8.25 C 10.90625 -7.25 11.160156 -6.476562 11.671875 -5.9375 C 12.191406 -5.394531 12.921875 -5.125 13.859375 -5.125 C 14.953125 -5.125 15.878906 -5.414062 16.640625 -6 Z M 18.5 -1.140625 "/></g></g></g><g fill="#212121" fill-opacity="1"><g transform="translate(164.138264, 356.397853)"><g><path d="M 13.828125 0.53125 C 11.378906 0.53125 9.015625 0.203125 6.734375 -0.453125 C 4.453125 -1.117188 2.617188 -1.984375 1.234375 -3.046875 L 3.671875 -8.4375 C 4.992188 -7.46875 6.566406 -6.6875 8.390625 -6.09375 C 10.210938 -5.5 12.035156 -5.203125 13.859375 -5.203125 C 15.890625 -5.203125 17.390625 -5.503906 18.359375 -6.109375 C 19.335938 -6.710938 19.828125 -7.515625 19.828125 -8.515625 C 19.828125 -9.253906 19.539062 -9.863281 18.96875 -10.34375 C 18.394531 -10.832031 17.65625 -11.222656 16.75 -11.515625 C 15.851562 -11.816406 14.640625 -12.144531 13.109375 -12.5 C 10.753906 -13.050781 8.828125 -13.609375 7.328125 -14.171875 C 5.828125 -14.734375 4.539062 -15.628906 3.46875 -16.859375 C 2.394531 -18.097656 1.859375 -19.75 1.859375 -21.8125 C 1.859375 -23.601562 2.34375 -25.226562 3.3125 -26.6875 C 4.28125 -28.144531 5.742188 -29.300781 7.703125 -30.15625 C 9.660156 -31.007812 12.050781 -31.4375 14.875 -31.4375 C 16.851562 -31.4375 18.78125 -31.203125 20.65625 -30.734375 C 22.539062 -30.265625 24.191406 -29.585938 25.609375 -28.703125 L 23.40625 -23.265625 C 20.550781 -24.890625 17.695312 -25.703125 14.84375 -25.703125 C 12.832031 -25.703125 11.347656 -25.375 10.390625 -24.71875 C 9.441406 -24.070312 8.96875 -23.222656 8.96875 -22.171875 C 8.96875 -21.109375 9.519531 -20.316406 10.625 -19.796875 C 11.726562 -19.285156 13.410156 -18.78125 15.671875 -18.28125 C 18.023438 -17.71875 19.953125 -17.15625 21.453125 -16.59375 C 22.960938 -16.039062 24.253906 -15.160156 25.328125 -13.953125 C 26.398438 -12.742188 26.9375 -11.109375 26.9375 -9.046875 C 26.9375 -7.285156 26.441406 -5.675781 25.453125 -4.21875 C 24.472656 -2.757812 22.992188 -1.601562 21.015625 -0.75 C 19.046875 0.101562 16.648438 0.53125 13.828125 0.53125 Z M 13.828125 0.53125 "/></g></g></g><g fill="#212121" fill-opacity="1"><g transform="translate(192.30612, 356.397853)"><g><path d="M 18.5 -1.140625 C 17.820312 -0.640625 16.988281 -0.265625 16 -0.015625 C 15.019531 0.234375 13.984375 0.359375 12.890625 0.359375 C 10.066406 0.359375 7.878906 -0.359375 6.328125 -1.796875 C 4.785156 -3.242188 4.015625 -5.367188 4.015625 -8.171875 L 4.015625 -17.921875 L 0.359375 -17.921875 L 0.359375 -23.21875 L 4.015625 -23.21875 L 4.015625 -29.015625 L 10.90625 -29.015625 L 10.90625 -23.21875 L 16.828125 -23.21875 L 16.828125 -17.921875 L 10.90625 -17.921875 L 10.90625 -8.25 C 10.90625 -7.25 11.160156 -6.476562 11.671875 -5.9375 C 12.191406 -5.394531 12.921875 -5.125 13.859375 -5.125 C 14.953125 -5.125 15.878906 -5.414062 16.640625 -6 Z M 18.5 -1.140625 "/></g></g></g><g fill="#212121" fill-opacity="1"><g transform="translate(211.511467, 356.397853)"><g><path d="M 9.765625 -20.625 C 10.585938 -21.769531 11.695312 -22.632812 13.09375 -23.21875 C 14.488281 -23.8125 16.097656 -24.109375 17.921875 -24.109375 L 17.921875 -17.75 C 17.160156 -17.8125 16.644531 -17.84375 16.375 -17.84375 C 14.40625 -17.84375 12.859375 -17.289062 11.734375 -16.1875 C 10.617188 -15.082031 10.0625 -13.425781 10.0625 -11.21875 L 10.0625 0 L 3.171875 0 L 3.171875 -23.75 L 9.765625 -23.75 Z M 9.765625 -20.625 "/></g></g></g><g fill="#212121" fill-opacity="1"><g transform="translate(230.540216, 356.397853)"><g><path d="M 26.453125 -11.796875 C 26.453125 -11.703125 26.40625 -11.082031 26.3125 -9.9375 L 8.34375 -9.9375 C 8.664062 -8.46875 9.429688 -7.304688 10.640625 -6.453125 C 11.847656 -5.597656 13.347656 -5.171875 15.140625 -5.171875 C 16.378906 -5.171875 17.476562 -5.351562 18.4375 -5.71875 C 19.394531 -6.082031 20.285156 -6.664062 21.109375 -7.46875 L 24.765625 -3.484375 C 22.535156 -0.921875 19.269531 0.359375 14.96875 0.359375 C 12.289062 0.359375 9.921875 -0.160156 7.859375 -1.203125 C 5.796875 -2.253906 4.203125 -3.707031 3.078125 -5.5625 C 1.960938 -7.414062 1.40625 -9.519531 1.40625 -11.875 C 1.40625 -14.195312 1.957031 -16.289062 3.0625 -18.15625 C 4.164062 -20.03125 5.679688 -21.488281 7.609375 -22.53125 C 9.546875 -23.582031 11.703125 -24.109375 14.078125 -24.109375 C 16.410156 -24.109375 18.515625 -23.609375 20.390625 -22.609375 C 22.273438 -21.609375 23.753906 -20.171875 24.828125 -18.296875 C 25.910156 -16.429688 26.453125 -14.265625 26.453125 -11.796875 Z M 14.125 -18.90625 C 12.570312 -18.90625 11.265625 -18.460938 10.203125 -17.578125 C 9.140625 -16.691406 8.488281 -15.484375 8.25 -13.953125 L 19.953125 -13.953125 C 19.722656 -15.453125 19.078125 -16.648438 18.015625 -17.546875 C 16.953125 -18.453125 15.65625 -18.90625 14.125 -18.90625 Z M 14.125 -18.90625 "/></g></g></g><g fill="#212121" fill-opacity="1"><g transform="translate(258.399028, 356.397853)"><g><path d="M 12.765625 -24.109375 C 16.441406 -24.109375 19.265625 -23.234375 21.234375 -21.484375 C 23.210938 -19.734375 24.203125 -17.09375 24.203125 -13.5625 L 24.203125 0 L 17.75 0 L 17.75 -2.953125 C 16.457031 -0.742188 14.046875 0.359375 10.515625 0.359375 C 8.679688 0.359375 7.09375 0.0507812 5.75 -0.5625 C 4.414062 -1.1875 3.394531 -2.039062 2.6875 -3.125 C 1.988281 -4.21875 1.640625 -5.457031 1.640625 -6.84375 C 1.640625 -9.050781 2.46875 -10.785156 4.125 -12.046875 C 5.789062 -13.316406 8.359375 -13.953125 11.828125 -13.953125 L 17.3125 -13.953125 C 17.3125 -15.453125 16.851562 -16.609375 15.9375 -17.421875 C 15.03125 -18.234375 13.660156 -18.640625 11.828125 -18.640625 C 10.566406 -18.640625 9.320312 -18.4375 8.09375 -18.03125 C 6.875 -17.632812 5.835938 -17.097656 4.984375 -16.421875 L 2.515625 -21.234375 C 3.804688 -22.148438 5.359375 -22.859375 7.171875 -23.359375 C 8.984375 -23.859375 10.847656 -24.109375 12.765625 -24.109375 Z M 12.234375 -4.28125 C 13.410156 -4.28125 14.453125 -4.550781 15.359375 -5.09375 C 16.273438 -5.644531 16.925781 -6.445312 17.3125 -7.5 L 17.3125 -9.9375 L 12.578125 -9.9375 C 9.753906 -9.9375 8.34375 -9.007812 8.34375 -7.15625 C 8.34375 -6.269531 8.6875 -5.566406 9.375 -5.046875 C 10.070312 -4.535156 11.023438 -4.28125 12.234375 -4.28125 Z M 12.234375 -4.28125 "/></g></g></g><g fill="#212121" fill-opacity="1"><g transform="translate(285.63973, 356.397853)"><g><path d="M 13.375 -9.3125 L 10.0625 -6.046875 L 10.0625 0 L 3.171875 0 L 3.171875 -32.765625 L 10.0625 -32.765625 L 10.0625 -14.21875 L 20.140625 -23.75 L 28.34375 -23.75 L 18.453125 -13.6875 L 29.234375 0 L 20.890625 0 Z M 13.375 -9.3125 "/></g></g></g></svg>