<svg xmlns="http://www.w3.org/2000/svg" xmlns:xlink="http://www.w3.org/1999/xlink" width="500" zoomAndPan="magnify" viewBox="0 0 375 374.999991" height="500" preserveAspectRatio="xMidYMid meet" version="1.0"><defs><clipPath id="1fac61cc83"><path d="M 160.0625 151.867188 L 168.03125 151.867188 L 168.03125 155.617188 L 160.0625 155.617188 Z M 160.0625 151.867188 " clip-rule="nonzero"/></clipPath></defs><path fill="#ff6f61" d="M 374.046875 60.90625 C 373.054688 58.070312 370.527344 56.058594 367.542969 55.726562 L 333.992188 52 C 336.609375 48.9375 336.484375 44.320312 333.582031 41.417969 C 330.675781 38.515625 326.058594 38.386719 322.996094 41.015625 L 319.269531 7.457031 C 318.941406 4.476562 316.929688 1.945312 314.09375 0.957031 C 311.273438 -0.0351562 308.117188 0.683594 305.992188 2.804688 L 255.320312 53.480469 C 249.867188 50.429688 244.246094 47.664062 238.453125 45.214844 C 217.285156 36.265625 194.800781 31.722656 171.636719 31.722656 C 148.46875 31.722656 125.992188 36.265625 104.828125 45.214844 C 84.390625 53.859375 66.03125 66.234375 50.269531 81.996094 C 34.511719 97.753906 22.136719 116.109375 13.496094 136.546875 C 4.542969 157.710938 0.00390625 180.191406 0.00390625 203.355469 C 0.00390625 226.53125 4.542969 249.011719 13.496094 270.175781 C 22.136719 290.609375 34.511719 308.960938 50.273438 324.722656 C 66.03125 340.480469 84.390625 352.859375 104.828125 361.507812 C 125.996094 370.457031 148.46875 374.992188 171.636719 374.992188 C 194.804688 374.992188 217.289062 370.457031 238.453125 361.507812 C 258.886719 352.859375 277.238281 340.480469 293 324.722656 C 308.769531 308.960938 321.136719 290.609375 329.785156 270.175781 C 338.734375 249.011719 343.273438 226.53125 343.273438 203.355469 C 343.273438 180.191406 338.734375 157.710938 329.785156 136.546875 C 327.328125 130.746094 324.5625 125.125 321.523438 119.679688 L 372.195312 69 C 374.320312 66.882812 375.03125 63.734375 374.046875 60.90625 Z M 305.558594 25.3125 L 308.425781 51.140625 C 300.863281 54.269531 287.867188 62.992188 262.015625 85.34375 L 263.835938 67.03125 Z M 215.539062 187.132812 C 217.414062 192.191406 218.453125 197.652344 218.453125 203.355469 C 218.453125 229.171875 197.449219 250.164062 171.636719 250.164062 C 145.828125 250.164062 124.828125 229.171875 124.828125 203.355469 C 124.828125 177.546875 145.828125 156.546875 171.636719 156.546875 C 177.339844 156.546875 182.804688 157.582031 187.859375 159.453125 L 187.859375 176.101562 L 166.117188 197.839844 C 163.074219 200.886719 163.074219 205.835938 166.117188 208.875 C 167.644531 210.394531 169.636719 211.160156 171.636719 211.160156 C 173.632812 211.160156 175.632812 210.394531 177.152344 208.875 L 198.894531 187.132812 Z M 196.128906 145.957031 C 188.601562 142.734375 180.328125 140.945312 171.636719 140.945312 C 137.222656 140.945312 109.222656 168.945312 109.222656 203.355469 C 109.222656 237.777344 137.222656 265.777344 171.636719 265.777344 C 206.054688 265.777344 234.054688 237.777344 234.054688 203.355469 C 234.054688 194.671875 232.269531 186.390625 229.035156 178.867188 C 235.148438 172.515625 245.5625 161.625 257.242188 149.019531 C 267.253906 164.742188 273.058594 183.386719 273.058594 203.355469 C 273.058594 259.285156 227.5625 304.78125 171.640625 304.78125 C 115.714844 304.78125 70.21875 259.285156 70.21875 203.355469 C 70.21875 147.433594 115.714844 101.9375 171.640625 101.9375 C 191.617188 101.9375 210.261719 107.742188 225.972656 117.753906 C 213.378906 129.4375 202.488281 139.839844 196.128906 145.957031 Z M 260.601562 122.246094 C 240.773438 144.199219 221.011719 164.742188 214.429688 171.527344 L 203.472656 171.527344 L 203.472656 160.5625 C 210.25 153.992188 230.773438 134.246094 252.714844 114.421875 C 277.113281 92.390625 292.246094 80.195312 301.546875 73.445312 C 294.804688 82.75 282.621094 97.875 260.601562 122.246094 Z M 281.972656 313.695312 C 252.496094 343.167969 213.320312 359.394531 171.636719 359.394531 C 129.960938 359.394531 90.777344 343.167969 61.304688 313.695312 C 31.839844 284.222656 15.605469 245.035156 15.605469 203.355469 C 15.605469 161.683594 31.839844 122.496094 61.304688 93.03125 C 90.777344 63.554688 129.960938 47.328125 171.636719 47.328125 C 198.871094 47.328125 225.046875 54.265625 248.132812 67.292969 L 244.839844 100.519531 C 244.476562 100.851562 244.109375 101.175781 243.730469 101.515625 C 241.765625 103.292969 239.800781 105.070312 237.847656 106.839844 C 218.507812 93.515625 195.625 86.332031 171.636719 86.332031 C 140.375 86.332031 110.988281 98.507812 88.886719 120.609375 C 66.785156 142.710938 54.613281 172.101562 54.613281 203.355469 C 54.613281 234.625 66.785156 264.003906 88.886719 286.105469 C 110.988281 308.210938 140.375 320.378906 171.636719 320.378906 C 202.898438 320.378906 232.28125 308.207031 254.382812 286.105469 C 276.496094 264.003906 288.667969 234.625 288.667969 203.355469 C 288.667969 179.367188 281.480469 156.484375 268.152344 137.148438 C 270.257812 134.839844 272.371094 132.507812 274.472656 130.160156 L 307.707031 126.867188 C 320.734375 149.957031 327.671875 176.121094 327.671875 203.355469 C 327.671875 245.035156 311.445312 284.222656 281.972656 313.695312 Z M 307.96875 111.160156 L 289.628906 112.976562 C 298.839844 102.3125 306.300781 93.175781 311.878906 85.71875 C 316.859375 79.058594 320.335938 73.773438 322.507812 69.550781 C 322.859375 68.863281 323.386719 67.828125 323.902344 66.578125 L 349.683594 69.445312 Z M 307.96875 111.160156 " fill-opacity="1" fill-rule="nonzero"/><g clip-path="url(#1fac61cc83)"><path fill="#ff6f61" d="M 160.0625 151.867188 L 168.03125 151.867188 L 168.03125 155.617188 L 160.0625 155.617188 Z M 160.0625 151.867188 " fill-opacity="1" fill-rule="nonzero"/></g></svg>