<svg xmlns="http://www.w3.org/2000/svg" xmlns:xlink="http://www.w3.org/1999/xlink" width="500" zoomAndPan="magnify" viewBox="0 0 375 374.999991" height="500" preserveAspectRatio="xMidYMid meet" version="1.0"><defs><clipPath id="9d847f9cad"><path d="M 46.875 0 L 328.125 0 L 328.125 282 L 46.875 282 Z M 46.875 0 " clip-rule="nonzero"/></clipPath><clipPath id="dd0c8e6e21"><path d="M 70.246094 167.40625 L 73.996094 167.40625 L 73.996094 193.933594 L 70.246094 193.933594 Z M 70.246094 167.40625 " clip-rule="nonzero"/></clipPath><clipPath id="183e98f119"><path d="M 72.121094 167.40625 C 73.15625 167.40625 73.996094 168.242188 73.996094 169.28125 L 73.996094 192.054688 C 73.996094 193.089844 73.15625 193.929688 72.121094 193.929688 C 71.085938 193.929688 70.246094 193.089844 70.246094 192.054688 L 70.246094 169.28125 C 70.246094 168.242188 71.085938 167.40625 72.121094 167.40625 Z M 72.121094 167.40625 " clip-rule="nonzero"/></clipPath></defs><path fill="#ff6f61" d="M 314.121094 327.996094 L 262.984375 242.769531 C 261.453125 240.203125 258.671875 238.636719 255.683594 238.636719 L 119.316406 238.636719 C 116.328125 238.636719 113.546875 240.203125 112.015625 242.769531 L 60.878906 327.996094 C 59.140625 330.886719 59.277344 334.535156 61.21875 337.296875 C 63.160156 340.058594 66.554688 341.421875 69.859375 340.738281 L 105.519531 333.605469 L 119.933594 369.640625 C 121.203125 372.808594 124.234375 374.914062 127.652344 374.992188 C 130.996094 375.179688 134.199219 373.109375 135.605469 369.996094 L 175.941406 281.25 L 199.058594 281.25 L 239.402344 370.003906 C 240.785156 373.046875 243.816406 375 247.160156 375 C 247.226562 375 247.285156 375 247.355469 375 C 250.765625 374.921875 253.808594 372.816406 255.078125 369.648438 L 269.488281 333.613281 L 305.148438 340.746094 C 308.480469 341.429688 311.847656 340.058594 313.789062 337.304688 C 315.722656 334.535156 315.859375 330.894531 314.121094 327.996094 Z M 314.121094 327.996094 " fill-opacity="1" fill-rule="nonzero"/><g clip-path="url(#9d847f9cad)"><path fill="#0cc0df" d="M 328.175781 140.675781 C 328.175781 132.503906 324.109375 124.917969 317.316406 120.382812 C 315.683594 119.292969 314.574219 117.628906 314.191406 115.695312 C 313.816406 113.761719 314.207031 111.800781 315.308594 110.171875 C 319.875 103.398438 320.753906 94.839844 317.652344 87.28125 C 314.546875 79.722656 307.910156 74.242188 299.265625 72.503906 C 295.304688 71.710938 292.730469 67.832031 293.640625 63.238281 C 295.246094 55.226562 292.753906 46.996094 286.976562 41.214844 C 281.199219 35.4375 272.972656 32.933594 264.953125 34.550781 C 263.011719 34.933594 261.058594 34.542969 259.421875 33.453125 C 257.785156 32.359375 256.679688 30.683594 256.304688 28.753906 C 254.746094 20.734375 249.316406 14.0625 241.773438 10.910156 C 234.230469 7.765625 225.664062 8.582031 218.328125 13.457031 C 214.960938 15.691406 210.402344 14.777344 207.800781 10.875 C 203.257812 4.058594 195.671875 0 187.5 0 C 179.328125 0 171.742188 4.058594 167.207031 10.859375 C 166.117188 12.496094 164.453125 13.609375 162.519531 13.996094 C 160.578125 14.378906 158.625 13.976562 156.996094 12.878906 C 150.230469 8.308594 141.664062 7.433594 134.105469 10.535156 C 126.546875 13.628906 121.066406 20.265625 119.316406 28.917969 C 118.527344 32.878906 114.65625 35.464844 110.054688 34.542969 C 102.027344 32.941406 93.800781 35.429688 88.03125 41.207031 C 82.253906 46.984375 79.753906 55.21875 81.367188 63.230469 C 81.75 65.164062 81.359375 67.125 80.265625 68.761719 C 79.167969 70.398438 77.496094 71.503906 75.570312 71.878906 C 67.550781 73.441406 60.878906 78.871094 57.722656 86.410156 C 54.570312 93.953125 55.390625 102.519531 60.273438 109.867188 C 62.515625 113.234375 61.59375 117.792969 57.691406 120.390625 C 50.890625 124.925781 46.832031 132.511719 46.832031 140.683594 C 46.832031 148.859375 50.890625 156.441406 57.691406 160.976562 C 59.328125 162.066406 60.441406 163.730469 60.828125 165.664062 C 61.203125 167.597656 60.808594 169.558594 59.710938 171.1875 C 55.140625 177.964844 54.265625 186.519531 57.367188 194.078125 C 60.46875 201.640625 67.109375 207.121094 75.75 208.859375 C 79.714844 209.652344 82.296875 213.527344 81.375 218.128906 C 79.773438 226.140625 82.261719 234.375 88.039062 240.152344 C 93.816406 245.933594 102.058594 248.429688 110.0625 246.816406 C 111.996094 246.433594 113.957031 246.828125 115.59375 247.917969 C 117.230469 249.007812 118.339844 250.6875 118.714844 252.613281 C 120.273438 260.632812 125.703125 267.308594 133.246094 270.460938 C 140.796875 273.613281 149.351562 272.785156 156.691406 267.910156 C 160.066406 265.6875 164.617188 266.589844 167.214844 270.496094 C 171.75 277.296875 179.335938 281.351562 187.507812 281.351562 C 195.683594 281.351562 203.265625 277.285156 207.800781 270.496094 C 208.890625 268.859375 210.554688 267.75 212.488281 267.367188 C 214.414062 267 216.382812 267.375 218.011719 268.484375 C 224.785156 273.050781 233.34375 273.9375 240.902344 270.828125 C 248.464844 267.722656 253.941406 261.085938 255.683594 252.441406 C 256.472656 248.480469 260.351562 245.933594 264.945312 246.816406 C 272.949219 248.410156 281.199219 245.933594 286.96875 240.152344 C 292.746094 234.375 295.246094 226.140625 293.632812 218.128906 C 293.25 216.195312 293.640625 214.226562 294.734375 212.597656 C 295.832031 210.964844 297.496094 209.863281 299.429688 209.480469 C 307.449219 207.921875 314.121094 202.492188 317.277344 194.949219 C 320.429688 187.40625 319.609375 178.839844 314.726562 171.503906 C 312.484375 168.136719 313.40625 163.578125 316.773438 161.335938 L 312.042969 154.246094 L 317.308594 160.976562 C 324.121094 156.425781 328.175781 148.847656 328.175781 140.675781 Z M 328.175781 140.675781 " fill-opacity="1" fill-rule="nonzero"/></g><path fill="#ff6f61" d="M 281.25 140.675781 C 281.25 142.210938 281.210938 143.742188 281.136719 145.277344 C 281.0625 146.808594 280.949219 148.339844 280.796875 149.867188 C 280.648438 151.390625 280.460938 152.914062 280.234375 154.433594 C 280.011719 155.949219 279.746094 157.460938 279.449219 158.964844 C 279.148438 160.46875 278.8125 161.96875 278.441406 163.457031 C 278.066406 164.945312 277.660156 166.421875 277.214844 167.890625 C 276.769531 169.359375 276.285156 170.816406 275.769531 172.257812 C 275.253906 173.703125 274.699219 175.136719 274.113281 176.550781 C 273.527344 177.96875 272.90625 179.371094 272.25 180.757812 C 271.59375 182.144531 270.902344 183.515625 270.179688 184.871094 C 269.457031 186.222656 268.699219 187.558594 267.910156 188.875 C 267.125 190.1875 266.300781 191.484375 265.449219 192.761719 C 264.597656 194.035156 263.714844 195.289062 262.800781 196.523438 C 261.886719 197.753906 260.941406 198.964844 259.96875 200.152344 C 258.996094 201.335938 257.996094 202.496094 256.964844 203.636719 C 255.933594 204.773438 254.875 205.882812 253.792969 206.96875 C 252.707031 208.050781 251.59375 209.109375 250.457031 210.140625 C 249.320312 211.171875 248.160156 212.171875 246.972656 213.144531 C 245.789062 214.121094 244.578125 215.0625 243.347656 215.976562 C 242.113281 216.890625 240.859375 217.773438 239.585938 218.625 C 238.308594 219.480469 237.011719 220.300781 235.695312 221.089844 C 234.382812 221.875 233.046875 222.632812 231.695312 223.355469 C 230.339844 224.078125 228.96875 224.769531 227.582031 225.425781 C 226.195312 226.082031 224.792969 226.703125 223.375 227.289062 C 221.960938 227.875 220.527344 228.429688 219.082031 228.945312 C 217.640625 229.460938 216.183594 229.945312 214.714844 230.390625 C 213.246094 230.835938 211.769531 231.242188 210.28125 231.617188 C 208.792969 231.988281 207.292969 232.324219 205.789062 232.625 C 204.285156 232.925781 202.773438 233.1875 201.257812 233.410156 C 199.738281 233.636719 198.214844 233.824219 196.6875 233.976562 C 195.164062 234.125 193.632812 234.238281 192.101562 234.3125 C 190.566406 234.386719 189.035156 234.425781 187.5 234.425781 C 185.964844 234.425781 184.433594 234.386719 182.898438 234.3125 C 181.367188 234.238281 179.835938 234.125 178.3125 233.976562 C 176.785156 233.824219 175.261719 233.636719 173.742188 233.410156 C 172.226562 233.1875 170.714844 232.925781 169.210938 232.625 C 167.707031 232.324219 166.207031 231.988281 164.71875 231.617188 C 163.230469 231.242188 161.753906 230.835938 160.285156 230.390625 C 158.816406 229.945312 157.359375 229.460938 155.917969 228.945312 C 154.472656 228.429688 153.039062 227.878906 151.625 227.289062 C 150.207031 226.703125 148.804688 226.082031 147.417969 225.425781 C 146.03125 224.769531 144.660156 224.078125 143.304688 223.355469 C 141.953125 222.632812 140.617188 221.875 139.304688 221.089844 C 137.988281 220.300781 136.691406 219.480469 135.414062 218.625 C 134.140625 217.773438 132.886719 216.890625 131.652344 215.976562 C 130.421875 215.0625 129.210938 214.121094 128.027344 213.144531 C 126.839844 212.171875 125.679688 211.171875 124.542969 210.140625 C 123.40625 209.109375 122.292969 208.050781 121.207031 206.96875 C 120.125 205.882812 119.066406 204.773438 118.035156 203.636719 C 117.003906 202.496094 116.003906 201.335938 115.03125 200.152344 C 114.058594 198.964844 113.113281 197.753906 112.199219 196.523438 C 111.285156 195.289062 110.402344 194.035156 109.550781 192.761719 C 108.699219 191.484375 107.875 190.1875 107.089844 188.875 C 106.300781 187.558594 105.542969 186.222656 104.820312 184.871094 C 104.097656 183.515625 103.40625 182.144531 102.75 180.757812 C 102.09375 179.371094 101.472656 177.96875 100.886719 176.550781 C 100.300781 175.136719 99.746094 173.703125 99.230469 172.257812 C 98.714844 170.816406 98.230469 169.359375 97.785156 167.890625 C 97.339844 166.421875 96.933594 164.945312 96.558594 163.457031 C 96.1875 161.96875 95.851562 160.46875 95.550781 158.964844 C 95.253906 157.460938 94.988281 155.949219 94.765625 154.433594 C 94.539062 152.914062 94.351562 151.390625 94.203125 149.867188 C 94.050781 148.339844 93.9375 146.808594 93.863281 145.277344 C 93.789062 143.742188 93.75 142.210938 93.75 140.675781 C 93.75 139.140625 93.789062 137.609375 93.863281 136.074219 C 93.9375 134.542969 94.050781 133.015625 94.203125 131.488281 C 94.351562 129.960938 94.539062 128.4375 94.765625 126.921875 C 94.988281 125.402344 95.253906 123.890625 95.550781 122.386719 C 95.851562 120.882812 96.1875 119.386719 96.558594 117.898438 C 96.933594 116.410156 97.339844 114.929688 97.785156 113.460938 C 98.230469 111.992188 98.714844 110.539062 99.230469 109.09375 C 99.746094 107.648438 100.300781 106.21875 100.886719 104.800781 C 101.472656 103.382812 102.09375 101.980469 102.75 100.59375 C 103.40625 99.207031 104.097656 97.835938 104.820312 96.484375 C 105.542969 95.128906 106.300781 93.796875 107.089844 92.480469 C 107.875 91.164062 108.699219 89.867188 109.550781 88.589844 C 110.402344 87.316406 111.285156 86.0625 112.199219 84.828125 C 113.113281 83.597656 114.058594 82.386719 115.03125 81.203125 C 116.003906 80.015625 117.003906 78.855469 118.035156 77.71875 C 119.066406 76.582031 120.125 75.46875 121.207031 74.386719 C 122.292969 73.300781 123.40625 72.242188 124.542969 71.210938 C 125.679688 70.179688 126.839844 69.179688 128.027344 68.207031 C 129.210938 67.234375 130.421875 66.289062 131.652344 65.375 C 132.886719 64.460938 134.140625 63.578125 135.414062 62.726562 C 136.691406 61.875 137.988281 61.054688 139.304688 60.265625 C 140.617188 59.476562 141.953125 58.71875 143.304688 57.996094 C 144.660156 57.273438 146.03125 56.582031 147.417969 55.925781 C 148.804688 55.269531 150.207031 54.648438 151.625 54.0625 C 153.039062 53.476562 154.472656 52.921875 155.917969 52.40625 C 157.359375 51.890625 158.816406 51.410156 160.285156 50.964844 C 161.753906 50.519531 163.230469 50.109375 164.71875 49.734375 C 166.207031 49.363281 167.707031 49.027344 169.210938 48.726562 C 170.714844 48.429688 172.226562 48.164062 173.742188 47.941406 C 175.261719 47.714844 176.785156 47.527344 178.3125 47.378906 C 179.835938 47.226562 181.367188 47.113281 182.898438 47.039062 C 184.433594 46.964844 185.964844 46.925781 187.5 46.925781 C 189.035156 46.925781 190.566406 46.964844 192.101562 47.039062 C 193.632812 47.113281 195.164062 47.226562 196.6875 47.378906 C 198.214844 47.527344 199.738281 47.714844 201.257812 47.941406 C 202.773438 48.164062 204.285156 48.429688 205.789062 48.726562 C 207.292969 49.027344 208.792969 49.363281 210.28125 49.734375 C 211.769531 50.109375 213.246094 50.519531 214.714844 50.964844 C 216.183594 51.410156 217.640625 51.890625 219.082031 52.40625 C 220.527344 52.921875 221.960938 53.476562 223.375 54.0625 C 224.792969 54.648438 226.195312 55.269531 227.582031 55.925781 C 228.96875 56.582031 230.339844 57.273438 231.695312 57.996094 C 233.046875 58.71875 234.382812 59.476562 235.695312 60.265625 C 237.011719 61.054688 238.308594 61.875 239.585938 62.726562 C 240.859375 63.578125 242.113281 64.460938 243.347656 65.375 C 244.578125 66.289062 245.789062 67.234375 246.972656 68.207031 C 248.160156 69.179688 249.320312 70.179688 250.457031 71.210938 C 251.59375 72.242188 252.707031 73.300781 253.792969 74.386719 C 254.875 75.46875 255.933594 76.582031 256.964844 77.71875 C 257.996094 78.855469 258.996094 80.015625 259.96875 81.203125 C 260.941406 82.386719 261.886719 83.597656 262.800781 84.828125 C 263.714844 86.0625 264.597656 87.316406 265.449219 88.589844 C 266.300781 89.867188 267.125 91.164062 267.910156 92.480469 C 268.699219 93.796875 269.457031 95.128906 270.179688 96.484375 C 270.902344 97.835938 271.59375 99.207031 272.25 100.59375 C 272.90625 101.980469 273.527344 103.382812 274.113281 104.800781 C 274.699219 106.21875 275.253906 107.648438 275.769531 109.09375 C 276.285156 110.539062 276.769531 111.992188 277.214844 113.460938 C 277.660156 114.929688 278.066406 116.410156 278.441406 117.898438 C 278.8125 119.386719 279.148438 120.882812 279.449219 122.386719 C 279.746094 123.890625 280.011719 125.402344 280.234375 126.921875 C 280.460938 128.4375 280.648438 129.960938 280.796875 131.488281 C 280.949219 133.015625 281.0625 134.542969 281.136719 136.074219 C 281.210938 137.609375 281.25 139.140625 281.25 140.675781 Z M 281.25 140.675781 " fill-opacity="1" fill-rule="nonzero"/><path fill="#0cc0df" d="M 248.0625 120.996094 C 246.921875 117.484375 243.648438 115.109375 239.957031 115.109375 L 206.078125 115.109375 L 195.605469 82.882812 C 194.464844 79.371094 191.191406 76.996094 187.5 76.996094 C 183.808594 76.996094 180.535156 79.371094 179.394531 82.882812 L 168.921875 115.109375 L 135.035156 115.109375 C 131.34375 115.109375 128.070312 117.484375 126.929688 120.996094 C 125.785156 124.507812 127.039062 128.351562 130.023438 130.527344 L 157.433594 150.433594 L 146.957031 182.660156 C 145.816406 186.171875 147.066406 190.015625 150.050781 192.1875 C 153.035156 194.359375 157.082031 194.359375 160.074219 192.1875 L 187.5 172.277344 L 214.910156 192.195312 C 216.402344 193.277344 218.164062 193.824219 219.921875 193.824219 C 221.675781 193.824219 223.441406 193.285156 224.933594 192.195312 C 227.921875 190.023438 229.167969 186.179688 228.027344 182.667969 L 217.550781 150.441406 L 244.960938 130.535156 C 247.960938 128.351562 249.203125 124.507812 248.0625 120.996094 Z M 248.0625 120.996094 " fill-opacity="1" fill-rule="nonzero"/><g clip-path="url(#dd0c8e6e21)"><g clip-path="url(#183e98f119)"><path fill="#0cc0df" d="M 70.246094 167.40625 L 73.996094 167.40625 L 73.996094 193.933594 L 70.246094 193.933594 Z M 70.246094 167.40625 " fill-opacity="1" fill-rule="nonzero"/></g></g></svg>