<svg xmlns="http://www.w3.org/2000/svg" xmlns:xlink="http://www.w3.org/1999/xlink" width="500" zoomAndPan="magnify" viewBox="0 0 375 374.999991" height="500" preserveAspectRatio="xMidYMid meet" version="1.0"><defs><clipPath id="395374e889"><path d="M 170.515625 170.160156 L 178.484375 170.160156 L 178.484375 173.910156 L 170.515625 173.910156 Z M 170.515625 170.160156 " clip-rule="nonzero"/></clipPath></defs><g clip-path="url(#395374e889)"><path fill="#ff6f61" d="M 170.515625 170.160156 L 178.484375 170.160156 L 178.484375 173.910156 L 170.515625 173.910156 Z M 170.515625 170.160156 " fill-opacity="1" fill-rule="nonzero"/></g><path fill="#ffffff" d="M 369.140625 52.703125 L 5.859375 52.703125 L 5.859375 40.984375 C 5.859375 34.535156 11.074219 29.265625 17.578125 29.265625 L 357.421875 29.265625 C 363.867188 29.265625 369.140625 34.535156 369.140625 40.984375 Z M 369.140625 52.703125 " fill-opacity="1" fill-rule="nonzero"/><path fill="#ffffff" d="M 313.183594 138.367188 C 315.234375 140.472656 316.40625 143.289062 316.40625 146.453125 C 316.40625 152.898438 311.132812 158.171875 304.6875 158.171875 C 301.523438 158.171875 298.652344 156.941406 296.542969 154.832031 C 294.316406 152.78125 292.96875 149.734375 292.96875 146.453125 C 292.96875 139.949219 298.183594 134.734375 304.6875 134.734375 C 308.027344 134.734375 311.074219 136.140625 313.183594 138.367188 Z M 313.183594 138.367188 " fill-opacity="1" fill-rule="nonzero"/><path fill="#ffffff" d="M 251.953125 99.582031 L 251.953125 146.453125 L 210.9375 146.453125 L 199.21875 152.3125 L 187.5 146.453125 L 146.484375 146.453125 L 146.484375 99.582031 Z M 251.953125 99.582031 " fill-opacity="1" fill-rule="nonzero"/><path fill="#ffffff" d="M 210.9375 187.117188 L 210.9375 187.476562 C 210.9375 193.972656 205.664062 199.195312 199.21875 199.195312 C 192.890625 199.195312 187.734375 194.207031 187.5 187.886719 L 187.5 187.476562 C 187.5 181.027344 192.773438 175.757812 199.21875 175.757812 C 205.546875 175.753906 210.761719 180.851562 210.9375 187.117188 Z M 210.9375 187.117188 " fill-opacity="1" fill-rule="nonzero"/><path fill="#ffffff" d="M 102.011719 220.222656 C 104.179688 222.390625 105.46875 225.320312 105.46875 228.542969 C 105.46875 234.988281 100.195312 240.261719 93.75 240.261719 C 90.46875 240.261719 87.539062 238.921875 85.371094 236.746094 C 83.316406 234.636719 82.03125 231.761719 82.03125 228.542969 C 82.03125 222.039062 87.246094 216.824219 93.75 216.824219 C 96.972656 216.824219 99.902344 218.113281 102.011719 220.222656 Z M 102.011719 220.222656 " fill-opacity="1" fill-rule="nonzero"/><path fill="#ffffff" d="M 313.183594 138.367188 C 311.074219 136.140625 308.027344 134.734375 304.6875 134.734375 C 298.183594 134.734375 292.96875 139.949219 292.96875 146.453125 C 292.96875 149.734375 294.316406 152.78125 296.542969 154.832031 C 298.648438 156.941406 301.523438 158.171875 304.6875 158.171875 C 311.132812 158.171875 316.40625 152.898438 316.40625 146.453125 C 316.40625 143.289062 315.234375 140.476562 313.183594 138.367188 Z M 102.011719 220.222656 C 99.902344 218.113281 96.972656 216.824219 93.75 216.824219 C 87.246094 216.824219 82.03125 222.039062 82.03125 228.542969 C 82.03125 231.765625 83.320312 234.636719 85.371094 236.746094 C 87.539062 238.914062 90.46875 240.261719 93.75 240.261719 C 100.195312 240.261719 105.46875 234.988281 105.46875 228.542969 C 105.46875 225.320312 104.179688 222.390625 102.011719 220.222656 Z M 210.9375 187.117188 C 210.761719 180.855469 205.546875 175.757812 199.21875 175.757812 C 192.773438 175.757812 187.5 181.023438 187.5 187.476562 L 187.5 187.886719 C 187.734375 194.207031 192.890625 199.195312 199.21875 199.195312 C 205.664062 199.195312 210.9375 193.972656 210.9375 187.476562 Z M 369.140625 52.703125 L 369.140625 345.730469 L 5.859375 345.730469 L 5.859375 52.703125 Z M 251.953125 146.453125 L 251.953125 99.578125 L 146.484375 99.578125 L 146.484375 146.453125 L 187.5 146.453125 L 199.21875 152.3125 L 210.9375 146.453125 Z M 251.953125 146.453125 " fill-opacity="1" fill-rule="nonzero"/><path fill="#ff6f61" d="M 5.859375 46.863281 C 2.621094 46.863281 0 44.238281 0 41.003906 C 0 31.3125 7.886719 23.425781 17.578125 23.425781 C 20.820312 23.425781 23.4375 26.050781 23.4375 29.285156 C 23.4375 32.519531 20.820312 35.144531 17.578125 35.144531 C 14.34375 35.144531 11.71875 37.773438 11.71875 41.003906 C 11.71875 44.238281 9.101562 46.863281 5.859375 46.863281 Z M 5.859375 46.863281 " fill-opacity="1" fill-rule="nonzero"/><path fill="#ff6f61" d="M 369.140625 46.863281 C 365.898438 46.863281 363.28125 44.238281 363.28125 41.003906 C 363.28125 37.773438 360.65625 35.144531 357.421875 35.144531 C 354.179688 35.144531 351.5625 32.519531 351.5625 29.285156 C 351.5625 26.050781 354.179688 23.425781 357.421875 23.425781 C 367.113281 23.425781 375 31.3125 375 41.003906 C 375 44.238281 372.378906 46.863281 369.140625 46.863281 Z M 369.140625 46.863281 " fill-opacity="1" fill-rule="nonzero"/><path fill="#ff6f61" d="M 357.421875 35.144531 L 17.578125 35.144531 C 14.339844 35.144531 11.71875 32.519531 11.71875 29.285156 C 11.71875 26.050781 14.339844 23.425781 17.578125 23.425781 L 357.421875 23.425781 C 360.660156 23.425781 363.28125 26.050781 363.28125 29.285156 C 363.28125 32.519531 360.660156 35.144531 357.421875 35.144531 Z M 357.421875 35.144531 " fill-opacity="1" fill-rule="nonzero"/><path fill="#ff6f61" d="M 23.613281 46.863281 C 20.375 46.863281 17.726562 44.238281 17.726562 41.003906 C 17.726562 37.769531 20.316406 35.144531 23.550781 35.144531 L 23.613281 35.144531 C 26.847656 35.144531 29.472656 37.769531 29.472656 41.003906 C 29.472656 44.238281 26.847656 46.863281 23.613281 46.863281 Z M 23.613281 46.863281 " fill-opacity="1" fill-rule="nonzero"/><path fill="#ff6f61" d="M 41.1875 46.863281 C 37.945312 46.863281 35.296875 44.238281 35.296875 41.003906 C 35.296875 37.769531 37.886719 35.144531 41.121094 35.144531 L 41.1875 35.144531 C 44.421875 35.144531 47.042969 37.769531 47.042969 41.003906 C 47.042969 44.238281 44.417969 46.863281 41.183594 46.863281 Z M 41.1875 46.863281 " fill-opacity="1" fill-rule="nonzero"/><path fill="#ff6f61" d="M 58.78125 46.863281 C 55.539062 46.863281 52.890625 44.238281 52.890625 41.003906 C 52.890625 37.769531 55.484375 35.144531 58.71875 35.144531 L 58.78125 35.144531 C 62.015625 35.144531 64.640625 37.769531 64.640625 41.003906 C 64.640625 44.238281 62.015625 46.863281 58.78125 46.863281 Z M 58.78125 46.863281 " fill-opacity="1" fill-rule="nonzero"/><path fill="#ff6f61" d="M 5.859375 351.574219 C 2.621094 351.574219 0 348.953125 0 345.714844 L 0 41.003906 C 0 37.769531 2.621094 35.144531 5.859375 35.144531 C 9.101562 35.144531 11.71875 37.769531 11.71875 41.003906 L 11.71875 345.714844 C 11.71875 348.953125 9.101562 351.574219 5.859375 351.574219 Z M 5.859375 351.574219 " fill-opacity="1" fill-rule="nonzero"/><path fill="#ff6f61" d="M 369.140625 351.574219 C 365.898438 351.574219 363.28125 348.953125 363.28125 345.714844 L 363.28125 41.003906 C 363.28125 37.769531 365.898438 35.144531 369.140625 35.144531 C 372.378906 35.144531 375 37.769531 375 41.003906 L 375 345.714844 C 375 348.953125 372.378906 351.574219 369.140625 351.574219 Z M 369.140625 351.574219 " fill-opacity="1" fill-rule="nonzero"/><path fill="#ff6f61" d="M 369.140625 58.582031 L 5.859375 58.582031 C 2.621094 58.582031 0 55.957031 0 52.722656 C 0 49.488281 2.621094 46.863281 5.859375 46.863281 L 369.140625 46.863281 C 372.378906 46.863281 375 49.488281 375 52.722656 C 375 55.957031 372.378906 58.582031 369.140625 58.582031 Z M 369.140625 58.582031 " fill-opacity="1" fill-rule="nonzero"/><path fill="#ff6f61" d="M 369.140625 351.574219 L 5.859375 351.574219 C 2.621094 351.574219 0 348.953125 0 345.714844 C 0 342.472656 2.621094 339.855469 5.859375 339.855469 L 369.140625 339.855469 C 372.378906 339.855469 375 342.472656 375 345.714844 C 375 348.953125 372.378906 351.574219 369.140625 351.574219 Z M 369.140625 351.574219 " fill-opacity="1" fill-rule="nonzero"/><path fill="#ff6f61" d="M 29.304688 328.125 C 26.0625 328.125 23.445312 325.503906 23.445312 322.265625 L 23.445312 76.171875 C 23.445312 72.9375 26.0625 70.3125 29.304688 70.3125 C 32.542969 70.3125 35.164062 72.9375 35.164062 76.171875 L 35.164062 322.265625 C 35.164062 325.503906 32.542969 328.125 29.304688 328.125 Z M 29.304688 328.125 " fill-opacity="1" fill-rule="nonzero"/><path fill="#ff6f61" d="M 345.703125 328.125 L 29.304688 328.125 C 26.0625 328.125 23.445312 325.503906 23.445312 322.265625 C 23.445312 319.023438 26.0625 316.40625 29.304688 316.40625 L 345.703125 316.40625 C 348.941406 316.40625 351.5625 319.023438 351.5625 322.265625 C 351.5625 325.503906 348.941406 328.125 345.703125 328.125 Z M 345.703125 328.125 " fill-opacity="1" fill-rule="nonzero"/><path fill="#ff6f61" d="M 102.042969 226.113281 C 100.359375 226.113281 98.703125 225.398438 97.535156 224.007812 C 95.460938 221.523438 95.796875 217.832031 98.28125 215.757812 C 122.566406 195.480469 152.460938 184.125 187.144531 182.007812 C 190.441406 181.832031 193.148438 184.269531 193.347656 187.5 C 193.546875 190.726562 191.085938 193.511719 187.851562 193.703125 C 155.726562 195.667969 128.117188 206.109375 105.785156 224.753906 C 104.695312 225.667969 103.367188 226.113281 102.042969 226.113281 Z M 102.042969 226.113281 " fill-opacity="1" fill-rule="nonzero"/><path fill="#ff6f61" d="M 52.742188 304.667969 C 49.5 304.667969 46.882812 302.050781 46.882812 298.808594 C 46.882812 296.582031 55.050781 263.039062 80.929688 232.902344 C 83.046875 230.445312 86.75 230.167969 89.191406 232.277344 C 91.644531 234.386719 91.929688 238.085938 89.820312 240.539062 C 66.058594 268.203125 58.859375 298.339844 58.484375 299.976562 C 57.949219 302.648438 55.578125 304.667969 52.742188 304.667969 Z M 52.742188 304.667969 " fill-opacity="1" fill-rule="nonzero"/><path fill="#ff6f61" d="M 199.222656 205.0625 C 189.53125 205.0625 181.644531 197.171875 181.644531 187.484375 C 181.644531 177.792969 189.53125 169.90625 199.222656 169.90625 C 208.914062 169.90625 216.800781 177.792969 216.800781 187.484375 C 216.800781 197.171875 208.914062 205.0625 199.222656 205.0625 Z M 199.222656 181.625 C 195.992188 181.625 193.363281 184.253906 193.363281 187.484375 C 193.363281 190.710938 195.992188 193.34375 199.222656 193.34375 C 202.457031 193.34375 205.082031 190.710938 205.082031 187.484375 C 205.082031 184.253906 202.457031 181.625 199.222656 181.625 Z M 199.222656 181.625 " fill-opacity="1" fill-rule="nonzero"/><path fill="#ff6f61" d="M 93.75 246.109375 C 84.058594 246.109375 76.171875 238.21875 76.171875 228.527344 C 76.171875 218.835938 84.058594 210.941406 93.75 210.941406 C 103.441406 210.941406 111.328125 218.835938 111.328125 228.527344 C 111.328125 238.21875 103.441406 246.109375 93.75 246.109375 Z M 93.75 222.660156 C 90.515625 222.660156 87.890625 225.292969 87.890625 228.527344 C 87.890625 231.761719 90.515625 234.390625 93.75 234.390625 C 96.984375 234.390625 99.609375 231.761719 99.609375 228.527344 C 99.609375 225.292969 96.984375 222.660156 93.75 222.660156 Z M 93.75 222.660156 " fill-opacity="1" fill-rule="nonzero"/><path fill="#ff6f61" d="M 210.9375 193 C 207.859375 193 205.277344 190.597656 205.09375 187.488281 C 204.902344 184.257812 207.367188 181.480469 210.597656 181.292969 C 242.792969 179.390625 270.445312 168.984375 292.761719 150.355469 C 295.246094 148.277344 298.949219 148.621094 301.011719 151.101562 C 303.085938 153.585938 302.753906 157.28125 300.269531 159.351562 C 275.976562 179.617188 246.039062 190.9375 211.277344 192.988281 C 211.171875 193 211.054688 193 210.9375 193 Z M 210.9375 193 " fill-opacity="1" fill-rule="nonzero"/><path fill="#ff6f61" d="M 313.1875 144.234375 C 311.839844 144.234375 310.480469 143.769531 309.375 142.820312 C 306.917969 140.710938 306.636719 137.015625 308.746094 134.558594 C 332.441406 106.929688 339.589844 76.667969 339.964844 75.007812 C 340.5 72.320312 342.867188 70.296875 345.707031 70.296875 C 348.949219 70.296875 351.566406 72.921875 351.566406 76.15625 C 351.566406 78.394531 343.429688 112.109375 317.636719 142.183594 C 316.480469 143.542969 314.835938 144.234375 313.1875 144.234375 Z M 313.1875 144.234375 " fill-opacity="1" fill-rule="nonzero"/><path fill="#ff6f61" d="M 304.6875 164.027344 C 294.996094 164.027344 287.109375 156.140625 287.109375 146.441406 C 287.109375 136.746094 294.996094 128.859375 304.6875 128.859375 C 314.378906 128.859375 322.265625 136.746094 322.265625 146.441406 C 322.265625 156.140625 314.378906 164.027344 304.6875 164.027344 Z M 304.6875 140.578125 C 301.453125 140.578125 298.828125 143.207031 298.828125 146.441406 C 298.828125 149.675781 301.453125 152.308594 304.6875 152.308594 C 307.921875 152.308594 310.546875 149.675781 310.546875 146.441406 C 310.546875 143.207031 307.921875 140.578125 304.6875 140.578125 Z M 304.6875 140.578125 " fill-opacity="1" fill-rule="nonzero"/><path fill="#ff6f61" d="M 263.8125 281.25 C 260.570312 281.25 257.921875 278.628906 257.921875 275.390625 C 257.921875 272.148438 260.511719 269.53125 263.746094 269.53125 L 263.8125 269.53125 C 267.046875 269.53125 269.671875 272.148438 269.671875 275.390625 C 269.671875 278.628906 267.046875 281.25 263.8125 281.25 Z M 263.8125 281.25 " fill-opacity="1" fill-rule="nonzero"/><path fill="#ff6f61" d="M 345.667969 281.25 L 281.214844 281.25 C 277.972656 281.25 275.355469 278.628906 275.355469 275.390625 C 275.355469 272.148438 277.972656 269.53125 281.214844 269.53125 L 345.667969 269.53125 C 348.90625 269.53125 351.527344 272.148438 351.527344 275.390625 C 351.527344 278.628906 348.90625 281.25 345.667969 281.25 Z M 345.667969 281.25 " fill-opacity="1" fill-rule="nonzero"/><path fill="#ff6f61" d="M 263.8125 257.800781 C 260.570312 257.800781 257.921875 255.183594 257.921875 251.941406 C 257.921875 248.699219 260.511719 246.082031 263.746094 246.082031 L 263.8125 246.082031 C 267.046875 246.082031 269.671875 248.699219 269.671875 251.941406 C 269.671875 255.183594 267.046875 257.800781 263.8125 257.800781 Z M 263.8125 257.800781 " fill-opacity="1" fill-rule="nonzero"/><path fill="#ff6f61" d="M 345.667969 257.800781 L 281.214844 257.800781 C 277.972656 257.800781 275.355469 255.183594 275.355469 251.941406 C 275.355469 248.699219 277.972656 246.082031 281.214844 246.082031 L 345.667969 246.082031 C 348.90625 246.082031 351.527344 248.699219 351.527344 251.941406 C 351.527344 255.183594 348.90625 257.800781 345.667969 257.800781 Z M 345.667969 257.800781 " fill-opacity="1" fill-rule="nonzero"/><path fill="#ff6f61" d="M 263.8125 304.6875 C 260.570312 304.6875 257.921875 302.066406 257.921875 298.828125 C 257.921875 295.585938 260.511719 292.96875 263.746094 292.96875 L 263.8125 292.96875 C 267.046875 292.96875 269.671875 295.585938 269.671875 298.828125 C 269.671875 302.066406 267.046875 304.6875 263.8125 304.6875 Z M 263.8125 304.6875 " fill-opacity="1" fill-rule="nonzero"/><path fill="#ff6f61" d="M 345.667969 304.6875 L 281.214844 304.6875 C 277.972656 304.6875 275.355469 302.066406 275.355469 298.828125 C 275.355469 295.585938 277.972656 292.96875 281.214844 292.96875 L 345.667969 292.96875 C 348.90625 292.96875 351.527344 295.585938 351.527344 298.828125 C 351.527344 302.066406 348.90625 304.6875 345.667969 304.6875 Z M 345.667969 304.6875 " fill-opacity="1" fill-rule="nonzero"/><path fill="#ff6f61" d="M 199.21875 158.191406 C 198.320312 158.191406 197.421875 157.984375 196.601562 157.574219 L 186.109375 152.332031 L 146.5 152.332031 C 143.261719 152.332031 140.640625 149.707031 140.640625 146.472656 L 140.640625 99.597656 C 140.640625 96.363281 143.261719 93.738281 146.5 93.738281 L 251.945312 93.738281 C 255.1875 93.738281 257.804688 96.363281 257.804688 99.597656 L 257.804688 146.472656 C 257.804688 149.707031 255.1875 152.332031 251.945312 152.332031 L 212.324219 152.332031 L 201.835938 157.574219 C 201.015625 157.984375 200.113281 158.191406 199.21875 158.191406 Z M 152.359375 140.613281 L 187.496094 140.613281 C 188.402344 140.613281 189.304688 140.824219 190.113281 141.226562 L 199.21875 145.78125 L 208.324219 141.234375 C 209.140625 140.828125 210.035156 140.617188 210.941406 140.617188 L 246.085938 140.617188 L 246.085938 105.464844 L 152.359375 105.464844 Z M 152.359375 140.613281 " fill-opacity="1" fill-rule="nonzero"/><path fill="#ff6f61" d="M 228.515625 128.894531 L 169.921875 128.894531 C 166.683594 128.894531 164.0625 126.269531 164.0625 123.035156 C 164.0625 119.800781 166.683594 117.175781 169.921875 117.175781 L 228.515625 117.175781 C 231.753906 117.175781 234.375 119.800781 234.375 123.035156 C 234.375 126.269531 231.753906 128.894531 228.515625 128.894531 Z M 228.515625 128.894531 " fill-opacity="1" fill-rule="nonzero"/></svg>