<svg xmlns="http://www.w3.org/2000/svg" xmlns:xlink="http://www.w3.org/1999/xlink" width="500" zoomAndPan="magnify" viewBox="0 0 375 374.999991" height="500" preserveAspectRatio="xMidYMid meet" version="1.0"><defs><clipPath id="6555096b21"><path d="M 37.5 90 L 41.25 90 L 41.25 111.800781 L 37.5 111.800781 Z M 37.5 90 " clip-rule="nonzero"/></clipPath></defs><g clip-path="url(#6555096b21)"><path fill="#212121" d="M 37.5 90 L 41.25 90 L 41.25 111.796875 L 37.5 111.796875 Z M 37.5 90 " fill-opacity="1" fill-rule="nonzero"/></g><path fill="#f5f5f5" d="M 187.46875 70.308594 C 122.871094 70.308594 70.308594 122.871094 70.308594 187.46875 C 70.308594 252.070312 122.871094 304.691406 187.46875 304.691406 C 252.070312 304.691406 304.691406 252.070312 304.691406 187.46875 C 304.691406 122.871094 252.070312 70.308594 187.46875 70.308594 Z M 187.46875 281.234375 C 135.777344 281.234375 93.703125 239.160156 93.703125 187.46875 C 93.703125 135.777344 135.777344 93.703125 187.46875 93.703125 C 239.160156 93.703125 281.234375 135.777344 281.234375 187.46875 C 281.234375 239.160156 239.160156 281.234375 187.46875 281.234375 Z M 187.46875 281.234375 " fill-opacity="1" fill-rule="nonzero"/><path fill="#f5f5f5" d="M 187.46875 46.851562 C 193.921875 46.851562 199.199219 41.578125 199.199219 35.125 L 199.199219 11.726562 C 199.199219 5.273438 193.984375 0 187.46875 0 C 180.953125 0 175.742188 5.273438 175.742188 11.726562 L 175.742188 35.183594 C 175.742188 41.640625 181.015625 46.851562 187.46875 46.851562 Z M 187.46875 46.851562 " fill-opacity="1" fill-rule="nonzero"/><path fill="#f5f5f5" d="M 101.148438 61.433594 C 103.320312 65.21875 107.230469 67.269531 111.328125 67.269531 C 113.3125 67.269531 115.359375 66.769531 117.160156 65.714844 C 122.746094 62.488281 124.667969 55.292969 121.441406 49.707031 L 109.714844 29.414062 C 106.488281 23.828125 99.289062 21.90625 93.703125 25.132812 C 88.117188 28.359375 86.195312 35.558594 89.421875 41.144531 Z M 101.148438 61.433594 " fill-opacity="1" fill-rule="nonzero"/><path fill="#f5f5f5" d="M 61.433594 101.148438 L 41.144531 89.421875 C 35.558594 86.195312 28.359375 88.117188 25.132812 93.703125 C 21.90625 99.289062 23.828125 106.488281 29.414062 109.714844 L 49.707031 121.441406 C 51.566406 122.496094 53.554688 122.992188 55.539062 122.992188 C 59.574219 122.992188 63.542969 120.882812 65.714844 117.160156 C 68.945312 111.574219 67.019531 104.378906 61.433594 101.148438 Z M 61.433594 101.148438 " fill-opacity="1" fill-rule="nonzero"/><path fill="#f5f5f5" d="M 46.851562 187.46875 C 46.851562 181.015625 41.578125 175.742188 35.125 175.742188 L 11.726562 175.742188 C 5.273438 175.742188 0 181.015625 0 187.46875 C 0 193.921875 5.273438 199.199219 11.726562 199.199219 L 35.183594 199.199219 C 41.640625 199.199219 46.851562 193.984375 46.851562 187.46875 Z M 46.851562 187.46875 " fill-opacity="1" fill-rule="nonzero"/><path fill="#f5f5f5" d="M 49.707031 253.496094 L 29.414062 265.222656 C 23.828125 268.449219 21.90625 275.648438 25.132812 281.234375 C 27.304688 285.019531 31.214844 287.066406 35.308594 287.066406 C 37.296875 287.066406 39.34375 286.570312 41.144531 285.515625 L 61.433594 273.789062 C 67.019531 270.5625 68.945312 263.363281 65.714844 257.777344 C 62.488281 252.191406 55.292969 250.269531 49.707031 253.496094 Z M 49.707031 253.496094 " fill-opacity="1" fill-rule="nonzero"/><path fill="#f5f5f5" d="M 117.160156 309.285156 C 111.574219 306.054688 104.378906 307.980469 101.148438 313.566406 L 89.484375 333.855469 C 86.257812 339.441406 88.179688 346.640625 93.765625 349.867188 C 95.628906 350.921875 97.613281 351.417969 99.597656 351.417969 C 103.632812 351.417969 107.605469 349.308594 109.777344 345.585938 L 121.503906 325.292969 C 124.730469 319.648438 122.808594 312.511719 117.160156 309.285156 Z M 117.160156 309.285156 " fill-opacity="1" fill-rule="nonzero"/><path fill="#f5f5f5" d="M 187.46875 328.085938 C 181.015625 328.085938 175.742188 333.359375 175.742188 339.816406 L 175.742188 363.273438 C 175.742188 369.726562 181.015625 375 187.46875 375 C 193.921875 375 199.199219 369.726562 199.199219 363.273438 L 199.199219 339.816406 C 199.199219 333.359375 193.984375 328.085938 187.46875 328.085938 Z M 187.46875 328.085938 " fill-opacity="1" fill-rule="nonzero"/><path fill="#f5f5f5" d="M 273.789062 313.566406 C 270.5625 307.980469 263.363281 306.054688 257.777344 309.285156 C 252.191406 312.511719 250.269531 319.707031 253.496094 325.292969 L 265.222656 345.585938 C 267.394531 349.371094 271.304688 351.417969 275.402344 351.417969 C 277.386719 351.417969 279.433594 350.921875 281.234375 349.867188 C 286.820312 346.640625 288.742188 339.441406 285.515625 333.855469 Z M 273.789062 313.566406 " fill-opacity="1" fill-rule="nonzero"/><path fill="#f5f5f5" d="M 345.585938 265.222656 L 325.292969 253.496094 C 319.707031 250.269531 312.511719 252.191406 309.285156 257.777344 C 306.054688 263.363281 307.980469 270.5625 313.566406 273.789062 L 333.855469 285.515625 C 335.71875 286.570312 337.703125 287.066406 339.691406 287.066406 C 343.722656 287.066406 347.695312 284.957031 349.867188 281.234375 C 353.09375 275.648438 351.171875 268.449219 345.585938 265.222656 Z M 345.585938 265.222656 " fill-opacity="1" fill-rule="nonzero"/><path fill="#f5f5f5" d="M 363.273438 175.742188 L 339.816406 175.742188 C 333.359375 175.742188 328.085938 181.015625 328.085938 187.46875 C 328.085938 193.921875 333.359375 199.199219 339.816406 199.199219 L 363.273438 199.199219 C 369.726562 199.199219 375 193.921875 375 187.46875 C 375 181.015625 369.726562 175.742188 363.273438 175.742188 Z M 363.273438 175.742188 " fill-opacity="1" fill-rule="nonzero"/><path fill="#f5f5f5" d="M 319.398438 123.054688 C 321.382812 123.054688 323.433594 122.558594 325.230469 121.503906 L 345.523438 109.777344 C 351.109375 106.550781 353.03125 99.351562 349.804688 93.765625 C 346.578125 88.179688 339.378906 86.257812 333.796875 89.484375 L 313.566406 101.148438 C 307.980469 104.378906 306.054688 111.574219 309.285156 117.160156 C 311.457031 120.945312 315.363281 123.054688 319.398438 123.054688 Z M 319.398438 123.054688 " fill-opacity="1" fill-rule="nonzero"/><path fill="#f5f5f5" d="M 257.777344 65.714844 C 259.640625 66.769531 261.625 67.269531 263.609375 67.269531 C 267.644531 67.269531 271.617188 65.15625 273.789062 61.433594 L 285.515625 41.144531 C 288.742188 35.558594 286.820312 28.359375 281.234375 25.132812 C 275.648438 21.90625 268.449219 23.828125 265.222656 29.414062 L 253.496094 49.707031 C 250.269531 55.292969 252.191406 62.488281 257.777344 65.714844 Z M 257.777344 65.714844 " fill-opacity="1" fill-rule="nonzero"/></svg>